<svg width="860" height="464" viewBox="0 0 860 464" fill="none" xmlns="http://www.w3.org/2000/svg">
<path d="M773.93 464H844C852.837 464 860 456.837 860 448V38.2805C860 33.6165 857.965 29.1847 854.427 26.1451L828.498 3.86459C825.596 1.37106 821.896 0 818.07 0H261.93C258.104 0 254.404 1.37106 251.502 3.86459L224.498 27.0687C221.596 29.5623 217.896 30.9333 214.07 30.9333H16C7.16344 30.9333 0 38.0968 0 46.9333V394.786C0 399.45 2.03507 403.882 5.57253 406.922L31.5024 429.202C34.4044 431.696 38.1038 433.067 41.9299 433.067H726.07C729.896 433.067 733.596 434.438 736.498 436.931L763.502 460.135C766.404 462.629 770.104 464 773.93 464Z" fill="white"/>
</svg>
