<svg width="604" height="344" viewBox="0 0 604 344" fill="none" xmlns="http://www.w3.org/2000/svg">
<path d="M604 328C604 336.837 596.837 344 588 344H425.889C422.088 344 418.41 342.647 415.516 340.182L388.484 317.164C385.59 314.7 381.912 313.347 378.111 313.347H41.8891C38.0877 313.347 34.4105 311.993 31.5162 309.529L5.62713 287.484C2.05695 284.445 0 279.991 0 275.302V47.0792C0 38.2427 7.16344 31.0792 16 31.0792H214.049C217.888 31.0792 221.599 29.699 224.505 27.1903L251.495 3.88888C254.401 1.38025 258.112 0 261.951 0H562.049C565.888 0 569.599 1.38025 572.505 3.88888L598.456 26.2927C601.976 29.332 604 33.7528 604 38.4038V328Z" fill="white"/>
</svg>
