<svg width="860" height="540" viewBox="0 0 860 540" fill="none" xmlns="http://www.w3.org/2000/svg">
<path d="M774.627 540H844C852.837 540 860 532.837 860 524V42.6274C860 38.384 858.314 34.3143 855.314 31.3137L828.686 4.68629C825.686 1.6857 821.616 0 817.373 0H262.627C258.384 0 254.314 1.6857 251.314 4.68629L224.686 31.3137C221.686 34.3143 217.616 36 213.373 36H16C7.16344 36 0 43.1634 0 52V461.373C0 465.616 1.6857 469.686 4.68629 472.686L31.3137 499.314C34.3143 502.314 38.384 504 42.6274 504H725.373C729.616 504 733.686 505.686 736.686 508.686L763.314 535.314C766.314 538.314 770.384 540 774.627 540Z" fill="white"/>
</svg>
