<svg width="294" height="180" viewBox="0 0 294 180" fill="none" xmlns="http://www.w3.org/2000/svg">
<path d="M294 164.289C294 172.483 287.357 179.126 279.163 179.126H204.437H186.914H23.6688C19.7338 179.126 15.96 177.563 13.1775 174.78L4.34565 165.948C1.56318 163.166 0 159.392 0 155.457V32.6035C0 24.4093 6.64274 17.7666 14.837 17.7666H137.977C141.947 17.7666 145.752 16.1752 148.54 13.3483L157.348 4.41825C160.136 1.5914 163.941 0 167.911 0H270.271C274.242 0 278.046 1.5914 280.835 4.41824L289.726 13.4337C292.465 16.21 294 19.9528 294 23.8524V164.289Z" fill="white"/>
</svg>
