<svg width="604" height="404" viewBox="0 0 604 404" fill="none" xmlns="http://www.w3.org/2000/svg">
<path d="M604 388C604 396.837 596.837 404 588 404H426.627C422.384 404 418.314 402.314 415.314 399.314L388.686 372.686C385.686 369.686 381.616 368 377.373 368H42.6274C38.384 368 34.3143 366.314 31.3137 363.314L4.68629 336.686C1.6857 333.686 0 329.616 0 325.373V52.5C0 43.6634 7.16344 36.5 16 36.5H213.308C217.59 36.5 221.693 34.7839 224.699 31.7354L251.301 4.76458C254.307 1.71615 258.41 0 262.692 0H561.308C565.59 0 569.693 1.71615 572.699 4.76458L599.391 31.8275C602.344 34.8214 604 38.8576 604 43.0629V388Z" fill="white"/>
</svg>
