<svg width="604" height="393" viewBox="0 0 604 393" fill="none" xmlns="http://www.w3.org/2000/svg">
<path d="M604 377C604 385.837 596.837 393 588 393H426.498C422.331 393 418.329 391.374 415.342 388.469L388.658 362.511C385.671 359.606 381.669 357.98 377.502 357.98H42.4984C38.3314 357.98 34.3288 356.355 31.3419 353.449L4.8435 327.672C1.74691 324.66 0 320.523 0 316.203V51.5062C0 42.6696 7.16344 35.5062 16 35.5062H213.437C217.642 35.5062 221.679 33.8507 224.673 30.8978L251.327 4.60843C254.321 1.65552 258.358 0 262.563 0H561.437C565.642 0 569.679 1.65552 572.673 4.60843L599.235 30.8069C602.284 33.8135 604 37.9167 604 42.1984V377Z" fill="white"/>
</svg>
