<svg width="1244" height="732" viewBox="0 0 1244 732" fill="none" xmlns="http://www.w3.org/2000/svg">
<path d="M16 56H158.373C162.616 56 166.686 54.3143 169.686 51.3137L216.314 4.68629C219.314 1.68571 223.384 0 227.627 0H1181.37C1185.62 0 1189.69 1.68571 1192.69 4.68629L1239.31 51.3137C1242.31 54.3143 1244 58.384 1244 62.6275L1244 660C1244 668.837 1236.84 676 1228 676H995.627C991.384 676 987.314 677.686 984.314 680.686L937.686 727.314C934.686 730.314 930.616 732 926.373 732H62.6274C58.3839 732 54.3143 730.314 51.3137 727.314L4.68628 680.686C1.68567 677.686 0 673.616 0 669.373V72C0 63.1634 7.16345 56 16 56Z" fill="white"/>
</svg>
