<svg width="604" height="376" viewBox="0 0 604 376" fill="none" xmlns="http://www.w3.org/2000/svg">
<path d="M604 360C604 368.837 596.837 376 588 376H426.294C422.249 376 418.354 374.468 415.393 371.712L388.607 346.783C385.646 344.027 381.751 342.495 377.706 342.495H42.2936C38.2487 342.495 34.3539 340.963 31.393 338.207L5.09945 313.736C1.84726 310.709 0 306.467 0 302.024V49.9703C0 41.1338 7.16344 33.9703 16 33.9703H213.643C217.726 33.9703 221.654 32.4094 224.624 29.6073L251.376 4.363C254.346 1.56087 258.274 0 262.357 0H561.643C565.726 0 569.654 1.56087 572.624 4.363L598.981 29.2342C602.184 32.257 604 36.4667 604 40.8712V360Z" fill="white"/>
</svg>
