<svg width="294" height="197" viewBox="0 0 294 197" fill="none" xmlns="http://www.w3.org/2000/svg">
<path d="M294 180.94C294 189.66 286.931 196.73 278.21 196.73H210.977C206.79 196.73 202.774 195.066 199.812 192.105L191.539 183.831C188.577 180.87 184.561 179.206 180.374 179.206H24.0635C19.8758 179.206 15.8596 177.543 12.8985 174.582L4.62468 166.308C1.66355 163.347 0 159.331 0 155.143V33.6368C0 24.9164 7.06924 17.8471 15.7896 17.8471H126.342C130.567 17.8471 134.617 16.1535 137.584 13.1452L145.832 4.7825C148.799 1.77415 152.848 0.0805664 157.073 0.0805664H269.873C274.098 0.0805664 278.147 1.77415 281.114 4.7825L289.452 13.236C292.366 16.1906 294 20.1738 294 24.3237V180.94Z" fill="white"/>
</svg>
