<svg width="61" height="58" viewBox="0 0 61 58" fill="none" xmlns="http://www.w3.org/2000/svg">
<g clip-path="url(#clip0_1806_1873)">
<mask id="path-1-outside-1_1806_1873" maskUnits="userSpaceOnUse" x="1" y="1" width="59" height="43" fill="black">
<rect fill="white" x="1" y="1" width="59" height="43"/>
<path d="M58.4386 2.4L51.4207 22.7L58.4386 43H2.00465V32.444H43.3007L41.5026 27.166H2.00465V16.552H42.0826L43.3007 13.014H2.00465V2.4H58.4386Z"/>
</mask>
<path d="M58.4386 2.4L59.3838 2.72674L59.8424 1.4H58.4386V2.4ZM51.4207 22.7L50.4755 22.3733L50.3626 22.7L50.4755 23.0267L51.4207 22.7ZM58.4386 43V44H59.8424L59.3838 42.6733L58.4386 43ZM2.00465 43H1.00465V44H2.00465V43ZM2.00465 32.444V31.444H1.00465V32.444H2.00465ZM43.3007 32.444V33.444H44.6977L44.2472 32.1215L43.3007 32.444ZM41.5026 27.166L42.4492 26.8435L42.2184 26.166H41.5026V27.166ZM2.00465 27.166H1.00465V28.166H2.00465V27.166ZM2.00465 16.552V15.552H1.00465V16.552H2.00465ZM42.0826 16.552V17.552H42.796L43.0282 16.8775L42.0826 16.552ZM43.3007 13.014L44.2462 13.3395L44.7025 12.014H43.3007V13.014ZM2.00465 13.014H1.00465V14.014H2.00465V13.014ZM2.00465 2.4V1.4H1.00465V2.4H2.00465ZM57.4935 2.07326L50.4755 22.3733L52.3658 23.0267L59.3838 2.72674L57.4935 2.07326ZM50.4755 23.0267L57.4935 43.3267L59.3838 42.6733L52.3658 22.3733L50.4755 23.0267ZM58.4386 42H2.00465V44H58.4386V42ZM3.00465 43V32.444H1.00465V43H3.00465ZM2.00465 33.444H43.3007V31.444H2.00465V33.444ZM44.2472 32.1215L42.4492 26.8435L40.5561 27.4885L42.3541 32.7665L44.2472 32.1215ZM41.5026 26.166H2.00465V28.166H41.5026V26.166ZM3.00465 27.166V16.552H1.00465V27.166H3.00465ZM2.00465 17.552H42.0826V15.552H2.00465V17.552ZM43.0282 16.8775L44.2462 13.3395L42.3551 12.6885L41.1371 16.2265L43.0282 16.8775ZM43.3007 12.014H2.00465V14.014H43.3007V12.014ZM3.00465 13.014V2.4H1.00465V13.014H3.00465ZM2.00465 3.4H58.4386V1.4H2.00465V3.4Z" fill="white" fill-opacity="0.4" mask="url(#path-1-outside-1_1806_1873)"/>
</g>
<defs>
<clipPath id="clip0_1806_1873">
<rect width="61" height="58" fill="white"/>
</clipPath>
</defs>
</svg>
