<svg width="115" height="41" viewBox="0 0 115 41" fill="none" xmlns="http://www.w3.org/2000/svg">
<path d="M0.0577147 0.399998V-0.600003H-0.942285V0.399998H0.0577147ZM0.0577147 11.014H-0.942285V12.014H0.0577147V11.014ZM41.3537 11.014L42.298 11.3432L42.7614 10.014H41.3537V11.014ZM38.2797 19.83V20.83H38.9901L39.224 20.1592L38.2797 19.83ZM0.0577147 19.83V18.83H-0.942285V19.83H0.0577147ZM0.0577147 30.444H-0.942285V31.444H0.0577147V30.444ZM34.6257 30.444L35.5691 30.7757L36.0374 29.444H34.6257V30.444ZM30.9137 41L29.9703 40.6683L29.502 42H30.9137V41ZM42.3977 41V42H43.1091L43.3424 41.3279L42.3977 41ZM56.4917 0.399998L57.4364 0.727942L57.8974 -0.600003H56.4917V0.399998ZM-0.942285 0.399998V11.014H1.05771V0.399998H-0.942285ZM0.0577147 12.014H41.3537V10.014H0.0577147V12.014ZM40.4095 10.6848L37.3355 19.5008L39.224 20.1592L42.298 11.3432L40.4095 10.6848ZM38.2797 18.83H0.0577147V20.83H38.2797V18.83ZM-0.942285 19.83V30.444H1.05771V19.83H-0.942285ZM0.0577147 31.444H34.6257V29.444H0.0577147V31.444ZM33.6823 30.1123L29.9703 40.6683L31.8571 41.3317L35.5691 30.7757L33.6823 30.1123ZM30.9137 42H42.3977V40H30.9137V42ZM43.3424 41.3279L57.4364 0.727942L55.547 0.072053L41.453 40.6721L43.3424 41.3279ZM56.4917 -0.600003H0.0577147V1.4H56.4917V-0.600003ZM114.412 25.166V26.166H115.412V25.166H114.412ZM114.412 0.399998H115.412V-0.600003H114.412V0.399998ZM61.4584 0.399998V-0.600003H60.4584V0.399998H61.4584ZM61.4584 11.014H60.4584V12.014H61.4584V11.014ZM103.798 11.014H104.798V10.014H103.798V11.014ZM103.798 14.552V15.552H104.798V14.552H103.798ZM61.4584 14.552V13.552H60.4584V14.552H61.4584ZM61.4584 41H60.4584V42H61.4584V41ZM114.412 41V42H115.412V41H114.412ZM114.412 30.444H115.412V29.444H114.412V30.444ZM72.0144 30.444H71.0144V31.444H72.0144V30.444ZM72.0144 25.166V24.166H71.0144V25.166H72.0144ZM115.412 25.166V0.399998H113.412V25.166H115.412ZM114.412 -0.600003H61.4584V1.4H114.412V-0.600003ZM60.4584 0.399998V11.014H62.4584V0.399998H60.4584ZM61.4584 12.014H103.798V10.014H61.4584V12.014ZM102.798 11.014V14.552H104.798V11.014H102.798ZM103.798 13.552H61.4584V15.552H103.798V13.552ZM60.4584 14.552V41H62.4584V14.552H60.4584ZM61.4584 42H114.412V40H61.4584V42ZM115.412 41V30.444H113.412V41H115.412ZM114.412 29.444H72.0144V31.444H114.412V29.444ZM73.0144 30.444V25.166H71.0144V30.444H73.0144ZM72.0144 26.166H114.412V24.166H72.0144V26.166Z" fill="white" fill-opacity="0.4"/>
</svg>
