<svg width="125" height="64" viewBox="0 0 125 64" fill="none" xmlns="http://www.w3.org/2000/svg">
<path d="M2.03297 8.4V7.4H1.03297V8.4H2.03297ZM2.03297 49H1.03297V50H2.03297V49ZM54.987 49V50H55.987V49H54.987ZM54.987 8.4H55.987V7.4H54.987V8.4ZM44.373 38.444V39.444H45.373V38.444H44.373ZM12.589 38.444H11.589V39.444H12.589V38.444ZM12.589 33.166V32.166H11.589V33.166H12.589ZM44.373 33.166H45.373V32.166H44.373V33.166ZM44.373 22.552V23.552H45.373V22.552H44.373ZM12.589 22.552H11.589V23.552H12.589V22.552ZM12.589 19.014V18.014H11.589V19.014H12.589ZM44.373 19.014H45.373V18.014H44.373V19.014ZM1.03297 8.4V49H3.03297V8.4H1.03297ZM2.03297 50H54.987V48H2.03297V50ZM55.987 49V8.4H53.987V49H55.987ZM54.987 7.4H2.03297V9.4H54.987V7.4ZM44.373 37.444H12.589V39.444H44.373V37.444ZM13.589 38.444V33.166H11.589V38.444H13.589ZM12.589 34.166H44.373V32.166H12.589V34.166ZM43.373 33.166V38.444H45.373V33.166H43.373ZM44.373 21.552H12.589V23.552H44.373V21.552ZM13.589 22.552V19.014H11.589V22.552H13.589ZM12.589 20.014H44.373V18.014H12.589V20.014ZM43.373 19.014V22.552H45.373V19.014H43.373Z" fill="white" fill-opacity="0.4"/>
<path d="M109.75 8.4V7.4H108.75V8.4H109.75ZM109.75 27.83V28.83H110.75V27.83H109.75ZM79.0683 27.83L78.1251 27.4978L77.6558 28.83H79.0683V27.83ZM85.9123 8.4L86.8555 8.73223L87.3248 7.4H85.9123V8.4ZM74.4283 8.4V7.4H73.7197L73.4848 8.06851L74.4283 8.4ZM63.8723 38.444L62.9288 38.1125L62.461 39.444H63.8723V38.444ZM109.75 38.444H110.75V37.444H109.75V38.444ZM109.75 49H108.75V50H109.75V49ZM120.306 49V50H121.306V49H120.306ZM120.306 8.4H121.306V7.4H120.306V8.4ZM108.75 8.4V27.83H110.75V8.4H108.75ZM109.75 26.83H79.0683V28.83H109.75V26.83ZM80.0115 28.1622L86.8555 8.73223L84.9691 8.06777L78.1251 27.4978L80.0115 28.1622ZM85.9123 7.4H74.4283V9.4H85.9123V7.4ZM73.4848 8.06851L62.9288 38.1125L64.8158 38.7755L75.3718 8.73148L73.4848 8.06851ZM63.8723 39.444H109.75V37.444H63.8723V39.444ZM108.75 38.444V49H110.75V38.444H108.75ZM109.75 50H120.306V48H109.75V50ZM121.306 49V8.4H119.306V49H121.306ZM120.306 7.4H109.75V9.4H120.306V7.4Z" fill="white" fill-opacity="0.4"/>
<path fill-rule="evenodd" clip-rule="evenodd" d="M74.9037 50.4549H62.3477V41.4551H74.9037V50.4549ZM73.9037 42.4551V49.4549H63.3477V42.4551H73.9037Z" fill="white" fill-opacity="0.4"/>
</svg>
