<svg width="216" height="31" viewBox="0 0 216 31" fill="none" xmlns="http://www.w3.org/2000/svg">
<path d="M28.4598 4.65893L28.9038 4.81242L29.1192 4.18917H28.4598V4.65893ZM25.1631 14.1949L24.7191 14.0415L24.666 14.1949L24.7191 14.3484L25.1631 14.1949ZM28.4598 23.731V24.2007H29.1192L28.9038 23.5775L28.4598 23.731ZM23.0924 23.731L22.6487 23.8853L22.7585 24.2007H23.0924V23.731ZM20.504 16.2929L20.9477 16.1385L20.838 15.8231H20.504V16.2929ZM6.90842 16.2929V15.8231H6.43866V16.2929H6.90842ZM6.90842 23.731V24.2007H7.37817V23.731H6.90842ZM1.94969 23.731H1.47993V24.2007H1.94969V23.731ZM1.94969 4.65893V4.18917H1.47993V4.65893H1.94969ZM6.90842 4.65893H7.37817V4.18917H6.90842V4.65893ZM6.90842 11.3069H6.43866V11.7766H6.90842V11.3069ZM20.7765 11.3069V11.7766H21.1103L21.2201 11.4614L20.7765 11.3069ZM23.0924 4.65893V4.18917H22.7586L22.6488 4.50439L23.0924 4.65893ZM28.0158 4.50544L24.7191 14.0415L25.607 14.3484L28.9038 4.81242L28.0158 4.50544ZM24.7191 14.3484L28.0158 23.8844L28.9038 23.5775L25.607 14.0415L24.7191 14.3484ZM28.4598 23.2612H23.0924V24.2007H28.4598V23.2612ZM23.5361 23.5766L20.9477 16.1385L20.0604 16.4473L22.6487 23.8853L23.5361 23.5766ZM20.504 15.8231H6.90842V16.7626H20.504V15.8231ZM6.43866 16.2929V23.731H7.37817V16.2929H6.43866ZM6.90842 23.2612H1.94969V24.2007H6.90842V23.2612ZM2.41944 23.731V4.65893H1.47993V23.731H2.41944ZM1.94969 5.12868H6.90842V4.18917H1.94969V5.12868ZM6.43866 4.65893V11.3069H7.37817V4.65893H6.43866ZM6.90842 11.7766H20.7765V10.8371H6.90842V11.7766ZM21.2201 11.4614L23.536 4.81346L22.6488 4.50439L20.3329 11.1524L21.2201 11.4614ZM23.0924 5.12868H28.4598V4.18917H23.0924V5.12868Z" fill="white" fill-opacity="0.4"/>
<path d="M52.5774 5.12868C57.5755 5.12868 61.6437 9.22232 61.6437 14.1949H62.5832C62.5832 8.70519 58.0962 4.18917 52.5774 4.18917V5.12868ZM61.6437 14.1949C61.6437 19.1939 57.5764 23.2612 52.5774 23.2612V24.2007C58.0953 24.2007 62.5832 19.7128 62.5832 14.1949H61.6437ZM52.5774 23.2612H38.4914V24.2007H52.5774V23.2612ZM38.4914 23.2612C33.4924 23.2612 29.4251 19.1939 29.4251 14.1949H28.4856C28.4856 19.7128 32.9735 24.2007 38.4914 24.2007V23.2612ZM29.4251 14.1949C29.4251 9.22232 33.4932 5.12868 38.4914 5.12868V4.18917C32.9726 4.18917 28.4856 8.70519 28.4856 14.1949H29.4251ZM38.4914 5.12868H52.5774V4.18917H38.4914V5.12868ZM52.5774 19.242C55.3453 19.242 57.5972 16.9864 57.5972 14.1949H56.6577C56.6577 16.4712 54.8228 18.3025 52.5774 18.3025V19.242ZM57.5972 14.1949C57.5972 11.4289 55.3435 9.17515 52.5774 9.17515V10.1147C54.8246 10.1147 56.6577 11.9478 56.6577 14.1949H57.5972ZM52.5774 9.17515H38.4914V10.1147H52.5774V9.17515ZM38.4914 9.17515C35.6999 9.17515 33.4443 11.4271 33.4443 14.1949H34.3838C34.3838 11.9496 36.2151 10.1147 38.4914 10.1147V9.17515ZM33.4443 14.1949C33.4443 16.9882 35.6981 19.242 38.4914 19.242V18.3025C36.2169 18.3025 34.3838 16.4694 34.3838 14.1949H33.4443ZM38.4914 19.242H52.5774V18.3025H38.4914V19.242Z" fill="white" fill-opacity="0.4"/>
<path d="M87.5232 4.65893V4.18917H87.2545L87.1183 4.42072L87.5232 4.65893ZM94.7433 4.65893H95.213V4.18917H94.7433V4.65893ZM94.7433 23.731V24.2007H95.213V23.731H94.7433ZM89.7846 23.731H89.3148V24.2007H89.7846V23.731ZM89.7846 10.653H90.2543V8.93131L89.3799 10.4144L89.7846 10.653ZM82.074 23.731V24.2007H82.3424L82.4787 23.9695L82.074 23.731ZM77.5785 23.731L77.1738 23.9695L77.3101 24.2007H77.5785V23.731ZM69.8679 10.653L70.2726 10.4144L69.3982 8.93131V10.653H69.8679ZM69.8679 23.731V24.2007H70.3377V23.731H69.8679ZM64.9092 23.731H64.4394V24.2007H64.9092V23.731ZM64.9092 4.65893V4.18917H64.4394V4.65893H64.9092ZM72.1293 4.65893L72.5346 4.42134L72.3984 4.18917H72.1293V4.65893ZM79.8126 17.7641L79.4074 18.0017L79.8119 18.6917L80.2175 18.0023L79.8126 17.7641ZM87.5232 5.12868H94.7433V4.18917H87.5232V5.12868ZM94.2735 4.65893V23.731H95.213V4.65893H94.2735ZM94.7433 23.2612H89.7846V24.2007H94.7433V23.2612ZM90.2543 23.731V10.653H89.3148V23.731H90.2543ZM89.3799 10.4144L81.6693 23.4924L82.4787 23.9695L90.1892 10.8916L89.3799 10.4144ZM82.074 23.2612H77.5785V24.2007H82.074V23.2612ZM77.9831 23.4924L70.2726 10.4144L69.4633 10.8916L77.1738 23.9695L77.9831 23.4924ZM69.3982 10.653V23.731H70.3377V10.653H69.3982ZM69.8679 23.2612H64.9092V24.2007H69.8679V23.2612ZM65.3789 23.731V4.65893H64.4394V23.731H65.3789ZM64.9092 5.12868H72.1293V4.18917H64.9092V5.12868ZM71.7241 4.89651L79.4074 18.0017L80.2179 17.5266L72.5346 4.42134L71.7241 4.89651ZM80.2175 18.0023L87.928 4.89714L87.1183 4.42072L79.4077 17.5259L80.2175 18.0023Z" fill="white" fill-opacity="0.4"/>
<path d="M119.092 4.65893L119.536 4.50487L119.426 4.18917H119.092V4.65893ZM125.713 23.731V24.2007H126.373L126.157 23.5769L125.713 23.731ZM120.318 23.731L119.874 23.8846L119.984 24.2007H120.318V23.731ZM118.602 18.7722L119.046 18.6186L118.936 18.3025H118.602V18.7722ZM104.652 18.7722V18.3025H104.319L104.209 18.6164L104.652 18.7722ZM102.908 23.731V24.2007H103.241L103.351 23.8868L102.908 23.731ZM97.5409 23.731L97.0971 23.5769L96.8806 24.2007H97.5409V23.731ZM104.162 4.65893V4.18917H103.827L103.718 4.50487L104.162 4.65893ZM106.369 13.7863L105.925 13.6316L105.707 14.256H106.369V13.7863ZM116.858 13.7863V14.256H117.519L117.302 13.6316L116.858 13.7863ZM115.414 9.6449L115.858 9.49024L115.748 9.17515H115.414V9.6449ZM107.813 9.6449V9.17515H107.479L107.369 9.49024L107.813 9.6449ZM118.649 4.81298L125.269 23.885L126.157 23.5769L119.536 4.50487L118.649 4.81298ZM125.713 23.2612H120.318V24.2007H125.713V23.2612ZM120.762 23.5773L119.046 18.6186L118.158 18.9259L119.874 23.8846L120.762 23.5773ZM118.602 18.3025H104.652V19.242H118.602V18.3025ZM104.209 18.6164L102.465 23.5751L103.351 23.8868L105.095 18.9281L104.209 18.6164ZM102.908 23.2612H97.5409V24.2007H102.908V23.2612ZM97.9847 23.885L104.605 4.81298L103.718 4.50487L97.0971 23.5769L97.9847 23.885ZM104.162 5.12868H119.092V4.18917H104.162V5.12868ZM106.369 14.256H116.858V13.3165H106.369V14.256ZM117.302 13.6316L115.858 9.49024L114.971 9.79957L116.415 13.9409L117.302 13.6316ZM115.414 9.17515H107.813V10.1147H115.414V9.17515ZM107.369 9.49024L105.925 13.6316L106.812 13.9409L108.256 9.79957L107.369 9.49024Z" fill="white" fill-opacity="0.4"/>
<path d="M148.216 4.65893V4.18917H147.747V4.65893H148.216ZM153.202 4.65893H153.672V4.18917H153.202V4.65893ZM153.202 23.731V24.2007H153.672V23.731H153.202ZM148.216 23.731H147.747V24.2007H148.216V23.731ZM148.216 16.2929H148.686V15.8231H148.216V16.2929ZM133.286 16.2929V15.8231H132.816V16.2929H133.286ZM133.286 23.731V24.2007H133.755V23.731H133.286ZM128.327 23.731H127.857V24.2007H128.327V23.731ZM128.327 4.65893V4.18917H127.857V4.65893H128.327ZM133.286 4.65893H133.755V4.18917H133.286V4.65893ZM133.286 11.3069H132.816V11.7766H133.286V11.3069ZM148.216 11.3069V11.7766H148.686V11.3069H148.216ZM148.216 5.12868H153.202V4.18917H148.216V5.12868ZM152.733 4.65893V23.731H153.672V4.65893H152.733ZM153.202 23.2612H148.216V24.2007H153.202V23.2612ZM148.686 23.731V16.2929H147.747V23.731H148.686ZM148.216 15.8231H133.286V16.7626H148.216V15.8231ZM132.816 16.2929V23.731H133.755V16.2929H132.816ZM133.286 23.2612H128.327V24.2007H133.286V23.2612ZM128.797 23.731V4.65893H127.857V23.731H128.797ZM128.327 5.12868H133.286V4.18917H128.327V5.12868ZM132.816 4.65893V11.3069H133.755V4.65893H132.816ZM133.286 11.7766H148.216V10.8371H133.286V11.7766ZM148.686 11.3069V4.65893H147.747V11.3069H148.686Z" fill="white" fill-opacity="0.4"/>
<path d="M177.341 4.65893L177.785 4.50487L177.675 4.18917H177.341V4.65893ZM183.962 23.731V24.2007H184.622L184.406 23.5769L183.962 23.731ZM155.79 23.731L155.346 23.5769L155.13 24.2007H155.79V23.731ZM162.411 4.65893V4.18917H162.076L161.967 4.50487L162.411 4.65893ZM162.901 18.7722L162.457 18.6185L162.241 19.242H162.901V18.7722ZM176.851 18.7722V19.242H177.513L177.294 18.6173L176.851 18.7722ZM173.663 9.6449L174.107 9.49001L173.997 9.17515H173.663V9.6449ZM166.062 9.6449V9.17515H165.727L165.618 9.49119L166.062 9.6449ZM176.898 4.81298L183.518 23.885L184.406 23.5769L177.785 4.50487L176.898 4.81298ZM183.962 23.2612H155.79V24.2007H183.962V23.2612ZM156.234 23.885L162.854 4.81298L161.967 4.50487L155.346 23.5769L156.234 23.885ZM162.411 5.12868H177.341V4.18917H162.411V5.12868ZM162.901 19.242H176.851V18.3025H162.901V19.242ZM177.294 18.6173L174.107 9.49001L173.22 9.79979L176.407 18.9271L177.294 18.6173ZM173.663 9.17515H166.062V10.1147H173.663V9.17515ZM165.618 9.49119L162.457 18.6185L163.345 18.9259L166.505 9.79861L165.618 9.49119Z" fill="white" fill-opacity="0.4"/>
<path d="M208.345 4.65893L208.789 4.50487L208.68 4.18917H208.345V4.65893ZM214.966 23.731V24.2007H215.627L215.41 23.5769L214.966 23.731ZM209.572 23.731L209.128 23.8846L209.237 24.2007H209.572V23.731ZM207.855 18.7722L208.299 18.6186L208.19 18.3025H207.855V18.7722ZM193.905 18.7722V18.3025H193.572L193.462 18.6164L193.905 18.7722ZM192.161 23.731V24.2007H192.494L192.605 23.8868L192.161 23.731ZM186.794 23.731L186.35 23.5769L186.134 24.2007H186.794V23.731ZM193.415 4.65893V4.18917H193.081L192.971 4.50487L193.415 4.65893ZM195.622 13.7863L195.178 13.6316L194.96 14.256H195.622V13.7863ZM206.111 13.7863V14.256H206.773L206.555 13.6316L206.111 13.7863ZM204.667 9.6449L205.111 9.49024L205.001 9.17515H204.667V9.6449ZM197.066 9.6449V9.17515H196.732L196.622 9.49024L197.066 9.6449ZM207.902 4.81298L214.522 23.885L215.41 23.5769L208.789 4.50487L207.902 4.81298ZM214.966 23.2612H209.572V24.2007H214.966V23.2612ZM210.015 23.5773L208.299 18.6186L207.411 18.9259L209.128 23.8846L210.015 23.5773ZM207.855 18.3025H193.905V19.242H207.855V18.3025ZM193.462 18.6164L191.718 23.5751L192.605 23.8868L194.348 18.9281L193.462 18.6164ZM192.161 23.2612H186.794V24.2007H192.161V23.2612ZM187.238 23.885L193.859 4.81298L192.971 4.50487L186.35 23.5769L187.238 23.885ZM193.415 5.12868H208.345V4.18917H193.415V5.12868ZM195.622 14.256H206.111V13.3165H195.622V14.256ZM206.555 13.6316L205.111 9.49024L204.224 9.79957L205.668 13.9409L206.555 13.6316ZM204.667 9.17515H197.066V10.1147H204.667V9.17515ZM196.622 9.49024L195.178 13.6316L196.065 13.9409L197.509 9.79957L196.622 9.49024Z" fill="white" fill-opacity="0.4"/>
</svg>
