<svg width="456" height="64" viewBox="0 0 456 64" fill="none" xmlns="http://www.w3.org/2000/svg">
<path d="M58.4386 8.4L59.3838 8.72674L59.8424 7.4H58.4386V8.4ZM47.0127 8.4V7.4H46.3021L46.0683 8.07103L47.0127 8.4ZM42.0826 22.552V23.552H42.7932L43.027 22.881L42.0826 22.552ZM12.5606 22.552H11.5606V23.552H12.5606V22.552ZM12.5606 8.4H13.5606V7.4H12.5606V8.4ZM2.00465 8.4V7.4H1.00465V8.4H2.00465ZM2.00465 49H1.00465V50H2.00465V49ZM12.5606 49V50H13.5606V49H12.5606ZM12.5606 33.166V32.166H11.5606V33.166H12.5606ZM41.5027 33.166L42.4471 32.8373L42.2135 32.166H41.5027V33.166ZM47.0127 49L46.0682 49.3287L46.3018 50H47.0127V49ZM58.4386 49V50H59.8424L59.3838 48.6733L58.4386 49ZM51.4207 28.7L50.4755 28.3733L50.3626 28.7L50.4755 29.0267L51.4207 28.7ZM58.4386 7.4H47.0127V9.4H58.4386V7.4ZM46.0683 8.07103L41.1383 22.223L43.027 22.881L47.957 8.72897L46.0683 8.07103ZM42.0826 21.552H12.5606V23.552H42.0826V21.552ZM13.5606 22.552V8.4H11.5606V22.552H13.5606ZM12.5606 7.4H2.00465V9.4H12.5606V7.4ZM1.00465 8.4V49H3.00465V8.4H1.00465ZM2.00465 50H12.5606V48H2.00465V50ZM13.5606 49V33.166H11.5606V49H13.5606ZM12.5606 34.166H41.5027V32.166H12.5606V34.166ZM40.5582 33.4947L46.0682 49.3287L47.9571 48.6713L42.4471 32.8373L40.5582 33.4947ZM47.0127 50H58.4386V48H47.0127V50ZM59.3838 48.6733L52.3658 28.3733L50.4755 29.0267L57.4935 49.3267L59.3838 48.6733ZM52.3658 29.0267L59.3838 8.72674L57.4935 8.07326L50.4755 28.3733L52.3658 29.0267Z" fill="white" fill-opacity="0.2"/>
<path d="M109.958 7.4H79.9721V9.4H109.958V7.4ZM79.9721 7.4C68.224 7.4 58.6721 17.0136 58.6721 28.7H60.6721C60.6721 18.1144 69.3323 9.4 79.9721 9.4V7.4ZM58.6721 28.7C58.6721 40.4463 68.2258 50 79.9721 50V48C69.3304 48 60.6721 39.3417 60.6721 28.7H58.6721ZM79.9721 50H109.958V48H79.9721V50ZM109.958 50C121.704 50 131.258 40.4463 131.258 28.7H129.258C129.258 39.3417 120.6 48 109.958 48V50ZM131.258 28.7C131.258 17.0136 121.706 7.4 109.958 7.4V9.4C120.598 9.4 129.258 18.1144 129.258 28.7H131.258ZM109.958 37.444H79.9721V39.444H109.958V37.444ZM79.9721 37.444C75.1304 37.444 71.2281 33.5417 71.2281 28.7H69.2281C69.2281 34.6463 74.0258 39.444 79.9721 39.444V37.444ZM71.2281 28.7C71.2281 23.9202 75.1265 20.014 79.9721 20.014V18.014C74.0297 18.014 69.2281 22.8078 69.2281 28.7H71.2281ZM79.9721 20.014H109.958V18.014H79.9721V20.014ZM109.958 20.014C114.742 20.014 118.644 23.9163 118.644 28.7H120.644C120.644 22.8117 115.846 18.014 109.958 18.014V20.014ZM118.644 28.7C118.644 33.5456 114.738 37.444 109.958 37.444V39.444C115.85 39.444 120.644 34.6424 120.644 28.7H118.644Z" fill="white" fill-opacity="0.2"/>
<path d="M184.349 8.4V7.4H183.777L183.487 7.8929L184.349 8.4ZM167.935 36.298L167.072 36.8038L167.933 38.2726L168.797 36.8051L167.935 36.298ZM151.579 8.4L152.441 7.89423L152.152 7.4H151.579V8.4ZM136.209 8.4V7.4H135.209V8.4H136.209ZM136.209 49H135.209V50H136.209V49ZM146.765 49V50H147.765V49H146.765ZM146.765 21.16L147.626 20.6521L145.765 17.4949V21.16H146.765ZM163.179 49L162.317 49.5079L162.607 50H163.179V49ZM172.749 49V50H173.32L173.61 49.5079L172.749 49ZM189.163 21.16H190.163V17.4949L188.301 20.6521L189.163 21.16ZM189.163 49H188.163V50H189.163V49ZM199.719 49V50H200.719V49H199.719ZM199.719 8.4H200.719V7.4H199.719V8.4ZM183.487 7.8929L167.073 35.7909L168.797 36.8051L185.211 8.9071L183.487 7.8929ZM168.797 35.7922L152.441 7.89423L150.716 8.90576L167.072 36.8038L168.797 35.7922ZM151.579 7.4H136.209V9.4H151.579V7.4ZM135.209 8.4V49H137.209V8.4H135.209ZM136.209 50H146.765V48H136.209V50ZM147.765 49V21.16H145.765V49H147.765ZM145.903 21.6679L162.317 49.5079L164.04 48.4921L147.626 20.6521L145.903 21.6679ZM163.179 50H172.749V48H163.179V50ZM173.61 49.5079L190.024 21.6679L188.301 20.6521L171.887 48.4921L173.61 49.5079ZM188.163 21.16V49H190.163V21.16H188.163ZM189.163 50H199.719V48H189.163V50ZM200.719 49V8.4H198.719V49H200.719ZM199.719 7.4H184.349V9.4H199.719V7.4Z" fill="white" fill-opacity="0.2"/>
<path d="M251.374 8.4L252.319 8.07205L252.086 7.4H251.374V8.4ZM219.59 8.4V7.4H218.879L218.646 8.07205L219.59 8.4ZM205.496 49L204.552 48.6721L204.091 50H205.496V49ZM216.922 49V50H217.631L217.866 49.3317L216.922 49ZM220.634 38.444V37.444H219.926L219.691 38.1123L220.634 38.444ZM250.33 38.444L251.275 38.1169L251.042 37.444H250.33V38.444ZM253.984 49L253.039 49.3271L253.272 50H253.984V49ZM265.468 49V50H266.874L266.413 48.6721L265.468 49ZM224.288 27.83L223.344 27.5008L222.881 28.83H224.288V27.83ZM227.362 19.014V18.014H226.652L226.418 18.6848L227.362 19.014ZM243.544 19.014L244.489 18.6848L244.255 18.014H243.544V19.014ZM246.618 27.83V28.83H248.026L247.563 27.5008L246.618 27.83ZM251.374 7.4H219.59V9.4H251.374V7.4ZM218.646 8.07205L204.552 48.6721L206.441 49.3279L220.535 8.72794L218.646 8.07205ZM205.496 50H216.922V48H205.496V50ZM217.866 49.3317L221.578 38.7757L219.691 38.1123L215.979 48.6683L217.866 49.3317ZM220.634 39.444H250.33V37.444H220.634V39.444ZM249.385 38.7711L253.039 49.3271L254.929 48.6729L251.275 38.1169L249.385 38.7711ZM253.984 50H265.468V48H253.984V50ZM266.413 48.6721L252.319 8.07205L250.43 8.72794L264.524 49.3279L266.413 48.6721ZM225.233 28.1592L228.307 19.3432L226.418 18.6848L223.344 27.5008L225.233 28.1592ZM227.362 20.014H243.544V18.014H227.362V20.014ZM242.6 19.3432L245.674 28.1592L247.563 27.5008L244.489 18.6848L242.6 19.3432ZM246.618 26.83H224.288V28.83H246.618V26.83Z" fill="white" fill-opacity="0.2"/>
<path d="M313.373 8.4V7.4H312.373V8.4H313.373ZM313.373 22.552V23.552H314.373V22.552H313.373ZM281.589 22.552H280.589V23.552H281.589V22.552ZM281.589 8.4H282.589V7.4H281.589V8.4ZM271.033 8.4V7.4H270.033V8.4H271.033ZM271.033 49H270.033V50H271.033V49ZM281.589 49V50H282.589V49H281.589ZM281.589 33.166V32.166H280.589V33.166H281.589ZM313.373 33.166H314.373V32.166H313.373V33.166ZM313.373 49H312.373V50H313.373V49ZM323.987 49V50H324.987V49H323.987ZM323.987 8.4H324.987V7.4H323.987V8.4ZM312.373 8.4V22.552H314.373V8.4H312.373ZM313.373 21.552H281.589V23.552H313.373V21.552ZM282.589 22.552V8.4H280.589V22.552H282.589ZM281.589 7.4H271.033V9.4H281.589V7.4ZM270.033 8.4V49H272.033V8.4H270.033ZM271.033 50H281.589V48H271.033V50ZM282.589 49V33.166H280.589V49H282.589ZM281.589 34.166H313.373V32.166H281.589V34.166ZM312.373 33.166V49H314.373V33.166H312.373ZM313.373 50H323.987V48H313.373V50ZM324.987 49V8.4H322.987V49H324.987ZM323.987 7.4H313.373V9.4H323.987V7.4Z" fill="white" fill-opacity="0.2"/>
<path d="M375.374 8.4L376.319 8.07205L376.086 7.4H375.374V8.4ZM343.59 8.4V7.4H342.879L342.646 8.07205L343.59 8.4ZM329.496 49L328.552 48.6721L328.091 50H329.496V49ZM389.468 49V50H390.874L390.413 48.6721L389.468 49ZM344.634 38.444L343.689 38.1168L343.23 39.444H344.634V38.444ZM351.362 19.014V18.014H350.65L350.417 18.6868L351.362 19.014ZM367.544 19.014L368.488 18.6843L368.254 18.014H367.544V19.014ZM374.33 38.444V39.444H375.739L375.274 38.1143L374.33 38.444ZM375.374 7.4H343.59V9.4H375.374V7.4ZM342.646 8.07205L328.552 48.6721L330.441 49.3279L344.535 8.72794L342.646 8.07205ZM329.496 50H389.468V48H329.496V50ZM390.413 48.6721L376.319 8.07205L374.43 8.72794L388.524 49.3279L390.413 48.6721ZM345.579 38.7712L352.307 19.3412L350.417 18.6868L343.689 38.1168L345.579 38.7712ZM351.362 20.014H367.544V18.014H351.362V20.014ZM366.6 19.3437L373.386 38.7737L375.274 38.1143L368.488 18.6843L366.6 19.3437ZM374.33 37.444H344.634V39.444H374.33V37.444Z" fill="white" fill-opacity="0.2"/>
<path d="M441.374 8.4L442.319 8.07205L442.086 7.4H441.374V8.4ZM409.59 8.4V7.4H408.879L408.646 8.07205L409.59 8.4ZM395.496 49L394.552 48.6721L394.091 50H395.496V49ZM406.922 49V50H407.631L407.866 49.3317L406.922 49ZM410.634 38.444V37.444H409.926L409.691 38.1123L410.634 38.444ZM440.33 38.444L441.275 38.1169L441.042 37.444H440.33V38.444ZM443.984 49L443.039 49.3271L443.272 50H443.984V49ZM455.468 49V50H456.874L456.413 48.6721L455.468 49ZM414.288 27.83L413.344 27.5008L412.881 28.83H414.288V27.83ZM417.362 19.014V18.014H416.652L416.418 18.6848L417.362 19.014ZM433.544 19.014L434.489 18.6848L434.255 18.014H433.544V19.014ZM436.618 27.83V28.83H438.026L437.563 27.5008L436.618 27.83ZM441.374 7.4H409.59V9.4H441.374V7.4ZM408.646 8.07205L394.552 48.6721L396.441 49.3279L410.535 8.72794L408.646 8.07205ZM395.496 50H406.922V48H395.496V50ZM407.866 49.3317L411.578 38.7757L409.691 38.1123L405.979 48.6683L407.866 49.3317ZM410.634 39.444H440.33V37.444H410.634V39.444ZM439.385 38.7711L443.039 49.3271L444.929 48.6729L441.275 38.1169L439.385 38.7711ZM443.984 50H455.468V48H443.984V50ZM456.413 48.6721L442.319 8.07205L440.43 8.72794L454.524 49.3279L456.413 48.6721ZM415.233 28.1592L418.307 19.3432L416.418 18.6848L413.344 27.5008L415.233 28.1592ZM417.362 20.014H433.544V18.014H417.362V20.014ZM432.6 19.3432L435.674 28.1592L437.563 27.5008L434.489 18.6848L432.6 19.3432ZM436.618 26.83H414.288V28.83H436.618V26.83Z" fill="white" fill-opacity="0.2"/>
</svg>
