<svg width="442" height="64" viewBox="0 0 442 64" fill="none" xmlns="http://www.w3.org/2000/svg">
<path d="M2.0332 7.90039H1.5332V8.40039V49.0004V49.5004H2.0332H12.5892H13.0892V49.0004V19.5144H43.8732V49.0004V49.5004H44.3732H54.9872H55.4872V49.0004V8.40039V7.90039H54.9872H2.0332ZM60.9872 7.90039H60.4872V8.40039V49.0004V49.5004H60.9872H71.5432H72.0432V49.0004V38.9444H102.457C110.971 38.9444 117.921 31.9913 117.921 23.4224C117.921 14.9128 110.972 7.90039 102.457 7.90039H60.9872ZM252.961 19.5144H253.461V19.0144V8.40039V7.90039H252.961H200.007H199.507V8.40039V49.0004V49.5004H200.007H252.961H253.461V49.0004V38.4444V37.9444H252.961H211.063V33.6664H252.961H253.461V33.1664V22.5524V22.0524H252.961H211.063V19.5144H252.961ZM315.868 8.56376L316.097 7.90039H315.395H303.969H303.614L303.497 8.23591L298.684 22.0524H270.017V8.40039V7.90039H269.517H258.961H258.461V8.40039V49.0004V49.5004H258.961H269.517H270.017V49.0004V33.6664H298.104L303.497 49.1647L303.614 49.5004H303.969H315.395H316.097L315.868 48.837L308.906 28.7004L315.868 8.56376ZM321.395 7.90039H320.895V8.40039V19.0144V19.5144H321.395H342.065V49.0004V49.5004H342.565H353.121H353.621V49.0004V19.5144H374.349H374.849V19.0144V8.40039V7.90039H374.349H321.395ZM407.667 18.5144H391.405V8.40039V7.90039H390.905H380.349H379.849V8.40039V49.0004V49.5004H380.349H407.667C416.236 49.5004 423.189 42.5498 423.189 34.0364C423.189 25.4662 416.237 18.5144 407.667 18.5144ZM428.126 8.1084H427.626V8.6084V49V49.5H428.126H438.747H439.247V49V8.6084V8.1084H438.747H428.126ZM102.457 27.3304H72.0432V19.5144H102.457C104.617 19.5144 106.365 21.2625 106.365 23.4224C106.365 25.5822 104.617 27.3304 102.457 27.3304ZM173.707 7.90039H143.721C132.25 7.90039 122.921 17.2892 122.921 28.7004C122.921 40.1705 132.251 49.5004 143.721 49.5004H173.707C185.177 49.5004 194.507 40.1705 194.507 28.7004C194.507 17.2892 185.178 7.90039 173.707 7.90039ZM173.707 37.9444H143.721C138.603 37.9444 134.477 33.8182 134.477 28.7004C134.477 23.6425 138.601 19.5144 143.721 19.5144H173.707C178.767 19.5144 182.893 23.6405 182.893 28.7004C182.893 33.8202 178.765 37.9444 173.707 37.9444ZM407.667 37.9444H391.405V30.1284H407.667C409.827 30.1284 411.575 31.8765 411.575 34.0364C411.575 36.1963 409.827 37.9444 407.667 37.9444Z" stroke="white" stroke-opacity="0.2"/>
</svg>
