<svg width="452" height="64" viewBox="0 0 452 64" fill="none" xmlns="http://www.w3.org/2000/svg">
<path d="M2.03297 8.4V6.9L0.532969 8.4H2.03297ZM2.03297 49H0.532969L2.03297 50.5V49ZM12.589 49V50.5L14.089 49H12.589ZM12.589 19.014V17.514L11.089 19.014H12.589ZM44.373 19.014H45.873L44.373 17.514V19.014ZM44.373 49H42.873L44.373 50.5V49ZM54.987 49V50.5L56.487 49H54.987ZM54.987 8.4H56.487L54.987 6.9V8.4ZM0.532969 8.4V49H3.53297V8.4H0.532969ZM2.03297 50.5H12.589V47.5H2.03297V50.5ZM14.089 49V19.014H11.089V49H14.089ZM12.589 20.514H44.373V17.514H12.589V20.514ZM42.873 19.014V49H45.873V19.014H42.873ZM44.373 50.5H54.987V47.5H44.373V50.5ZM56.487 49V8.4H53.487V49H56.487ZM54.987 6.9H2.03297V9.9H54.987V6.9Z" fill="white" fill-opacity="0.4"/>
<path d="M67.0046 8.4V6.9L65.5046 8.4H67.0046ZM67.0046 49H65.5046L67.0046 50.5V49ZM77.5606 49V50.5L79.0606 49H77.5606ZM77.5606 38.444V36.944L76.0606 38.444H77.5606ZM77.5606 27.83H76.0606L77.5606 29.33V27.83ZM77.5606 19.014V17.514L76.0606 19.014H77.5606ZM108.475 6.9H67.0046V9.9H108.475V6.9ZM65.5046 8.4V49H68.5046V8.4H65.5046ZM67.0046 50.5H77.5606V47.5H67.0046V50.5ZM79.0606 49V38.444H76.0606V49H79.0606ZM77.5606 39.944H108.475V36.944H77.5606V39.944ZM108.475 39.944C117.543 39.944 124.939 32.5406 124.939 23.422H121.939C121.939 30.8914 115.878 36.944 108.475 36.944V39.944ZM124.939 23.422C124.939 14.3651 117.547 6.9 108.475 6.9V9.9C115.875 9.9 121.939 16.0069 121.939 23.422H124.939ZM108.475 26.33H77.5606V29.33H108.475V26.33ZM79.0606 27.83V19.014H76.0606V27.83H79.0606ZM77.5606 20.514H108.475V17.514H77.5606V20.514ZM108.475 20.514C110.082 20.514 111.383 21.8144 111.383 23.422H114.383C114.383 20.1576 111.739 17.514 108.475 17.514V20.514ZM111.383 23.422C111.383 25.0296 110.082 26.33 108.475 26.33V29.33C111.739 29.33 114.383 26.6864 114.383 23.422H111.383Z" fill="white" fill-opacity="0.4"/>
<path d="M178.958 6.9H148.972V9.9H178.958V6.9ZM148.972 6.9C136.947 6.9 127.172 16.7384 127.172 28.7H130.172C130.172 18.3896 138.609 9.9 148.972 9.9V6.9ZM127.172 28.7C127.172 40.7224 136.95 50.5 148.972 50.5V47.5C138.607 47.5 130.172 39.0656 130.172 28.7H127.172ZM148.972 50.5H178.958V47.5H148.972V50.5ZM178.958 50.5C190.981 50.5 200.758 40.7224 200.758 28.7H197.758C197.758 39.0656 189.324 47.5 178.958 47.5V50.5ZM200.758 28.7C200.758 16.7384 190.983 6.9 178.958 6.9V9.9C189.321 9.9 197.758 18.3896 197.758 28.7H200.758ZM178.958 36.944H148.972V39.944H178.958V36.944ZM148.972 36.944C144.407 36.944 140.728 33.2656 140.728 28.7H137.728C137.728 34.9224 142.75 39.944 148.972 39.944V36.944ZM140.728 28.7C140.728 24.1983 144.401 20.514 148.972 20.514V17.514C142.756 17.514 137.728 22.5297 137.728 28.7H140.728ZM148.972 20.514H178.958V17.514H148.972V20.514ZM178.958 20.514C183.466 20.514 187.144 24.1924 187.144 28.7H190.144C190.144 22.5356 185.123 17.514 178.958 17.514V20.514ZM187.144 28.7C187.144 33.2714 183.46 36.944 178.958 36.944V39.944C185.128 39.944 190.144 34.9166 190.144 28.7H187.144Z" fill="white" fill-opacity="0.4"/>
<path d="M260.987 19.014V20.514L262.487 19.014H260.987ZM260.987 8.4H262.487L260.987 6.9V8.4ZM208.033 8.4V6.9L206.533 8.4H208.033ZM208.033 49H206.533L208.033 50.5V49ZM260.987 49V50.5L262.487 49H260.987ZM260.987 38.444H262.487L260.987 36.944V38.444ZM218.589 38.444H217.089L218.589 39.944V38.444ZM218.589 33.166V31.666L217.089 33.166H218.589ZM260.987 33.166V34.666L262.487 33.166H260.987ZM260.987 22.552H262.487L260.987 21.052V22.552ZM218.589 22.552H217.089L218.589 24.052V22.552ZM218.589 19.014V17.514L217.089 19.014H218.589ZM262.487 19.014V8.4H259.487V19.014H262.487ZM260.987 6.9H208.033V9.9H260.987V6.9ZM206.533 8.4V49H209.533V8.4H206.533ZM208.033 50.5H260.987V47.5H208.033V50.5ZM262.487 49V38.444H259.487V49H262.487ZM260.987 36.944H218.589V39.944H260.987V36.944ZM220.089 38.444V33.166H217.089V38.444H220.089ZM218.589 34.666H260.987V31.666H218.589V34.666ZM262.487 33.166V22.552H259.487V33.166H262.487ZM260.987 21.052H218.589V24.052H260.987V21.052ZM220.089 22.552V19.014H217.089V22.552H220.089ZM218.589 20.514H260.987V17.514H218.589V20.514Z" fill="white" fill-opacity="0.4"/>
<path d="M328.439 8.4L329.856 8.89011L328.439 6.9V8.4ZM317.013 8.4V6.9L315.596 7.90654L317.013 8.4ZM312.083 22.552V24.052L313.499 23.0455L312.083 22.552ZM282.561 22.552H281.061L282.561 24.052V22.552ZM282.561 8.4H284.061L282.561 6.9V8.4ZM272.005 8.4V6.9L270.505 8.4H272.005ZM272.005 49H270.505L272.005 50.5V49ZM282.561 49V50.5L284.061 49H282.561ZM282.561 33.166V31.666L281.061 33.166H282.561ZM311.503 33.166L312.919 32.673L311.503 31.666V33.166ZM317.013 49L315.596 49.493L317.013 50.5V49ZM328.439 49V50.5L329.856 48.5099L328.439 49ZM321.421 28.7L320.003 28.2099V29.1901L321.421 28.7ZM328.439 6.9H317.013V9.9H328.439V6.9ZM315.596 7.90654L310.666 22.0585L313.499 23.0455L318.429 8.89345L315.596 7.90654ZM312.083 21.052H282.561V24.052H312.083V21.052ZM284.061 22.552V8.4H281.061V22.552H284.061ZM282.561 6.9H272.005V9.9H282.561V6.9ZM270.505 8.4V49H273.505V8.4H270.505ZM272.005 50.5H282.561V47.5H272.005V50.5ZM284.061 49V33.166H281.061V49H284.061ZM282.561 34.666H311.503V31.666H282.561V34.666ZM310.086 33.659L315.596 49.493L318.429 48.507L312.919 32.673L310.086 33.659ZM317.013 50.5H328.439V47.5H317.013V50.5ZM329.856 48.5099L322.838 28.2099L320.003 29.1901L327.021 49.4901L329.856 48.5099ZM322.838 29.1901L329.856 8.89011L327.021 7.90989L320.003 28.2099L322.838 29.1901Z" fill="white" fill-opacity="0.4"/>
<path d="M336.033 8.4V6.9L334.533 8.4H336.033ZM336.033 19.014H334.533L336.033 20.514V19.014ZM357.203 19.014H358.703L357.203 17.514V19.014ZM357.203 49H355.703L357.203 50.5V49ZM367.759 49V50.5L369.259 49H367.759ZM367.759 19.014V17.514L366.259 19.014H367.759ZM388.987 19.014V20.514L390.487 19.014H388.987ZM388.987 8.4H390.487L388.987 6.9V8.4ZM334.533 8.4V19.014H337.533V8.4H334.533ZM336.033 20.514H357.203V17.514H336.033V20.514ZM355.703 19.014V49H358.703V19.014H355.703ZM357.203 50.5H367.759V47.5H357.203V50.5ZM369.259 49V19.014H366.259V49H369.259ZM367.759 20.514H388.987V17.514H367.759V20.514ZM390.487 19.014V8.4H387.487V19.014H390.487ZM388.987 6.9H336.033V9.9H388.987V6.9Z" fill="white" fill-opacity="0.4"/>
<path d="M407.561 19.014H406.061L407.561 20.514V19.014ZM407.561 8.4H409.061L407.561 6.9V8.4ZM397.005 8.4V6.9L395.505 8.4H397.005ZM397.005 49H395.505L397.005 50.5V49ZM407.561 38.444H406.061L407.561 39.944V38.444ZM407.561 29.628V28.128L406.061 29.628H407.561ZM439.345 8.4V6.9L437.845 8.4H439.345ZM439.345 49H437.845L439.345 50.5V49ZM449.959 49V50.5L451.459 49H449.959ZM449.959 8.4H451.459L449.959 6.9V8.4ZM424.323 17.514H407.561V20.514H424.323V17.514ZM409.061 19.014V8.4H406.061V19.014H409.061ZM407.561 6.9H397.005V9.9H407.561V6.9ZM395.505 8.4V49H398.505V8.4H395.505ZM397.005 50.5H424.323V47.5H397.005V50.5ZM424.323 50.5C433.441 50.5 440.845 43.1042 440.845 34.036H437.845C437.845 41.4398 431.792 47.5 424.323 47.5V50.5ZM440.845 34.036C440.845 24.9136 433.445 17.514 424.323 17.514V20.514C431.788 20.514 437.845 26.5704 437.845 34.036H440.845ZM424.323 36.944H407.561V39.944H424.323V36.944ZM409.061 38.444V29.628H406.061V38.444H409.061ZM407.561 31.128H424.323V28.128H407.561V31.128ZM424.323 31.128C425.93 31.128 427.231 32.4284 427.231 34.036H430.231C430.231 30.7716 427.587 28.128 424.323 28.128V31.128ZM427.231 34.036C427.231 35.6436 425.93 36.944 424.323 36.944V39.944C427.587 39.944 430.231 37.3004 430.231 34.036H427.231ZM437.845 8.4V49H440.845V8.4H437.845ZM439.345 50.5H449.959V47.5H439.345V50.5ZM451.459 49V8.4H448.459V49H451.459ZM449.959 6.9H439.345V9.9H449.959V6.9Z" fill="white" fill-opacity="0.4"/>
</svg>
