<svg width="209" height="30" viewBox="0 0 209 30" fill="none" xmlns="http://www.w3.org/2000/svg">
<path d="M0.968654 3.58708V3.08708L0.468654 3.58708H0.968654ZM25.0404 3.58708H25.5404L25.0404 3.08708V3.58708ZM25.0404 22.043V22.543L25.5404 22.043H25.0404ZM20.2155 22.043H19.7155L20.2155 22.543V22.043ZM20.2155 8.41197H20.7155L20.2155 7.91197V8.41197ZM5.76719 8.41197V7.91197L5.26719 8.41197H5.76719ZM5.76719 22.043V22.543L6.26719 22.043H5.76719ZM0.968654 22.043H0.468654L0.968654 22.543V22.043ZM0.968654 4.08708H25.0404V3.08708H0.968654V4.08708ZM24.5404 3.58708V22.043H25.5404V3.58708H24.5404ZM25.0404 21.543H20.2155V22.543H25.0404V21.543ZM20.7155 22.043V8.41197H19.7155V22.043H20.7155ZM20.2155 7.91197H5.76719V8.91197H20.2155V7.91197ZM5.26719 8.41197V22.043H6.26719V8.41197H5.26719ZM5.76719 21.543H0.968654V22.543H5.76719V21.543ZM1.46865 22.043V3.58708H0.468654V22.043H1.46865Z" fill="white" fill-opacity="0.4"/>
<path d="M35.391 17.2444V16.7444L34.891 17.2444H35.391ZM35.391 22.043V22.543L35.891 22.043H35.391ZM30.5924 22.043H30.0924L30.5924 22.543V22.043ZM30.5924 3.58708V3.08708L30.0924 3.58708H30.5924ZM35.391 8.41197V7.91197L34.891 8.41197H35.391ZM35.391 12.4195H34.891L35.391 12.9195V12.4195ZM49.4438 4.08708C52.9091 4.08708 55.7461 6.94547 55.7461 10.4158H56.7461C56.7461 6.39822 53.4664 3.08708 49.4438 3.08708V4.08708ZM55.7461 10.4158C55.7461 13.9111 52.9103 16.7444 49.4438 16.7444V17.7444C53.4651 17.7444 56.7461 14.4609 56.7461 10.4158H55.7461ZM49.4438 16.7444H35.391V17.7444H49.4438V16.7444ZM34.891 17.2444V22.043H35.891V17.2444H34.891ZM35.391 21.543H30.5924V22.543H35.391V21.543ZM31.0924 22.043V3.58708H30.0924V22.043H31.0924ZM30.5924 4.08708H49.4438V3.08708H30.5924V4.08708ZM49.4438 12.9195C50.8273 12.9195 51.9476 11.7993 51.9476 10.4158H50.9476C50.9476 11.247 50.275 11.9195 49.4438 11.9195V12.9195ZM51.9476 10.4158C51.9476 9.03226 50.8273 7.91197 49.4438 7.91197V8.91197C50.275 8.91197 50.9476 9.58455 50.9476 10.4158H51.9476ZM49.4438 7.91197H35.391V8.91197H49.4438V7.91197ZM34.891 8.41197V12.4195H35.891V8.41197H34.891ZM35.391 12.9195H49.4438V11.9195H35.391V12.9195Z" fill="white" fill-opacity="0.4"/>
<path d="M81.5729 4.08708C86.3844 4.08708 90.3008 8.02805 90.3008 12.815H91.3008C91.3008 7.47762 86.9385 3.08708 81.5729 3.08708V4.08708ZM90.3008 12.815C90.3008 17.6274 86.3853 21.543 81.5729 21.543V22.543C86.9376 22.543 91.3008 18.1797 91.3008 12.815H90.3008ZM81.5729 21.543H67.9419V22.543H81.5729V21.543ZM67.9419 21.543C63.1295 21.543 59.214 17.6274 59.214 12.815H58.214C58.214 18.1797 62.5772 22.543 67.9419 22.543V21.543ZM59.214 12.815C59.214 8.02805 63.1304 4.08708 67.9419 4.08708V3.08708C62.5763 3.08708 58.214 7.47762 58.214 12.815H59.214ZM67.9419 4.08708H81.5729V3.08708H67.9419V4.08708ZM81.5729 17.7444C84.2766 17.7444 86.4759 15.5412 86.4759 12.815H85.4759C85.4759 14.9928 83.7204 16.7444 81.5729 16.7444V17.7444ZM86.4759 12.815C86.4759 10.1132 84.2747 7.91197 81.5729 7.91197V8.91197C83.7224 8.91197 85.4759 10.6655 85.4759 12.815H86.4759ZM81.5729 7.91197H67.9419V8.91197H81.5729V7.91197ZM67.9419 7.91197C65.2157 7.91197 63.0125 10.1113 63.0125 12.815H64.0125C64.0125 10.6675 65.7641 8.91197 67.9419 8.91197V7.91197ZM63.0125 12.815C63.0125 15.5432 65.2138 17.7444 67.9419 17.7444V16.7444C65.766 16.7444 64.0125 14.9909 64.0125 12.815H63.0125ZM67.9419 17.7444H81.5729V16.7444H67.9419V17.7444Z" fill="white" fill-opacity="0.4"/>
<path d="M118.95 8.41197V8.91197L119.45 8.41197H118.95ZM99.6771 8.41197V7.91197L99.1771 8.41197H99.6771ZM99.6771 10.0203H99.1771L99.6771 10.5203V10.0203ZM118.95 10.0203H119.45L118.95 9.52027V10.0203ZM118.95 14.8452V15.3452L119.45 14.8452H118.95ZM99.6771 14.8452V14.3452L99.1771 14.8452H99.6771ZM99.6771 17.2444H99.1771L99.6771 17.7444V17.2444ZM118.95 17.2444H119.45L118.95 16.7444V17.2444ZM118.95 22.043V22.543L119.45 22.043H118.95ZM94.8786 22.043H94.3786L94.8786 22.543V22.043ZM94.8786 3.58708V3.08708L94.3786 3.58708H94.8786ZM118.95 3.58708H119.45L118.95 3.08708V3.58708ZM118.95 7.91197H99.6771V8.91197H118.95V7.91197ZM99.1771 8.41197V10.0203H100.177V8.41197H99.1771ZM99.6771 10.5203H118.95V9.52027H99.6771V10.5203ZM118.45 10.0203V14.8452H119.45V10.0203H118.45ZM118.95 14.3452H99.6771V15.3452H118.95V14.3452ZM99.1771 14.8452V17.2444H100.177V14.8452H99.1771ZM99.6771 17.7444H118.95V16.7444H99.6771V17.7444ZM118.45 17.2444V22.043H119.45V17.2444H118.45ZM118.95 21.543H94.8786V22.543H118.95V21.543ZM95.3786 22.043V3.58708H94.3786V22.043H95.3786ZM94.8786 4.08708H118.95V3.08708H94.8786V4.08708ZM118.45 3.58708V8.41197H119.45V3.58708H118.45Z" fill="white" fill-opacity="0.4"/>
<path d="M150.156 3.58708L150.629 3.75044L150.156 3.08708V3.58708ZM146.966 12.815L146.493 12.6517V12.9784L146.966 12.815ZM150.156 22.043V22.543L150.629 21.8796L150.156 22.043ZM144.962 22.043L144.49 22.2073L144.962 22.543V22.043ZM142.457 14.8452L142.929 14.6808L142.457 14.3452V14.8452ZM129.301 14.8452V14.3452L128.801 14.8452H129.301ZM129.301 22.043V22.543L129.801 22.043H129.301ZM124.502 22.043H124.002L124.502 22.543V22.043ZM124.502 3.58708V3.08708L124.002 3.58708H124.502ZM129.301 3.58708H129.801L129.301 3.08708V3.58708ZM129.301 10.0203H128.801L129.301 10.5203V10.0203ZM142.721 10.0203V10.5203L143.193 10.1848L142.721 10.0203ZM144.962 3.58708V3.08708L144.49 3.42259L144.962 3.58708ZM149.683 3.42371L146.493 12.6517L147.438 12.9784L150.629 3.75044L149.683 3.42371ZM146.493 12.9784L149.683 22.2063L150.629 21.8796L147.438 12.6517L146.493 12.9784ZM150.156 21.543H144.962V22.543H150.156V21.543ZM145.434 21.8786L142.929 14.6808L141.985 15.0095L144.49 22.2073L145.434 21.8786ZM142.457 14.3452H129.301V15.3452H142.457V14.3452ZM128.801 14.8452V22.043H129.801V14.8452H128.801ZM129.301 21.543H124.502V22.543H129.301V21.543ZM125.002 22.043V3.58708H124.002V22.043H125.002ZM124.502 4.08708H129.301V3.08708H124.502V4.08708ZM128.801 3.58708V10.0203H129.801V3.58708H128.801ZM129.301 10.5203H142.721V9.52027H129.301V10.5203ZM143.193 10.1848L145.434 3.75156L144.49 3.42259L142.249 9.85579L143.193 10.1848ZM144.962 4.08708H150.156V3.08708H144.962V4.08708Z" fill="white" fill-opacity="0.4"/>
<path d="M154.152 3.58708V3.08708L153.652 3.58708H154.152ZM178.224 3.58708H178.724L178.224 3.08708V3.58708ZM178.224 8.41197V8.91197L178.724 8.41197H178.224ZM168.574 8.41197V7.91197L168.074 8.41197H168.574ZM168.574 22.043V22.543L169.074 22.043H168.574ZM163.775 22.043H163.275L163.775 22.543V22.043ZM163.775 8.41197H164.275L163.775 7.91197V8.41197ZM154.152 8.41197H153.652L154.152 8.91197V8.41197ZM154.152 4.08708H178.224V3.08708H154.152V4.08708ZM177.724 3.58708V8.41197H178.724V3.58708H177.724ZM178.224 7.91197H168.574V8.91197H178.224V7.91197ZM168.074 8.41197V22.043H169.074V8.41197H168.074ZM168.574 21.543H163.775V22.543H168.574V21.543ZM164.275 22.043V8.41197H163.275V22.043H164.275ZM163.775 7.91197H154.152V8.91197H163.775V7.91197ZM154.652 8.41197V3.58708H153.652V8.41197H154.652Z" fill="white" fill-opacity="0.4"/>
<path d="M183.776 22.043H183.276L183.776 22.543V22.043ZM183.776 3.58708V3.08708L183.276 3.58708H183.776ZM188.574 3.58708H189.074L188.574 3.08708V3.58708ZM188.574 8.41197H188.074L188.574 8.91197V8.41197ZM188.574 13.2369V12.7369L188.074 13.2369H188.574ZM188.574 17.2444H188.074L188.574 17.7444V17.2444ZM203.022 3.58708V3.08708L202.522 3.58708H203.022ZM207.847 3.58708H208.347L207.847 3.08708V3.58708ZM207.847 22.043V22.543L208.347 22.043H207.847ZM203.022 22.043H202.522L203.022 22.543V22.043ZM196.194 8.91197C199.688 8.91197 202.522 11.7465 202.522 15.2407H203.522C203.522 11.1942 200.24 7.91197 196.194 7.91197V8.91197ZM202.522 15.2407C202.522 18.7072 199.689 21.543 196.194 21.543V22.543C200.239 22.543 203.522 19.262 203.522 15.2407H202.522ZM196.194 21.543H183.776V22.543H196.194V21.543ZM184.276 22.043V3.58708H183.276V22.043H184.276ZM183.776 4.08708H188.574V3.08708H183.776V4.08708ZM188.074 3.58708V8.41197H189.074V3.58708H188.074ZM188.574 8.91197H196.194V7.91197H188.574V8.91197ZM196.194 17.7444C197.577 17.7444 198.698 16.6241 198.698 15.2407H197.698C197.698 16.0719 197.025 16.7444 196.194 16.7444V17.7444ZM198.698 15.2407C198.698 13.8572 197.577 12.7369 196.194 12.7369V13.7369C197.025 13.7369 197.698 14.4094 197.698 15.2407H198.698ZM196.194 12.7369H188.574V13.7369H196.194V12.7369ZM188.074 13.2369V17.2444H189.074V13.2369H188.074ZM188.574 17.7444H196.194V16.7444H188.574V17.7444ZM203.022 4.08708H207.847V3.08708H203.022V4.08708ZM207.347 3.58708V22.043H208.347V3.58708H207.347ZM207.847 21.543H203.022V22.543H207.847V21.543ZM203.522 22.043V3.58708H202.522V22.043H203.522Z" fill="white" fill-opacity="0.4"/>
</svg>
