<svg width="452" height="64" viewBox="0 0 452 64" fill="none" xmlns="http://www.w3.org/2000/svg">
<path d="M2.03297 8.4V7.4L1.03297 8.4H2.03297ZM2.03297 49H1.03297L2.03297 50V49ZM12.589 49V50L13.589 49H12.589ZM12.589 19.014V18.014L11.589 19.014H12.589ZM44.373 19.014H45.373L44.373 18.014V19.014ZM44.373 49H43.373L44.373 50V49ZM54.987 49V50L55.987 49H54.987ZM54.987 8.4H55.987L54.987 7.4V8.4ZM1.03297 8.4V49H3.03297V8.4H1.03297ZM2.03297 50H12.589V48H2.03297V50ZM13.589 49V19.014H11.589V49H13.589ZM12.589 20.014H44.373V18.014H12.589V20.014ZM43.373 19.014V49H45.373V19.014H43.373ZM44.373 50H54.987V48H44.373V50ZM55.987 49V8.4H53.987V49H55.987ZM54.987 7.4H2.03297V9.4H54.987V7.4Z" fill="white" fill-opacity="0.4"/>
<path d="M67.0046 8.4V7.4L66.0046 8.4H67.0046ZM67.0046 49H66.0046L67.0046 50V49ZM77.5606 49V50L78.5606 49H77.5606ZM77.5606 38.444V37.444L76.5606 38.444H77.5606ZM77.5606 27.83H76.5606L77.5606 28.83V27.83ZM77.5606 19.014V18.014L76.5606 19.014H77.5606ZM108.475 7.4H67.0046V9.4H108.475V7.4ZM66.0046 8.4V49H68.0046V8.4H66.0046ZM67.0046 50H77.5606V48H67.0046V50ZM78.5606 49V38.444H76.5606V49H78.5606ZM77.5606 39.444H108.475V37.444H77.5606V39.444ZM108.475 39.444C117.265 39.444 124.439 32.2658 124.439 23.422H122.439C122.439 31.1662 116.156 37.444 108.475 37.444V39.444ZM124.439 23.422C124.439 14.6388 117.268 7.4 108.475 7.4V9.4C116.153 9.4 122.439 15.7332 122.439 23.422H124.439ZM108.475 26.83H77.5606V28.83H108.475V26.83ZM78.5606 27.83V19.014H76.5606V27.83H78.5606ZM77.5606 20.014H108.475V18.014H77.5606V20.014ZM108.475 20.014C110.358 20.014 111.883 21.5383 111.883 23.422H113.883C113.883 20.4337 111.463 18.014 108.475 18.014V20.014ZM111.883 23.422C111.883 25.3057 110.358 26.83 108.475 26.83V28.83C111.463 28.83 113.883 26.4103 113.883 23.422H111.883Z" fill="white" fill-opacity="0.4"/>
<path d="M178.958 7.4H148.972V9.4H178.958V7.4ZM148.972 7.4C137.224 7.4 127.672 17.0136 127.672 28.7H129.672C129.672 18.1144 138.332 9.4 148.972 9.4V7.4ZM127.672 28.7C127.672 40.4463 137.226 50 148.972 50V48C138.33 48 129.672 39.3417 129.672 28.7H127.672ZM148.972 50H178.958V48H148.972V50ZM178.958 50C190.704 50 200.258 40.4463 200.258 28.7H198.258C198.258 39.3417 189.6 48 178.958 48V50ZM200.258 28.7C200.258 17.0136 190.706 7.4 178.958 7.4V9.4C189.598 9.4 198.258 18.1144 198.258 28.7H200.258ZM178.958 37.444H148.972V39.444H178.958V37.444ZM148.972 37.444C144.13 37.444 140.228 33.5417 140.228 28.7H138.228C138.228 34.6463 143.026 39.444 148.972 39.444V37.444ZM140.228 28.7C140.228 23.9202 144.127 20.014 148.972 20.014V18.014C143.03 18.014 138.228 22.8078 138.228 28.7H140.228ZM148.972 20.014H178.958V18.014H148.972V20.014ZM178.958 20.014C183.742 20.014 187.644 23.9163 187.644 28.7H189.644C189.644 22.8117 184.846 18.014 178.958 18.014V20.014ZM187.644 28.7C187.644 33.5456 183.738 37.444 178.958 37.444V39.444C184.85 39.444 189.644 34.6424 189.644 28.7H187.644Z" fill="white" fill-opacity="0.4"/>
<path d="M260.987 19.014V20.014L261.987 19.014H260.987ZM260.987 8.4H261.987L260.987 7.4V8.4ZM208.033 8.4V7.4L207.033 8.4H208.033ZM208.033 49H207.033L208.033 50V49ZM260.987 49V50L261.987 49H260.987ZM260.987 38.444H261.987L260.987 37.444V38.444ZM218.589 38.444H217.589L218.589 39.444V38.444ZM218.589 33.166V32.166L217.589 33.166H218.589ZM260.987 33.166V34.166L261.987 33.166H260.987ZM260.987 22.552H261.987L260.987 21.552V22.552ZM218.589 22.552H217.589L218.589 23.552V22.552ZM218.589 19.014V18.014L217.589 19.014H218.589ZM261.987 19.014V8.4H259.987V19.014H261.987ZM260.987 7.4H208.033V9.4H260.987V7.4ZM207.033 8.4V49H209.033V8.4H207.033ZM208.033 50H260.987V48H208.033V50ZM261.987 49V38.444H259.987V49H261.987ZM260.987 37.444H218.589V39.444H260.987V37.444ZM219.589 38.444V33.166H217.589V38.444H219.589ZM218.589 34.166H260.987V32.166H218.589V34.166ZM261.987 33.166V22.552H259.987V33.166H261.987ZM260.987 21.552H218.589V23.552H260.987V21.552ZM219.589 22.552V19.014H217.589V22.552H219.589ZM218.589 20.014H260.987V18.014H218.589V20.014Z" fill="white" fill-opacity="0.4"/>
<path d="M328.439 8.4L329.384 8.72674L328.439 7.4V8.4ZM317.013 8.4V7.4L316.068 8.07103L317.013 8.4ZM312.083 22.552V23.552L313.027 22.881L312.083 22.552ZM282.561 22.552H281.561L282.561 23.552V22.552ZM282.561 8.4H283.561L282.561 7.4V8.4ZM272.005 8.4V7.4L271.005 8.4H272.005ZM272.005 49H271.005L272.005 50V49ZM282.561 49V50L283.561 49H282.561ZM282.561 33.166V32.166L281.561 33.166H282.561ZM311.503 33.166L312.447 32.8373L311.503 32.166V33.166ZM317.013 49L316.068 49.3287L317.013 50V49ZM328.439 49V50L329.384 48.6733L328.439 49ZM321.421 28.7L320.476 28.3733V29.0267L321.421 28.7ZM328.439 7.4H317.013V9.4H328.439V7.4ZM316.068 8.07103L311.138 22.223L313.027 22.881L317.957 8.72897L316.068 8.07103ZM312.083 21.552H282.561V23.552H312.083V21.552ZM283.561 22.552V8.4H281.561V22.552H283.561ZM282.561 7.4H272.005V9.4H282.561V7.4ZM271.005 8.4V49H273.005V8.4H271.005ZM272.005 50H282.561V48H272.005V50ZM283.561 49V33.166H281.561V49H283.561ZM282.561 34.166H311.503V32.166H282.561V34.166ZM310.558 33.4947L316.068 49.3287L317.957 48.6713L312.447 32.8373L310.558 33.4947ZM317.013 50H328.439V48H317.013V50ZM329.384 48.6733L322.366 28.3733L320.476 29.0267L327.494 49.3267L329.384 48.6733ZM322.366 29.0267L329.384 8.72674L327.494 8.07326L320.476 28.3733L322.366 29.0267Z" fill="white" fill-opacity="0.4"/>
<path d="M336.033 8.4V7.4L335.033 8.4H336.033ZM336.033 19.014H335.033L336.033 20.014V19.014ZM357.203 19.014H358.203L357.203 18.014V19.014ZM357.203 49H356.203L357.203 50V49ZM367.759 49V50L368.759 49H367.759ZM367.759 19.014V18.014L366.759 19.014H367.759ZM388.987 19.014V20.014L389.987 19.014H388.987ZM388.987 8.4H389.987L388.987 7.4V8.4ZM335.033 8.4V19.014H337.033V8.4H335.033ZM336.033 20.014H357.203V18.014H336.033V20.014ZM356.203 19.014V49H358.203V19.014H356.203ZM357.203 50H367.759V48H357.203V50ZM368.759 49V19.014H366.759V49H368.759ZM367.759 20.014H388.987V18.014H367.759V20.014ZM389.987 19.014V8.4H387.987V19.014H389.987ZM388.987 7.4H336.033V9.4H388.987V7.4Z" fill="white" fill-opacity="0.4"/>
<path d="M407.561 19.014H406.561L407.561 20.014V19.014ZM407.561 8.4H408.561L407.561 7.4V8.4ZM397.005 8.4V7.4L396.005 8.4H397.005ZM397.005 49H396.005L397.005 50V49ZM407.561 38.444H406.561L407.561 39.444V38.444ZM407.561 29.628V28.628L406.561 29.628H407.561ZM439.345 8.4V7.4L438.345 8.4H439.345ZM439.345 49H438.345L439.345 50V49ZM449.959 49V50L450.959 49H449.959ZM449.959 8.4H450.959L449.959 7.4V8.4ZM424.323 18.014H407.561V20.014H424.323V18.014ZM408.561 19.014V8.4H406.561V19.014H408.561ZM407.561 7.4H397.005V9.4H407.561V7.4ZM396.005 8.4V49H398.005V8.4H396.005ZM397.005 50H424.323V48H397.005V50ZM424.323 50C433.166 50 440.345 42.8268 440.345 34.036H438.345C438.345 41.7172 432.067 48 424.323 48V50ZM440.345 34.036C440.345 25.1897 433.169 18.014 424.323 18.014V20.014C432.064 20.014 438.345 26.2943 438.345 34.036H440.345ZM424.323 37.444H407.561V39.444H424.323V37.444ZM408.561 38.444V29.628H406.561V38.444H408.561ZM407.561 30.628H424.323V28.628H407.561V30.628ZM424.323 30.628C426.206 30.628 427.731 32.1523 427.731 34.036H429.731C429.731 31.0477 427.311 28.628 424.323 28.628V30.628ZM427.731 34.036C427.731 35.9197 426.206 37.444 424.323 37.444V39.444C427.311 39.444 429.731 37.0243 429.731 34.036H427.731ZM438.345 8.4V49H440.345V8.4H438.345ZM439.345 50H449.959V48H439.345V50ZM450.959 49V8.4H448.959V49H450.959ZM449.959 7.4H439.345V9.4H449.959V7.4Z" fill="white" fill-opacity="0.4"/>
</svg>
