<svg width="204" height="36" viewBox="0 0 204 36" fill="none" xmlns="http://www.w3.org/2000/svg">
<path d="M7.49107 21.2055V20.6566H6.94214V21.2055H7.49107ZM7.49107 27V27.5489H8.04V27H7.49107ZM1.6966 27H1.14768V27.5489H1.6966V27ZM1.6966 4.71359V4.16466H1.14768V4.71359H1.6966ZM7.49107 10.5399V9.99097H6.94214V10.5399H7.49107ZM7.49107 15.3792H6.94214V15.9282H7.49107V15.3792ZM24.4606 5.26251C28.6756 5.26251 32.1258 8.739 32.1258 12.9596H33.2236C33.2236 8.1382 29.2875 4.16466 24.4606 4.16466V5.26251ZM32.1258 12.9596C32.1258 17.2106 28.677 20.6566 24.4606 20.6566V21.7545C29.2861 21.7545 33.2236 17.8141 33.2236 12.9596H32.1258ZM24.4606 20.6566H7.49107V21.7545H24.4606V20.6566ZM6.94214 21.2055V27H8.04V21.2055H6.94214ZM7.49107 26.4511H1.6966V27.5489H7.49107V26.4511ZM2.24553 27V4.71359H1.14768V27H2.24553ZM1.6966 5.26251H24.4606V4.16466H1.6966V5.26251ZM24.4606 15.9282C26.1009 15.9282 27.4292 14.5999 27.4292 12.9596H26.3313C26.3313 13.9936 25.4946 14.8303 24.4606 14.8303V15.9282ZM27.4292 12.9596C27.4292 11.3192 26.1009 9.99097 24.4606 9.99097V11.0888C25.4946 11.0888 26.3313 11.9255 26.3313 12.9596H27.4292ZM24.4606 9.99097H7.49107V11.0888H24.4606V9.99097ZM6.94214 10.5399V15.3792H8.04V10.5399H6.94214ZM7.49107 15.9282H24.4606V14.8303H7.49107V15.9282Z" fill="white" fill-opacity="0.4"/>
<path d="M56.7433 4.71359L57.2618 4.53357L57.1338 4.16466H56.7433V4.71359ZM64.4798 27V27.5489H65.2514L64.9984 26.82L64.4798 27ZM58.176 27L57.6572 27.1796L57.7851 27.5489H58.176V27ZM56.1702 21.2055L56.6889 21.026L56.561 20.6566H56.1702V21.2055ZM39.8693 21.2055V20.6566H39.4804L39.3514 21.0234L39.8693 21.2055ZM37.8316 27V27.5489H38.2205L38.3495 27.1821L37.8316 27ZM31.5596 27L31.041 26.82L30.788 27.5489H31.5596V27ZM39.2962 4.71359V4.16466H38.9057L38.7776 4.53357L39.2962 4.71359ZM41.875 15.3792L41.3567 15.1985L41.1023 15.9282H41.875V15.3792ZM54.1326 15.3792V15.9282H54.9053L54.6509 15.1985L54.1326 15.3792ZM52.4452 10.5399L52.9635 10.3592L52.8351 9.99097H52.4452V10.5399ZM43.5624 10.5399V9.99097H43.1725L43.0441 10.3592L43.5624 10.5399ZM56.2247 4.89361L63.9613 27.18L64.9984 26.82L57.2618 4.53357L56.2247 4.89361ZM64.4798 26.4511H58.176V27.5489H64.4798V26.4511ZM58.6947 26.8204L56.6889 21.026L55.6515 21.3851L57.6572 27.1796L58.6947 26.8204ZM56.1702 20.6566H39.8693V21.7545H56.1702V20.6566ZM39.3514 21.0234L37.3138 26.8179L38.3495 27.1821L40.3871 21.3876L39.3514 21.0234ZM37.8316 26.4511H31.5596V27.5489H37.8316V26.4511ZM32.0782 27.18L39.8148 4.89361L38.7776 4.53357L31.041 26.82L32.0782 27.18ZM39.2962 5.26251H56.7433V4.16466H39.2962V5.26251ZM41.875 15.9282H54.1326V14.8303H41.875V15.9282ZM54.6509 15.1985L52.9635 10.3592L51.9268 10.7206L53.6142 15.56L54.6509 15.1985ZM52.4452 9.99097H43.5624V11.0888H52.4452V9.99097ZM43.0441 10.3592L41.3567 15.1985L42.3934 15.56L44.0808 10.7206L43.0441 10.3592Z" fill="white" fill-opacity="0.4"/>
<path d="M67.0186 27H66.4697V27.5489H67.0186V27ZM67.0186 4.71359V4.16466H66.4697V4.71359H67.0186ZM96.0865 4.71359H96.6354V4.16466H96.0865V4.71359ZM96.0865 10.5399V11.0888H96.6354V10.5399H96.0865ZM72.8131 10.5399V9.99097H72.2642V10.5399H72.8131ZM72.8131 12.482H72.2642V13.0309H72.8131V12.482ZM72.8131 18.3083V17.7594H72.2642V18.3083H72.8131ZM72.8131 21.2055H72.2642V21.7545H72.8131V21.2055ZM90.7377 13.0309C94.4461 13.0309 97.4478 16.0326 97.4478 19.741H98.5457C98.5457 15.4263 95.0525 11.9331 90.7377 11.9331V13.0309ZM97.4478 19.741C97.4478 23.4494 94.4461 26.4511 90.7377 26.4511V27.5489C95.0525 27.5489 98.5457 24.0557 98.5457 19.741H97.4478ZM90.7377 26.4511H67.0186V27.5489H90.7377V26.4511ZM67.5676 27V4.71359H66.4697V27H67.5676ZM67.0186 5.26251H96.0865V4.16466H67.0186V5.26251ZM95.5375 4.71359V10.5399H96.6354V4.71359H95.5375ZM96.0865 9.99097H72.8131V11.0888H96.0865V9.99097ZM72.2642 10.5399V12.482H73.362V10.5399H72.2642ZM72.8131 13.0309H90.7377V11.9331H72.8131V13.0309ZM90.7377 21.7545C91.8368 21.7545 92.7512 20.8401 92.7512 19.741H91.6533C91.6533 20.2338 91.2305 20.6566 90.7377 20.6566V21.7545ZM92.7512 19.741C92.7512 18.6263 91.821 17.7594 90.7377 17.7594V18.8572C91.2463 18.8572 91.6533 19.2638 91.6533 19.741H92.7512ZM90.7377 17.7594H72.8131V18.8572H90.7377V17.7594ZM72.2642 18.3083V21.2055H73.362V18.3083H72.2642ZM72.8131 21.7545H90.7377V20.6566H72.8131V21.7545Z" fill="white" fill-opacity="0.4"/>
<path d="M128.454 5.26251C134.294 5.26251 139.048 10.0461 139.048 15.8568H140.146C140.146 9.44181 134.903 4.16466 128.454 4.16466V5.26251ZM139.048 15.8568C139.048 21.6983 134.295 26.4511 128.454 26.4511V27.5489C134.902 27.5489 140.146 22.3046 140.146 15.8568H139.048ZM128.454 26.4511H111.994V27.5489H128.454V26.4511ZM111.994 26.4511C106.152 26.4511 101.4 21.6983 101.4 15.8568H100.302C100.302 22.3046 105.546 27.5489 111.994 27.5489V26.4511ZM101.4 15.8568C101.4 10.0461 106.153 5.26251 111.994 5.26251V4.16466C105.545 4.16466 100.302 9.44181 100.302 15.8568H101.4ZM111.994 5.26251H128.454V4.16466H111.994V5.26251ZM128.454 21.7545C131.688 21.7545 134.32 19.1187 134.32 15.8568H133.222C133.222 18.5167 131.078 20.6566 128.454 20.6566V21.7545ZM134.32 15.8568C134.32 12.6246 131.686 9.99097 128.454 9.99097V11.0888C131.08 11.0888 133.222 13.2309 133.222 15.8568H134.32ZM128.454 9.99097H111.994V11.0888H128.454V9.99097ZM111.994 9.99097C108.732 9.99097 106.096 12.6224 106.096 15.8568H107.194C107.194 13.233 109.334 11.0888 111.994 11.0888V9.99097ZM106.096 15.8568C106.096 19.1209 108.73 21.7545 111.994 21.7545V20.6566C109.336 20.6566 107.194 18.5145 107.194 15.8568H106.096ZM111.994 21.7545H128.454V20.6566H111.994V21.7545Z" fill="white" fill-opacity="0.4"/>
<path d="M141.14 4.71359V4.16466H140.591V4.71359H141.14ZM170.207 4.71359H170.756V4.16466H170.207V4.71359ZM170.207 10.5399V11.0888H170.756V10.5399H170.207ZM158.555 10.5399V9.99097H158.006V10.5399H158.555ZM158.555 27V27.5489H159.104V27H158.555ZM152.76 27H152.211V27.5489H152.76V27ZM152.76 10.5399H153.309V9.99097H152.76V10.5399ZM141.14 10.5399H140.591V11.0888H141.14V10.5399ZM141.14 5.26251H170.207V4.16466H141.14V5.26251ZM169.658 4.71359V10.5399H170.756V4.71359H169.658ZM170.207 9.99097H158.555V11.0888H170.207V9.99097ZM158.006 10.5399V27H159.104V10.5399H158.006ZM158.555 26.4511H152.76V27.5489H158.555V26.4511ZM153.309 27V10.5399H152.211V27H153.309ZM152.76 9.99097H141.14V11.0888H152.76V9.99097ZM141.688 10.5399V4.71359H140.591V10.5399H141.688Z" fill="white" fill-opacity="0.4"/>
<path d="M173.511 27H172.962V27.5489H173.511V27ZM173.511 4.71359V4.16466H172.962V4.71359H173.511ZM179.305 4.71359H179.854V4.16466H179.305V4.71359ZM179.305 10.5399H178.756V11.0888H179.305V10.5399ZM179.305 16.3662V15.8173H178.756V16.3662H179.305ZM179.305 21.2055H178.756V21.7545H179.305V21.2055ZM196.752 4.71359V4.16466H196.203V4.71359H196.752ZM202.579 4.71359H203.127V4.16466H202.579V4.71359ZM202.579 27V27.5489H203.127V27H202.579ZM196.752 27H196.203V27.5489H196.752V27ZM188.506 11.0888C192.756 11.0888 196.203 14.5362 196.203 18.7859H197.301C197.301 13.9299 193.362 9.99097 188.506 9.99097V11.0888ZM196.203 18.7859C196.203 23.0023 192.757 26.4511 188.506 26.4511V27.5489C193.361 27.5489 197.301 23.6114 197.301 18.7859H196.203ZM188.506 26.4511H173.511V27.5489H188.506V26.4511ZM174.06 27V4.71359H172.962V27H174.06ZM173.511 5.26251H179.305V4.16466H173.511V5.26251ZM178.756 4.71359V10.5399H179.854V4.71359H178.756ZM179.305 11.0888H188.506V9.99097H179.305V11.0888ZM188.506 21.7545C190.147 21.7545 191.475 20.4262 191.475 18.7859H190.377C190.377 19.8199 189.54 20.6566 188.506 20.6566V21.7545ZM191.475 18.7859C191.475 17.1455 190.147 15.8173 188.506 15.8173V16.9151C189.54 16.9151 190.377 17.7518 190.377 18.7859H191.475ZM188.506 15.8173H179.305V16.9151H188.506V15.8173ZM178.756 16.3662V21.2055H179.854V16.3662H178.756ZM179.305 21.7545H188.506V20.6566H179.305V21.7545ZM196.752 5.26251H202.579V4.16466H196.752V5.26251ZM202.03 4.71359V27H203.127V4.71359H202.03ZM202.579 26.4511H196.752V27.5489H202.579V26.4511ZM197.301 27V4.71359H196.203V27H197.301Z" fill="white" fill-opacity="0.4"/>
</svg>
