<svg width="370" height="64" viewBox="0 0 370 64" fill="none" xmlns="http://www.w3.org/2000/svg">
<path d="M2.00465 8.4V7.4H1.00465V8.4H2.00465ZM2.00465 49H1.00465V50H2.00465V49ZM12.5606 49V50H13.5606V49H12.5606ZM12.5606 38.444V37.444H11.5606V38.444H12.5606ZM12.5606 27.83H11.5606V28.83H12.5606V27.83ZM12.5606 19.014V18.014H11.5606V19.014H12.5606ZM43.4747 7.4H2.00465V9.4H43.4747V7.4ZM1.00465 8.4V49H3.00465V8.4H1.00465ZM2.00465 50H12.5606V48H2.00465V50ZM13.5606 49V38.444H11.5606V49H13.5606ZM12.5606 39.444H43.4747V37.444H12.5606V39.444ZM43.4747 39.444C52.2654 39.444 59.4386 32.2658 59.4386 23.422H57.4386C57.4386 31.1662 51.1558 37.444 43.4747 37.444V39.444ZM59.4386 23.422C59.4386 14.6388 52.268 7.4 43.4747 7.4V9.4C51.1533 9.4 57.4386 15.7332 57.4386 23.422H59.4386ZM43.4747 26.83H12.5606V28.83H43.4747V26.83ZM13.5606 27.83V19.014H11.5606V27.83H13.5606ZM12.5606 20.014H43.4747V18.014H12.5606V20.014ZM43.4747 20.014C45.3584 20.014 46.8827 21.5383 46.8827 23.422H48.8827C48.8827 20.4337 46.4629 18.014 43.4747 18.014V20.014ZM46.8827 23.422C46.8827 25.3057 45.3584 26.83 43.4747 26.83V28.83C46.4629 28.83 48.8827 26.4103 48.8827 23.422H46.8827Z" fill="white" fill-opacity="0.2"/>
<path d="M101.374 8.4L102.319 8.07205L102.086 7.4H101.374V8.4ZM69.5903 8.4V7.4H68.8789L68.6456 8.07205L69.5903 8.4ZM55.4963 49L54.5516 48.6721L54.0906 50H55.4963V49ZM66.9223 49V50H67.6307L67.8657 49.3317L66.9223 49ZM70.6343 38.444V37.444H69.926L69.691 38.1123L70.6343 38.444ZM100.33 38.444L101.275 38.1169L101.042 37.444H100.33V38.444ZM103.984 49L103.039 49.3271L103.272 50H103.984V49ZM115.468 49V50H116.874L116.413 48.6721L115.468 49ZM74.2883 27.83L73.3441 27.5008L72.8806 28.83H74.2883V27.83ZM77.3623 19.014V18.014H76.652L76.4181 18.6848L77.3623 19.014ZM93.5443 19.014L94.4886 18.6848L94.2547 18.014H93.5443V19.014ZM96.6183 27.83V28.83H98.0261L97.5626 27.5008L96.6183 27.83ZM101.374 7.4H69.5903V9.4H101.374V7.4ZM68.6456 8.07205L54.5516 48.6721L56.441 49.3279L70.535 8.72794L68.6456 8.07205ZM55.4963 50H66.9223V48H55.4963V50ZM67.8657 49.3317L71.5777 38.7757L69.691 38.1123L65.979 48.6683L67.8657 49.3317ZM70.6343 39.444H100.33V37.444H70.6343V39.444ZM99.3853 38.7711L103.039 49.3271L104.929 48.6729L101.275 38.1169L99.3853 38.7711ZM103.984 50H115.468V48H103.984V50ZM116.413 48.6721L102.319 8.07205L100.43 8.72794L114.524 49.3279L116.413 48.6721ZM75.2326 28.1592L78.3066 19.3432L76.4181 18.6848L73.3441 27.5008L75.2326 28.1592ZM77.3623 20.014H93.5443V18.014H77.3623V20.014ZM92.6001 19.3432L95.6741 28.1592L97.5626 27.5008L94.4886 18.6848L92.6001 19.3432ZM96.6183 26.83H74.2883V28.83H96.6183V26.83Z" fill="white" fill-opacity="0.2"/>
<path d="M131.561 22.552H130.561V23.552H131.561V22.552ZM131.561 19.014V18.014H130.561V19.014H131.561ZM173.959 19.014V20.014H174.959V19.014H173.959ZM173.959 8.4H174.959V7.4H173.959V8.4ZM121.005 8.4V7.4H120.005V8.4H121.005ZM121.005 49H120.005V50H121.005V49ZM131.561 38.444H130.561V39.444H131.561V38.444ZM131.561 33.166V32.166H130.561V33.166H131.561ZM164.215 21.552H131.561V23.552H164.215V21.552ZM132.561 22.552V19.014H130.561V22.552H132.561ZM131.561 20.014H173.959V18.014H131.561V20.014ZM174.959 19.014V8.4H172.959V19.014H174.959ZM173.959 7.4H121.005V9.4H173.959V7.4ZM120.005 8.4V49H122.005V8.4H120.005ZM121.005 50H164.215V48H121.005V50ZM164.215 50C172.075 50 178.439 43.6363 178.439 35.776H176.439C176.439 42.5317 170.97 48 164.215 48V50ZM178.439 35.776C178.439 27.9157 172.075 21.552 164.215 21.552V23.552C170.97 23.552 176.439 29.0203 176.439 35.776H178.439ZM164.215 37.444H131.561V39.444H164.215V37.444ZM132.561 38.444V33.166H130.561V38.444H132.561ZM131.561 34.166H164.215V32.166H131.561V34.166ZM164.215 34.166C165.141 34.166 165.883 34.9066 165.883 35.776H167.883C167.883 33.7454 166.188 32.166 164.215 32.166V34.166ZM165.883 35.776C165.883 36.6737 165.112 37.444 164.215 37.444V39.444C166.217 39.444 167.883 37.7783 167.883 35.776H165.883Z" fill="white" fill-opacity="0.2"/>
<path d="M232.958 7.4H202.972V9.4H232.958V7.4ZM202.972 7.4C191.224 7.4 181.672 17.0136 181.672 28.7H183.672C183.672 18.1144 192.332 9.4 202.972 9.4V7.4ZM181.672 28.7C181.672 40.4463 191.226 50 202.972 50V48C192.33 48 183.672 39.3417 183.672 28.7H181.672ZM202.972 50H232.958V48H202.972V50ZM232.958 50C244.704 50 254.258 40.4463 254.258 28.7H252.258C252.258 39.3417 243.6 48 232.958 48V50ZM254.258 28.7C254.258 17.0136 244.706 7.4 232.958 7.4V9.4C243.598 9.4 252.258 18.1144 252.258 28.7H254.258ZM232.958 37.444H202.972V39.444H232.958V37.444ZM202.972 37.444C198.13 37.444 194.228 33.5417 194.228 28.7H192.228C192.228 34.6463 197.026 39.444 202.972 39.444V37.444ZM194.228 28.7C194.228 23.9202 198.127 20.014 202.972 20.014V18.014C197.03 18.014 192.228 22.8078 192.228 28.7H194.228ZM202.972 20.014H232.958V18.014H202.972V20.014ZM232.958 20.014C237.742 20.014 241.644 23.9163 241.644 28.7H243.644C243.644 22.8117 238.846 18.014 232.958 18.014V20.014ZM241.644 28.7C241.644 33.5456 237.738 37.444 232.958 37.444V39.444C238.85 39.444 243.644 34.6424 243.644 28.7H241.644Z" fill="white" fill-opacity="0.2"/>
<path d="M256.033 8.4V7.4H255.033V8.4H256.033ZM256.033 19.014H255.033V20.014H256.033V19.014ZM277.203 19.014H278.203V18.014H277.203V19.014ZM277.203 49H276.203V50H277.203V49ZM287.759 49V50H288.759V49H287.759ZM287.759 19.014V18.014H286.759V19.014H287.759ZM308.987 19.014V20.014H309.987V19.014H308.987ZM308.987 8.4H309.987V7.4H308.987V8.4ZM255.033 8.4V19.014H257.033V8.4H255.033ZM256.033 20.014H277.203V18.014H256.033V20.014ZM276.203 19.014V49H278.203V19.014H276.203ZM277.203 50H287.759V48H277.203V50ZM288.759 49V19.014H286.759V49H288.759ZM287.759 20.014H308.987V18.014H287.759V20.014ZM309.987 19.014V8.4H307.987V19.014H309.987ZM308.987 7.4H256.033V9.4H308.987V7.4Z" fill="white" fill-opacity="0.2"/>
<path d="M325.561 19.014H324.561V20.014H325.561V19.014ZM325.561 8.4H326.561V7.4H325.561V8.4ZM315.005 8.4V7.4H314.005V8.4H315.005ZM315.005 49H314.005V50H315.005V49ZM325.561 38.444H324.561V39.444H325.561V38.444ZM325.561 29.628V28.628H324.561V29.628H325.561ZM357.345 8.4V7.4H356.345V8.4H357.345ZM357.345 49H356.345V50H357.345V49ZM367.959 49V50H368.959V49H367.959ZM367.959 8.4H368.959V7.4H367.959V8.4ZM342.323 18.014H325.561V20.014H342.323V18.014ZM326.561 19.014V8.4H324.561V19.014H326.561ZM325.561 7.4H315.005V9.4H325.561V7.4ZM314.005 8.4V49H316.005V8.4H314.005ZM315.005 50H342.323V48H315.005V50ZM342.323 50C351.166 50 358.345 42.8268 358.345 34.036H356.345C356.345 41.7172 350.067 48 342.323 48V50ZM358.345 34.036C358.345 25.1897 351.169 18.014 342.323 18.014V20.014C350.064 20.014 356.345 26.2943 356.345 34.036H358.345ZM342.323 37.444H325.561V39.444H342.323V37.444ZM326.561 38.444V29.628H324.561V38.444H326.561ZM325.561 30.628H342.323V28.628H325.561V30.628ZM342.323 30.628C344.206 30.628 345.731 32.1523 345.731 34.036H347.731C347.731 31.0477 345.311 28.628 342.323 28.628V30.628ZM345.731 34.036C345.731 35.9197 344.206 37.444 342.323 37.444V39.444C345.311 39.444 347.731 37.0243 347.731 34.036H345.731ZM356.345 8.4V49H358.345V8.4H356.345ZM357.345 50H367.959V48H357.345V50ZM368.959 49V8.4H366.959V49H368.959ZM367.959 7.4H357.345V9.4H367.959V7.4Z" fill="white" fill-opacity="0.2"/>
</svg>
