<svg width="1161" height="107" viewBox="0 0 1161 107" fill="none" xmlns="http://www.w3.org/2000/svg">
<mask id="path-1-outside-1_765_2087" maskUnits="userSpaceOnUse" x="0.0332031" y="0.400391" width="1161" height="107" fill="black">
<rect fill="white" x="0.0332031" y="0.400391" width="1161" height="107"/>
<path d="M622.078 77.8124C622.078 70.9684 616.51 65.4004 609.724 65.4004H567.384V76.0144H609.724C610.71 76.0144 611.464 76.8264 611.464 77.8124C611.464 78.7404 610.71 79.5524 609.724 79.5524H567.384V90.1664H608.854C610.304 90.1664 611.464 91.3264 611.464 92.7764C611.464 94.2264 610.304 95.4444 608.854 95.4444H567.384V106H608.854C616.162 106 622.078 100.084 622.078 92.7764C622.078 89.9344 621.15 87.3244 619.642 85.1204C621.15 83.0904 622.078 80.5384 622.078 77.8124Z"/>
<path d="M669.754 65.4004H637.97L623.876 106H635.302L639.014 95.4444H668.71L672.364 106H683.848L669.754 65.4004ZM642.668 84.8304L645.742 76.0144H661.924L664.998 84.8304H642.668Z"/>
<path d="M737.254 65.4004H705.47L691.376 106H751.348L737.254 65.4004ZM706.514 95.4444L713.242 76.0144H729.424L736.21 95.4444H706.514Z"/>
<path d="M802.254 65.4004H770.47L756.376 106H767.802L771.514 95.4444H801.21L804.864 106H816.348L802.254 65.4004ZM775.168 84.8304L778.242 76.0144H794.424L797.498 84.8304H775.168Z"/>
<path d="M862.724 65.4004V84.8304H830.94V65.4004H820.384V95.4444H862.724V106H873.338V65.4004H862.724Z"/>
<path d="M924.754 65.4004H892.97L878.876 106H890.302L894.014 95.4444H923.71L927.364 106H938.848L924.754 65.4004ZM897.668 84.8304L900.742 76.0144H916.924L919.998 84.8304H897.668Z"/>
<path d="M992.728 65.4004L976.314 93.2984L959.958 65.4004H944.588V106H955.144V78.1604L971.558 106H981.128L997.542 78.1604V106H1008.1V65.4004H992.728Z"/>
<path d="M1041.4 65.4004L1030.78 95.4444H1023.94V65.4004H1013.38V106H1038.27L1048.88 76.0144H1055.72V106H1066.34V65.4004H1041.4Z"/>
<path d="M106.204 76.0144H142.338V65.4004H106.204C95.0104 65.4004 85.9044 74.5644 85.9044 85.7004C85.9044 96.8944 95.0104 106 106.204 106H142.338V95.4444H106.204C100.81 95.4444 96.4604 91.0944 96.4604 85.7004C96.4604 80.3644 100.81 76.0144 106.204 76.0144Z"/>
<path d="M224.078 77.8124C224.078 70.9684 218.51 65.4004 211.724 65.4004H169.384V106H210.854C218.162 106 224.078 100.084 224.078 92.7764C224.078 89.9344 223.15 87.3244 221.642 85.1204C223.15 83.0904 224.078 80.5384 224.078 77.8124ZM179.94 76.0144H211.724C212.71 76.0144 213.464 76.8264 213.464 77.8124C213.464 78.7404 212.71 79.5524 211.724 79.5524H179.94V76.0144ZM210.854 95.4444H179.94V90.1664H210.854C212.304 90.1664 213.464 91.3264 213.464 92.7764C213.464 94.2264 212.304 95.4444 210.854 95.4444Z"/>
<path d="M271.754 65.4004H239.97L225.876 106H237.302L241.014 95.4444H270.71L274.364 106H285.848L271.754 65.4004ZM244.668 84.8304L247.742 76.0144H263.924L266.998 84.8304H244.668Z"/>
<path d="M344.542 65.4004V95.4444H328.65V65.4004H318.036V95.4444H302.144V65.4004H291.588V106H355.098V65.4004H344.542Z"/>
<path d="M388.398 65.4004L377.784 95.4444H370.94V65.4004H360.384V106H385.266L395.88 76.0144H402.724V106H413.338V65.4004H388.398Z"/>
<path d="M466.728 65.4004L450.314 93.2984L433.958 65.4004H418.588V106H429.144V78.1604L445.558 106H455.128L471.542 78.1604V106H482.098V65.4004H466.728Z"/>
<path d="M515.398 65.4004L504.784 95.4444H497.94V65.4004H487.384V106H512.266L522.88 76.0144H529.724V106H540.338V65.4004H515.398Z"/>
<path d="M1.0332 1.40039V42.0004H11.5892V12.0144H43.3732V42.0004H53.9872V1.40039H1.0332Z"/>
<path d="M108.958 1.40039H78.9723C67.7783 1.40039 58.6723 10.5644 58.6723 21.7004C58.6723 32.8944 67.7783 42.0004 78.9723 42.0004H108.958C120.152 42.0004 129.258 32.8944 129.258 21.7004C129.258 10.5644 120.152 1.40039 108.958 1.40039ZM108.958 31.4444H78.9723C73.5783 31.4444 69.2283 27.0944 69.2283 21.7004C69.2283 16.3644 73.5783 12.0144 78.9723 12.0144H108.958C114.294 12.0144 118.644 16.3644 118.644 21.7004C118.644 27.0944 114.294 31.4444 108.958 31.4444Z"/>
<path d="M175.375 1.40039H143.591L129.497 42.0004H189.469L175.375 1.40039ZM144.635 31.4444L151.363 12.0144H167.545L174.331 31.4444H144.635Z"/>
<path d="M236.475 1.40039H195.005V42.0004H205.561V31.4444H236.475C244.711 31.4444 251.439 24.7164 251.439 16.4224C251.439 8.18639 244.711 1.40039 236.475 1.40039ZM236.475 20.8304H205.561V12.0144H236.475C238.911 12.0144 240.883 13.9864 240.883 16.4224C240.883 18.8584 238.911 20.8304 236.475 20.8304Z"/>
<path d="M301.013 1.40039L296.083 15.5524H266.561V1.40039H256.005V26.1664H292.371L290.573 31.4444H256.005V42.0004H298.345L312.439 1.40039H301.013Z"/>
<path d="M388.258 1.40039H376.774L371.902 15.5524H360.012V1.40039H349.398V15.5524H334.028L329.098 1.40039H317.672L324.69 21.7004L317.672 42.0004H329.098L334.608 26.1664H349.398V42.0004H360.012V26.1664H371.264L376.774 42.0004H388.258L381.24 21.7004L388.258 1.40039Z"/>
<path d="M421.019 1.40039L410.405 31.4444H403.561V1.40039H393.005V42.0004H417.887L428.501 12.0144H435.345V42.0004H445.959V1.40039H421.019Z"/>
<path d="M499.584 1.40039L483.17 29.2984L466.814 1.40039H451.444V42.0004H462V14.1604L478.414 42.0004H487.984L504.398 14.1604V42.0004H514.954V1.40039H499.584Z"/>
<path d="M542.793 1.40039V12.0144H563.963V42.0004H574.519V12.0144H595.747V1.40039H542.793Z"/>
<path d="M655.458 13.8124C655.458 6.96839 649.89 1.40039 643.104 1.40039H600.764V42.0004H642.234C649.542 42.0004 655.458 36.0844 655.458 28.7764C655.458 25.9344 654.53 23.3244 653.022 21.1204C654.53 19.0904 655.458 16.5384 655.458 13.8124ZM611.32 12.0144H643.104C644.09 12.0144 644.844 12.8264 644.844 13.8124C644.844 14.7404 644.09 15.5524 643.104 15.5524H611.32V12.0144ZM642.234 31.4444H611.32V26.1664H642.234C643.684 26.1664 644.844 27.3264 644.844 28.7764C644.844 30.2264 643.684 31.4444 642.234 31.4444Z"/>
<path d="M710.718 1.40039H680.732C669.538 1.40039 660.432 10.5644 660.432 21.7004C660.432 32.8944 669.538 42.0004 680.732 42.0004H710.718C721.912 42.0004 731.018 32.8944 731.018 21.7004C731.018 10.5644 721.912 1.40039 710.718 1.40039ZM710.718 31.4444H680.732C675.338 31.4444 670.988 27.0944 670.988 21.7004C670.988 16.3644 675.338 12.0144 680.732 12.0144H710.718C716.054 12.0144 720.404 16.3644 720.404 21.7004C720.404 27.0944 716.054 31.4444 710.718 31.4444Z"/>
<path d="M777.234 1.40039H735.764V42.0004H746.32V31.4444H777.234C785.47 31.4444 792.198 24.7164 792.198 16.4224C792.198 8.18639 785.47 1.40039 777.234 1.40039ZM777.234 20.8304H746.32V12.0144H777.234C779.67 12.0144 781.642 13.9864 781.642 16.4224C781.642 18.8584 779.67 20.8304 777.234 20.8304Z"/>
<path d="M839.16 1.40039V20.8304H807.376V1.40039H796.82V31.4444H839.16V42.0004H849.774V1.40039H839.16Z"/>
<path d="M908.302 12.0144V1.40039H855.348V42.0004H908.302V31.4444H865.904V26.1664H908.302V15.5524H865.904V12.0144H908.302Z"/>
<path d="M933.14 12.0144H969.274V1.40039H933.14C921.946 1.40039 912.84 10.5644 912.84 21.7004C912.84 32.8944 921.946 42.0004 933.14 42.0004H969.274V31.4444H933.14C927.746 31.4444 923.396 27.0944 923.396 21.7004C923.396 16.3644 927.746 12.0144 933.14 12.0144Z"/>
<path d="M973.348 1.40039V12.0144H994.518V42.0004H1005.07V12.0144H1026.3V1.40039H973.348Z"/>
<path d="M1085.01 13.8124C1085.01 6.96839 1079.45 1.40039 1072.66 1.40039H1030.32V42.0004H1071.79C1079.1 42.0004 1085.01 36.0844 1085.01 28.7764C1085.01 25.9344 1084.09 23.3244 1082.58 21.1204C1084.09 19.0904 1085.01 16.5384 1085.01 13.8124ZM1040.88 12.0144H1072.66C1073.65 12.0144 1074.4 12.8264 1074.4 13.8124C1074.4 14.7404 1073.65 15.5524 1072.66 15.5524H1040.88V12.0144ZM1071.79 31.4444H1040.88V26.1664H1071.79C1073.24 26.1664 1074.4 27.3264 1074.4 28.7764C1074.4 30.2264 1073.24 31.4444 1071.79 31.4444Z"/>
<path d="M1139.27 1.40039H1109.29C1098.09 1.40039 1088.99 10.5644 1088.99 21.7004C1088.99 32.8944 1098.09 42.0004 1109.29 42.0004H1139.27C1150.47 42.0004 1159.57 32.8944 1159.57 21.7004C1159.57 10.5644 1150.47 1.40039 1139.27 1.40039ZM1139.27 31.4444H1109.29C1103.89 31.4444 1099.54 27.0944 1099.54 21.7004C1099.54 16.3644 1103.89 12.0144 1109.29 12.0144H1139.27C1144.61 12.0144 1148.96 16.3644 1148.96 21.7004C1148.96 27.0944 1144.61 31.4444 1139.27 31.4444Z"/>
</mask>
<path d="M622.078 77.8124C622.078 70.9684 616.51 65.4004 609.724 65.4004H567.384V76.0144H609.724C610.71 76.0144 611.464 76.8264 611.464 77.8124C611.464 78.7404 610.71 79.5524 609.724 79.5524H567.384V90.1664H608.854C610.304 90.1664 611.464 91.3264 611.464 92.7764C611.464 94.2264 610.304 95.4444 608.854 95.4444H567.384V106H608.854C616.162 106 622.078 100.084 622.078 92.7764C622.078 89.9344 621.15 87.3244 619.642 85.1204C621.15 83.0904 622.078 80.5384 622.078 77.8124Z" stroke="white" stroke-opacity="0.2" stroke-width="2" mask="url(#path-1-outside-1_765_2087)"/>
<path d="M669.754 65.4004H637.97L623.876 106H635.302L639.014 95.4444H668.71L672.364 106H683.848L669.754 65.4004ZM642.668 84.8304L645.742 76.0144H661.924L664.998 84.8304H642.668Z" stroke="white" stroke-opacity="0.2" stroke-width="2" mask="url(#path-1-outside-1_765_2087)"/>
<path d="M737.254 65.4004H705.47L691.376 106H751.348L737.254 65.4004ZM706.514 95.4444L713.242 76.0144H729.424L736.21 95.4444H706.514Z" stroke="white" stroke-opacity="0.2" stroke-width="2" mask="url(#path-1-outside-1_765_2087)"/>
<path d="M802.254 65.4004H770.47L756.376 106H767.802L771.514 95.4444H801.21L804.864 106H816.348L802.254 65.4004ZM775.168 84.8304L778.242 76.0144H794.424L797.498 84.8304H775.168Z" stroke="white" stroke-opacity="0.2" stroke-width="2" mask="url(#path-1-outside-1_765_2087)"/>
<path d="M862.724 65.4004V84.8304H830.94V65.4004H820.384V95.4444H862.724V106H873.338V65.4004H862.724Z" stroke="white" stroke-opacity="0.2" stroke-width="2" mask="url(#path-1-outside-1_765_2087)"/>
<path d="M924.754 65.4004H892.97L878.876 106H890.302L894.014 95.4444H923.71L927.364 106H938.848L924.754 65.4004ZM897.668 84.8304L900.742 76.0144H916.924L919.998 84.8304H897.668Z" stroke="white" stroke-opacity="0.2" stroke-width="2" mask="url(#path-1-outside-1_765_2087)"/>
<path d="M992.728 65.4004L976.314 93.2984L959.958 65.4004H944.588V106H955.144V78.1604L971.558 106H981.128L997.542 78.1604V106H1008.1V65.4004H992.728Z" stroke="white" stroke-opacity="0.2" stroke-width="2" mask="url(#path-1-outside-1_765_2087)"/>
<path d="M1041.4 65.4004L1030.78 95.4444H1023.94V65.4004H1013.38V106H1038.27L1048.88 76.0144H1055.72V106H1066.34V65.4004H1041.4Z" stroke="white" stroke-opacity="0.2" stroke-width="2" mask="url(#path-1-outside-1_765_2087)"/>
<path d="M106.204 76.0144H142.338V65.4004H106.204C95.0104 65.4004 85.9044 74.5644 85.9044 85.7004C85.9044 96.8944 95.0104 106 106.204 106H142.338V95.4444H106.204C100.81 95.4444 96.4604 91.0944 96.4604 85.7004C96.4604 80.3644 100.81 76.0144 106.204 76.0144Z" stroke="white" stroke-opacity="0.2" stroke-width="2" mask="url(#path-1-outside-1_765_2087)"/>
<path d="M224.078 77.8124C224.078 70.9684 218.51 65.4004 211.724 65.4004H169.384V106H210.854C218.162 106 224.078 100.084 224.078 92.7764C224.078 89.9344 223.15 87.3244 221.642 85.1204C223.15 83.0904 224.078 80.5384 224.078 77.8124ZM179.94 76.0144H211.724C212.71 76.0144 213.464 76.8264 213.464 77.8124C213.464 78.7404 212.71 79.5524 211.724 79.5524H179.94V76.0144ZM210.854 95.4444H179.94V90.1664H210.854C212.304 90.1664 213.464 91.3264 213.464 92.7764C213.464 94.2264 212.304 95.4444 210.854 95.4444Z" stroke="white" stroke-opacity="0.2" stroke-width="2" mask="url(#path-1-outside-1_765_2087)"/>
<path d="M271.754 65.4004H239.97L225.876 106H237.302L241.014 95.4444H270.71L274.364 106H285.848L271.754 65.4004ZM244.668 84.8304L247.742 76.0144H263.924L266.998 84.8304H244.668Z" stroke="white" stroke-opacity="0.2" stroke-width="2" mask="url(#path-1-outside-1_765_2087)"/>
<path d="M344.542 65.4004V95.4444H328.65V65.4004H318.036V95.4444H302.144V65.4004H291.588V106H355.098V65.4004H344.542Z" stroke="white" stroke-opacity="0.2" stroke-width="2" mask="url(#path-1-outside-1_765_2087)"/>
<path d="M388.398 65.4004L377.784 95.4444H370.94V65.4004H360.384V106H385.266L395.88 76.0144H402.724V106H413.338V65.4004H388.398Z" stroke="white" stroke-opacity="0.2" stroke-width="2" mask="url(#path-1-outside-1_765_2087)"/>
<path d="M466.728 65.4004L450.314 93.2984L433.958 65.4004H418.588V106H429.144V78.1604L445.558 106H455.128L471.542 78.1604V106H482.098V65.4004H466.728Z" stroke="white" stroke-opacity="0.2" stroke-width="2" mask="url(#path-1-outside-1_765_2087)"/>
<path d="M515.398 65.4004L504.784 95.4444H497.94V65.4004H487.384V106H512.266L522.88 76.0144H529.724V106H540.338V65.4004H515.398Z" stroke="white" stroke-opacity="0.2" stroke-width="2" mask="url(#path-1-outside-1_765_2087)"/>
<path d="M1.0332 1.40039V42.0004H11.5892V12.0144H43.3732V42.0004H53.9872V1.40039H1.0332Z" stroke="white" stroke-opacity="0.2" stroke-width="2" mask="url(#path-1-outside-1_765_2087)"/>
<path d="M108.958 1.40039H78.9723C67.7783 1.40039 58.6723 10.5644 58.6723 21.7004C58.6723 32.8944 67.7783 42.0004 78.9723 42.0004H108.958C120.152 42.0004 129.258 32.8944 129.258 21.7004C129.258 10.5644 120.152 1.40039 108.958 1.40039ZM108.958 31.4444H78.9723C73.5783 31.4444 69.2283 27.0944 69.2283 21.7004C69.2283 16.3644 73.5783 12.0144 78.9723 12.0144H108.958C114.294 12.0144 118.644 16.3644 118.644 21.7004C118.644 27.0944 114.294 31.4444 108.958 31.4444Z" stroke="white" stroke-opacity="0.2" stroke-width="2" mask="url(#path-1-outside-1_765_2087)"/>
<path d="M175.375 1.40039H143.591L129.497 42.0004H189.469L175.375 1.40039ZM144.635 31.4444L151.363 12.0144H167.545L174.331 31.4444H144.635Z" stroke="white" stroke-opacity="0.2" stroke-width="2" mask="url(#path-1-outside-1_765_2087)"/>
<path d="M236.475 1.40039H195.005V42.0004H205.561V31.4444H236.475C244.711 31.4444 251.439 24.7164 251.439 16.4224C251.439 8.18639 244.711 1.40039 236.475 1.40039ZM236.475 20.8304H205.561V12.0144H236.475C238.911 12.0144 240.883 13.9864 240.883 16.4224C240.883 18.8584 238.911 20.8304 236.475 20.8304Z" stroke="white" stroke-opacity="0.2" stroke-width="2" mask="url(#path-1-outside-1_765_2087)"/>
<path d="M301.013 1.40039L296.083 15.5524H266.561V1.40039H256.005V26.1664H292.371L290.573 31.4444H256.005V42.0004H298.345L312.439 1.40039H301.013Z" stroke="white" stroke-opacity="0.2" stroke-width="2" mask="url(#path-1-outside-1_765_2087)"/>
<path d="M388.258 1.40039H376.774L371.902 15.5524H360.012V1.40039H349.398V15.5524H334.028L329.098 1.40039H317.672L324.69 21.7004L317.672 42.0004H329.098L334.608 26.1664H349.398V42.0004H360.012V26.1664H371.264L376.774 42.0004H388.258L381.24 21.7004L388.258 1.40039Z" stroke="white" stroke-opacity="0.2" stroke-width="2" mask="url(#path-1-outside-1_765_2087)"/>
<path d="M421.019 1.40039L410.405 31.4444H403.561V1.40039H393.005V42.0004H417.887L428.501 12.0144H435.345V42.0004H445.959V1.40039H421.019Z" stroke="white" stroke-opacity="0.2" stroke-width="2" mask="url(#path-1-outside-1_765_2087)"/>
<path d="M499.584 1.40039L483.17 29.2984L466.814 1.40039H451.444V42.0004H462V14.1604L478.414 42.0004H487.984L504.398 14.1604V42.0004H514.954V1.40039H499.584Z" stroke="white" stroke-opacity="0.2" stroke-width="2" mask="url(#path-1-outside-1_765_2087)"/>
<path d="M542.793 1.40039V12.0144H563.963V42.0004H574.519V12.0144H595.747V1.40039H542.793Z" stroke="white" stroke-opacity="0.2" stroke-width="2" mask="url(#path-1-outside-1_765_2087)"/>
<path d="M655.458 13.8124C655.458 6.96839 649.89 1.40039 643.104 1.40039H600.764V42.0004H642.234C649.542 42.0004 655.458 36.0844 655.458 28.7764C655.458 25.9344 654.53 23.3244 653.022 21.1204C654.53 19.0904 655.458 16.5384 655.458 13.8124ZM611.32 12.0144H643.104C644.09 12.0144 644.844 12.8264 644.844 13.8124C644.844 14.7404 644.09 15.5524 643.104 15.5524H611.32V12.0144ZM642.234 31.4444H611.32V26.1664H642.234C643.684 26.1664 644.844 27.3264 644.844 28.7764C644.844 30.2264 643.684 31.4444 642.234 31.4444Z" stroke="white" stroke-opacity="0.2" stroke-width="2" mask="url(#path-1-outside-1_765_2087)"/>
<path d="M710.718 1.40039H680.732C669.538 1.40039 660.432 10.5644 660.432 21.7004C660.432 32.8944 669.538 42.0004 680.732 42.0004H710.718C721.912 42.0004 731.018 32.8944 731.018 21.7004C731.018 10.5644 721.912 1.40039 710.718 1.40039ZM710.718 31.4444H680.732C675.338 31.4444 670.988 27.0944 670.988 21.7004C670.988 16.3644 675.338 12.0144 680.732 12.0144H710.718C716.054 12.0144 720.404 16.3644 720.404 21.7004C720.404 27.0944 716.054 31.4444 710.718 31.4444Z" stroke="white" stroke-opacity="0.2" stroke-width="2" mask="url(#path-1-outside-1_765_2087)"/>
<path d="M777.234 1.40039H735.764V42.0004H746.32V31.4444H777.234C785.47 31.4444 792.198 24.7164 792.198 16.4224C792.198 8.18639 785.47 1.40039 777.234 1.40039ZM777.234 20.8304H746.32V12.0144H777.234C779.67 12.0144 781.642 13.9864 781.642 16.4224C781.642 18.8584 779.67 20.8304 777.234 20.8304Z" stroke="white" stroke-opacity="0.2" stroke-width="2" mask="url(#path-1-outside-1_765_2087)"/>
<path d="M839.16 1.40039V20.8304H807.376V1.40039H796.82V31.4444H839.16V42.0004H849.774V1.40039H839.16Z" stroke="white" stroke-opacity="0.2" stroke-width="2" mask="url(#path-1-outside-1_765_2087)"/>
<path d="M908.302 12.0144V1.40039H855.348V42.0004H908.302V31.4444H865.904V26.1664H908.302V15.5524H865.904V12.0144H908.302Z" stroke="white" stroke-opacity="0.2" stroke-width="2" mask="url(#path-1-outside-1_765_2087)"/>
<path d="M933.14 12.0144H969.274V1.40039H933.14C921.946 1.40039 912.84 10.5644 912.84 21.7004C912.84 32.8944 921.946 42.0004 933.14 42.0004H969.274V31.4444H933.14C927.746 31.4444 923.396 27.0944 923.396 21.7004C923.396 16.3644 927.746 12.0144 933.14 12.0144Z" stroke="white" stroke-opacity="0.2" stroke-width="2" mask="url(#path-1-outside-1_765_2087)"/>
<path d="M973.348 1.40039V12.0144H994.518V42.0004H1005.07V12.0144H1026.3V1.40039H973.348Z" stroke="white" stroke-opacity="0.2" stroke-width="2" mask="url(#path-1-outside-1_765_2087)"/>
<path d="M1085.01 13.8124C1085.01 6.96839 1079.45 1.40039 1072.66 1.40039H1030.32V42.0004H1071.79C1079.1 42.0004 1085.01 36.0844 1085.01 28.7764C1085.01 25.9344 1084.09 23.3244 1082.58 21.1204C1084.09 19.0904 1085.01 16.5384 1085.01 13.8124ZM1040.88 12.0144H1072.66C1073.65 12.0144 1074.4 12.8264 1074.4 13.8124C1074.4 14.7404 1073.65 15.5524 1072.66 15.5524H1040.88V12.0144ZM1071.79 31.4444H1040.88V26.1664H1071.79C1073.24 26.1664 1074.4 27.3264 1074.4 28.7764C1074.4 30.2264 1073.24 31.4444 1071.79 31.4444Z" stroke="white" stroke-opacity="0.2" stroke-width="2" mask="url(#path-1-outside-1_765_2087)"/>
<path d="M1139.27 1.40039H1109.29C1098.09 1.40039 1088.99 10.5644 1088.99 21.7004C1088.99 32.8944 1098.09 42.0004 1109.29 42.0004H1139.27C1150.47 42.0004 1159.57 32.8944 1159.57 21.7004C1159.57 10.5644 1150.47 1.40039 1139.27 1.40039ZM1139.27 31.4444H1109.29C1103.89 31.4444 1099.54 27.0944 1099.54 21.7004C1099.54 16.3644 1103.89 12.0144 1109.29 12.0144H1139.27C1144.61 12.0144 1148.96 16.3644 1148.96 21.7004C1148.96 27.0944 1144.61 31.4444 1139.27 31.4444Z" stroke="white" stroke-opacity="0.2" stroke-width="2" mask="url(#path-1-outside-1_765_2087)"/>
</svg>
