<svg width="295" height="121" viewBox="0 0 295 121" fill="none" xmlns="http://www.w3.org/2000/svg">
<path d="M24.7919 4.43054V3.95518H24.3165V4.43054H24.7919ZM49.9645 4.43054H50.4399V3.95518H49.9645V4.43054ZM49.9645 23.7305V24.2058H50.4399V23.7305H49.9645ZM44.919 23.7305H44.4436V24.2058H44.919V23.7305ZM44.919 9.4761H45.3943V9.00073H44.919V9.4761ZM29.8099 9.4761V9.00073H29.3345V9.4761H29.8099ZM29.8099 23.7305V24.2058H30.2853V23.7305H29.8099ZM24.7919 23.7305H24.3165V24.2058H24.7919V23.7305ZM24.7919 4.90591H49.9645V3.95518H24.7919V4.90591ZM49.4892 4.43054V23.7305H50.4399V4.43054H49.4892ZM49.9645 23.2551H44.919V24.2058H49.9645V23.2551ZM45.3943 23.7305V9.4761H44.4436V23.7305H45.3943ZM44.919 9.00073H29.8099V9.95146H44.919V9.00073ZM29.3345 9.4761V23.7305H30.2853V9.4761H29.3345ZM29.8099 23.2551H24.7919V24.2058H29.8099V23.2551ZM25.2673 23.7305V4.43054H24.3165V23.7305H25.2673Z" fill="white" fill-opacity="0.4"/>
<path d="M75.9815 4.90591C81.0394 4.90591 85.1561 9.04847 85.1561 14.0805H86.1068C86.1068 8.52516 81.5662 3.95518 75.9815 3.95518V4.90591ZM85.1561 14.0805C85.1561 19.1392 81.0402 23.2551 75.9815 23.2551V24.2058C81.5653 24.2058 86.1068 19.6643 86.1068 14.0805H85.1561ZM75.9815 23.2551H61.7271V24.2058H75.9815V23.2551ZM61.7271 23.2551C56.6684 23.2551 52.5525 19.1392 52.5525 14.0805H51.6018C51.6018 19.6643 56.1433 24.2058 61.7271 24.2058V23.2551ZM52.5525 14.0805C52.5525 9.04847 56.6693 4.90591 61.7271 4.90591V3.95518C56.1425 3.95518 51.6018 8.52516 51.6018 14.0805H52.5525ZM61.7271 4.90591H75.9815V3.95518H61.7271V4.90591ZM75.9815 19.1879C78.7825 19.1879 81.0613 16.9053 81.0613 14.0805H80.1106C80.1106 16.384 78.2537 18.2371 75.9815 18.2371V19.1879ZM81.0613 14.0805C81.0613 11.2814 78.7806 9.00073 75.9815 9.00073V9.95146C78.2555 9.95146 80.1106 11.8065 80.1106 14.0805H81.0613ZM75.9815 9.00073H61.7271V9.95146H75.9815V9.00073ZM61.7271 9.00073C58.9023 9.00073 56.6198 11.2796 56.6198 14.0805H57.5705C57.5705 11.8083 59.4237 9.95146 61.7271 9.95146V9.00073ZM56.6198 14.0805C56.6198 16.9072 58.9005 19.1879 61.7271 19.1879V18.2371C59.4255 18.2371 57.5705 16.3821 57.5705 14.0805H56.6198ZM61.7271 19.1879H75.9815V18.2371H61.7271V19.1879Z" fill="white" fill-opacity="0.4"/>
<path d="M107.668 4.43054L108.117 4.27465L108.006 3.95518H107.668V4.43054ZM114.368 23.7305V24.2058H115.036L114.817 23.5746L114.368 23.7305ZM85.8592 23.7305L85.4102 23.5746L85.191 24.2058H85.8592V23.7305ZM92.5591 4.43054V3.95518H92.2209L92.11 4.27465L92.5591 4.43054ZM93.0554 18.7125L92.6062 18.5569L92.3877 19.1879H93.0554V18.7125ZM107.172 18.7125V19.1879H107.841L107.621 18.5557L107.172 18.7125ZM103.946 9.4761L104.395 9.31936L104.284 9.00073H103.946V9.4761ZM96.2536 9.4761V9.00073H95.9152L95.8044 9.32055L96.2536 9.4761ZM107.219 4.58644L113.919 23.8864L114.817 23.5746L108.117 4.27465L107.219 4.58644ZM114.368 23.2551H85.8592V24.2058H114.368V23.2551ZM86.3083 23.8864L93.0081 4.58644L92.11 4.27465L85.4102 23.5746L86.3083 23.8864ZM92.5591 4.90591H107.668V3.95518H92.5591V4.90591ZM93.0554 19.1879H107.172V18.2371H93.0554V19.1879ZM107.621 18.5557L104.395 9.31936L103.497 9.63284L106.723 18.8692L107.621 18.5557ZM103.946 9.00073H96.2536V9.95146H103.946V9.00073ZM95.8044 9.32055L92.6062 18.5569L93.5046 18.868L96.7028 9.63164L95.8044 9.32055Z" fill="white" fill-opacity="0.4"/>
<path d="M122.018 18.7125V18.2371H121.542V18.7125H122.018ZM122.018 23.7305V24.2058H122.493V23.7305H122.018ZM117 23.7305H116.524V24.2058H117V23.7305ZM117 4.43054V3.95518H116.524V4.43054H117ZM122.018 9.4761V9.00073H121.542V9.4761H122.018ZM122.018 13.6669H121.542V14.1423H122.018V13.6669ZM136.713 4.90591C140.363 4.90591 143.351 7.91653 143.351 11.5715H144.302C144.302 7.39624 140.893 3.95518 136.713 3.95518V4.90591ZM143.351 11.5715C143.351 15.2529 140.365 18.2371 136.713 18.2371V19.1879C140.892 19.1879 144.302 15.7756 144.302 11.5715H143.351ZM136.713 18.2371H122.018V19.1879H136.713V18.2371ZM121.542 18.7125V23.7305H122.493V18.7125H121.542ZM122.018 23.2551H117V24.2058H122.018V23.2551ZM117.475 23.7305V4.43054H116.524V23.7305H117.475ZM117 4.90591H136.713V3.95518H117V4.90591ZM136.713 14.1423C138.134 14.1423 139.284 12.9921 139.284 11.5715H138.333C138.333 12.467 137.609 13.1916 136.713 13.1916V14.1423ZM139.284 11.5715C139.284 10.151 138.134 9.00073 136.713 9.00073V9.95146C137.609 9.95146 138.333 10.6761 138.333 11.5715H139.284ZM136.713 9.00073H122.018V9.95146H136.713V9.00073ZM121.542 9.4761V13.6669H122.493V9.4761H121.542ZM122.018 14.1423H136.713V13.1916H122.018V14.1423Z" fill="white" fill-opacity="0.4"/>
<path d="M167.393 4.43054V3.95518H167.055L166.944 4.27416L167.393 4.43054ZM172.824 4.43054L173.273 4.58644L173.492 3.95518H172.824V4.43054ZM166.124 23.7305V24.2058H166.462L166.573 23.8864L166.124 23.7305ZM145.997 23.7305H145.522V24.2058H145.997V23.7305ZM145.997 18.7125V18.2371H145.522V18.7125H145.997ZM162.43 18.7125V19.1879H162.77L162.88 18.8658L162.43 18.7125ZM163.284 16.2035L163.734 16.3568L163.949 15.7281H163.284V16.2035ZM145.997 16.2035H145.522V16.6789H145.997V16.2035ZM145.997 4.43054V3.95518H145.522V4.43054H145.997ZM151.015 4.43054H151.491V3.95518H151.015V4.43054ZM151.015 11.1579H150.54V11.6333H151.015V11.1579ZM165.049 11.1579V11.6333H165.387L165.498 11.3143L165.049 11.1579ZM167.393 4.90591H172.824V3.95518H167.393V4.90591ZM172.375 4.27465L165.675 23.5746L166.573 23.8864L173.273 4.58644L172.375 4.27465ZM166.124 23.2551H145.997V24.2058H166.124V23.2551ZM146.473 23.7305V18.7125H145.522V23.7305H146.473ZM145.997 19.1879H162.43V18.2371H145.997V19.1879ZM162.88 18.8658L163.734 16.3568L162.834 16.0502L161.98 18.5592L162.88 18.8658ZM163.284 15.7281H145.997V16.6789H163.284V15.7281ZM146.473 16.2035V4.43054H145.522V16.2035H146.473ZM145.997 4.90591H151.015V3.95518H145.997V4.90591ZM150.54 4.43054V11.1579H151.491V4.43054H150.54ZM151.015 11.6333H165.049V10.6826H151.015V11.6333ZM165.498 11.3143L167.841 4.58693L166.944 4.27416L164.6 11.0016L165.498 11.3143Z" fill="white" fill-opacity="0.4"/>
<path d="M208.752 4.43054L209.201 4.58587L209.419 3.95518H208.752V4.43054ZM205.416 14.0805L204.966 13.9252L204.913 14.0805L204.966 14.2358L205.416 14.0805ZM208.752 23.7305V24.2058H209.419L209.201 23.5751L208.752 23.7305ZM203.293 23.7305L202.844 23.8867L202.955 24.2058H203.293V23.7305ZM200.673 16.2035L201.122 16.0473L201.011 15.7281H200.673V16.2035ZM195.324 16.2035V15.7281H194.849V16.2035H195.324ZM195.324 23.7305V24.2058H195.8V23.7305H195.324ZM190.279 23.7305H189.803V24.2058H190.279V23.7305ZM190.279 16.2035H190.754V15.7281H190.279V16.2035ZM183.248 16.2035V15.7281H182.91L182.799 16.0473L183.248 16.2035ZM180.629 23.7305V24.2058H180.967L181.078 23.8867L180.629 23.7305ZM175.197 23.7305L174.748 23.5751L174.53 24.2058H175.197V23.7305ZM178.533 14.0805L178.983 14.2358L179.036 14.0805L178.983 13.9252L178.533 14.0805ZM175.197 4.43054V3.95518H174.53L174.748 4.58587L175.197 4.43054ZM180.629 4.43054L181.078 4.27416L180.967 3.95518H180.629V4.43054ZM182.972 11.1579L182.524 11.3143L182.635 11.6333H182.972V11.1579ZM190.279 11.1579V11.6333H190.754V11.1579H190.279ZM190.279 4.43054V3.95518H189.803V4.43054H190.279ZM195.324 4.43054H195.8V3.95518H195.324V4.43054ZM195.324 11.1579H194.849V11.6333H195.324V11.1579ZM200.977 11.1579V11.6333H201.316L201.426 11.3127L200.977 11.1579ZM203.293 4.43054V3.95518H202.953L202.843 4.27581L203.293 4.43054ZM208.302 4.27522L204.966 13.9252L205.865 14.2358L209.201 4.58587L208.302 4.27522ZM204.966 14.2358L208.302 23.8858L209.201 23.5751L205.865 13.9252L204.966 14.2358ZM208.752 23.2551H203.293V24.2058H208.752V23.2551ZM203.741 23.5742L201.122 16.0473L200.224 16.3597L202.844 23.8867L203.741 23.5742ZM200.673 15.7281H195.324V16.6789H200.673V15.7281ZM194.849 16.2035V23.7305H195.8V16.2035H194.849ZM195.324 23.2551H190.279V24.2058H195.324V23.2551ZM190.754 23.7305V16.2035H189.803V23.7305H190.754ZM190.279 15.7281H183.248V16.6789H190.279V15.7281ZM182.799 16.0473L180.18 23.5742L181.078 23.8867L183.697 16.3597L182.799 16.0473ZM180.629 23.2551H175.197V24.2058H180.629V23.2551ZM175.647 23.8858L178.983 14.2358L178.084 13.9252L174.748 23.5751L175.647 23.8858ZM178.983 13.9252L175.647 4.27522L174.748 4.58587L178.084 14.2358L178.983 13.9252ZM175.197 4.90591H180.629V3.95518H175.197V4.90591ZM180.18 4.58693L182.524 11.3143L183.421 11.0016L181.078 4.27416L180.18 4.58693ZM182.972 11.6333H190.279V10.6826H182.972V11.6333ZM190.754 11.1579V4.43054H189.803V11.1579H190.754ZM190.279 4.90591H195.324V3.95518H190.279V4.90591ZM194.849 4.43054V11.1579H195.8V4.43054H194.849ZM195.324 11.6333H200.977V10.6826H195.324V11.6333ZM201.426 11.3127L203.742 4.58528L202.843 4.27581L200.527 11.0032L201.426 11.3127ZM203.293 4.90591H208.752V3.95518H203.293V4.90591Z" fill="white" fill-opacity="0.4"/>
<path d="M224.439 4.43054V3.95518H224.103L223.991 4.2722L224.439 4.43054ZM236.295 4.43054H236.77V3.95518H236.295V4.43054ZM236.295 23.7305V24.2058H236.77V23.7305H236.295ZM231.25 23.7305H230.774V24.2058H231.25V23.7305ZM231.25 9.4761H231.725V9.00073H231.25V9.4761ZM227.996 9.4761V9.00073H227.66L227.548 9.31748L227.996 9.4761ZM222.951 23.7305V24.2058H223.287L223.399 23.8891L222.951 23.7305ZM211.122 23.7305H210.647V24.2058H211.122V23.7305ZM211.122 4.43054V3.95518H210.647V4.43054H211.122ZM216.14 4.43054H216.616V3.95518H216.14V4.43054ZM216.14 18.7125H215.665V19.1879H216.14V18.7125ZM219.394 18.7125V19.1879H219.73L219.842 18.8708L219.394 18.7125ZM224.439 4.90591H236.295V3.95518H224.439V4.90591ZM235.82 4.43054V23.7305H236.77V4.43054H235.82ZM236.295 23.2551H231.25V24.2058H236.295V23.2551ZM231.725 23.7305V9.4761H230.774V23.7305H231.725ZM231.25 9.00073H227.996V9.95146H231.25V9.00073ZM227.548 9.31748L222.502 23.5718L223.399 23.8891L228.444 9.63472L227.548 9.31748ZM222.951 23.2551H211.122V24.2058H222.951V23.2551ZM211.598 23.7305V4.43054H210.647V23.7305H211.598ZM211.122 4.90591H216.14V3.95518H211.122V4.90591ZM215.665 4.43054V18.7125H216.616V4.43054H215.665ZM216.14 19.1879H219.394V18.2371H216.14V19.1879ZM219.842 18.8708L224.888 4.58889L223.991 4.2722L218.946 18.5541L219.842 18.8708Z" fill="white" fill-opacity="0.4"/>
<path d="M261.561 4.43054V3.95518H261.289L261.151 4.18949L261.561 4.43054ZM268.867 4.43054H269.342V3.95518H268.867V4.43054ZM268.867 23.7305V24.2058H269.342V23.7305H268.867ZM263.849 23.7305H263.374V24.2058H263.849V23.7305ZM263.849 10.4962H264.324V8.75398L263.439 10.2548L263.849 10.4962ZM256.046 23.7305V24.2058H256.318L256.456 23.9719L256.046 23.7305ZM251.497 23.7305L251.088 23.9719L251.225 24.2058H251.497V23.7305ZM243.694 10.4962L244.104 10.2548L243.219 8.75398V10.4962H243.694ZM243.694 23.7305V24.2058H244.17V23.7305H243.694ZM238.676 23.7305H238.201V24.2058H238.676V23.7305ZM238.676 4.43054V3.95518H238.201V4.43054H238.676ZM245.983 4.43054L246.393 4.19012L246.255 3.95518H245.983V4.43054ZM253.758 17.6924L253.348 17.9328L253.757 18.631L254.168 17.9334L253.758 17.6924ZM261.561 4.90591H268.867V3.95518H261.561V4.90591ZM268.392 4.43054V23.7305H269.342V4.43054H268.392ZM268.867 23.2551H263.849V24.2058H268.867V23.2551ZM264.324 23.7305V10.4962H263.374V23.7305H264.324ZM263.439 10.2548L255.637 23.489L256.456 23.9719L264.258 10.7377L263.439 10.2548ZM256.046 23.2551H251.497V24.2058H256.046V23.2551ZM251.907 23.489L244.104 10.2548L243.285 10.7377L251.088 23.9719L251.907 23.489ZM243.219 10.4962V23.7305H244.17V10.4962H243.219ZM243.694 23.2551H238.676V24.2058H243.694V23.2551ZM239.152 23.7305V4.43054H238.201V23.7305H239.152ZM238.676 4.90591H245.983V3.95518H238.676V4.90591ZM245.573 4.67097L253.348 17.9328L254.168 17.4519L246.393 4.19012L245.573 4.67097ZM254.168 17.9334L261.97 4.6716L261.151 4.18949L253.348 17.4513L254.168 17.9334Z" fill="white" fill-opacity="0.4"/>
<path d="M1.2612 34.4305V33.9552H0.785837V34.4305H1.2612ZM26.4338 34.4305H26.9092V33.9552H26.4338V34.4305ZM26.4338 39.4761V39.9515H26.9092V39.4761H26.4338ZM16.3427 39.4761V39.0007H15.8673V39.4761H16.3427ZM16.3427 53.7305V54.2058H16.8181V53.7305H16.3427ZM11.3247 53.7305H10.8494V54.2058H11.3247V53.7305ZM11.3247 39.4761H11.8001V39.0007H11.3247V39.4761ZM1.2612 39.4761H0.785837V39.9515H1.2612V39.4761ZM1.2612 34.9059H26.4338V33.9552H1.2612V34.9059ZM25.9585 34.4305V39.4761H26.9092V34.4305H25.9585ZM26.4338 39.0007H16.3427V39.9515H26.4338V39.0007ZM15.8673 39.4761V53.7305H16.8181V39.4761H15.8673ZM16.3427 53.2551H11.3247V54.2058H16.3427V53.2551ZM11.8001 53.7305V39.4761H10.8494V53.7305H11.8001ZM11.3247 39.0007H1.2612V39.9515H11.3247V39.0007ZM1.73657 39.4761V34.4305H0.785837V39.4761H1.73657Z" fill="white" fill-opacity="0.4"/>
<path d="M53.6609 43.8048L53.2793 43.5213L53.0771 43.7934L53.2685 44.0732L53.6609 43.8048ZM28.8191 53.7305H28.3437V54.2058H28.8191V53.7305ZM28.8191 34.4305V33.9552H28.3437V34.4305H28.8191ZM33.8371 39.4761V39.0007H33.3617V39.4761H33.8371ZM33.8371 41.1579H33.3617V41.6333H33.8371V41.1579ZM33.8371 46.2035V45.7281H33.3617V46.2035H33.8371ZM33.8371 48.7125H33.3617V49.1879H33.8371V48.7125ZM54.3435 40.3308C54.3435 41.5184 53.939 42.6332 53.2793 43.5213L54.0425 44.0883C54.8164 43.0464 55.2942 41.7349 55.2942 40.3308H54.3435ZM53.2685 44.0732C53.9377 45.0512 54.3435 46.1998 54.3435 47.4442H55.2942C55.2942 45.9867 54.8177 44.6538 54.0532 43.5364L53.2685 44.0732ZM54.3435 47.4442C54.3435 50.6557 51.744 53.2551 48.5326 53.2551V54.2058C52.2691 54.2058 55.2942 51.1807 55.2942 47.4442H54.3435ZM48.5326 53.2551H28.8191V54.2058H48.5326V53.2551ZM29.2945 53.7305V34.4305H28.3437V53.7305H29.2945ZM28.8191 34.9059H48.9462V33.9552H28.8191V34.9059ZM48.9462 34.9059C51.908 34.9059 54.3435 37.3385 54.3435 40.3308H55.2942C55.2942 36.8163 52.436 33.9552 48.9462 33.9552V34.9059ZM33.3617 39.4761V41.1579H34.3124V39.4761H33.3617ZM33.8371 41.6333H48.9462V40.6826H33.8371V41.6333ZM48.9462 41.6333C49.6877 41.6333 50.2487 41.0241 50.2487 40.3308H49.2979C49.2979 40.5198 49.1421 40.6826 48.9462 40.6826V41.6333ZM50.2487 40.3308C50.2487 39.6202 49.6975 39.0007 48.9462 39.0007V39.9515C49.1322 39.9515 49.2979 40.104 49.2979 40.3308H50.2487ZM48.9462 39.0007H33.8371V39.9515H48.9462V39.0007ZM48.5326 49.1879C49.4979 49.1879 50.2487 48.3823 50.2487 47.4442H49.2979C49.2979 47.8846 48.9459 48.2371 48.5326 48.2371V49.1879ZM50.2487 47.4442C50.2487 46.4924 49.4844 45.7281 48.5326 45.7281V46.6789C48.9593 46.6789 49.2979 47.0175 49.2979 47.4442H50.2487ZM48.5326 45.7281H33.8371V46.6789H48.5326V45.7281ZM33.3617 46.2035V48.7125H34.3124V46.2035H33.3617ZM33.8371 49.1879H48.5326V48.2371H33.8371V49.1879Z" fill="white" fill-opacity="0.4"/>
<path d="M80.9728 34.9059C86.0307 34.9059 90.1474 39.0485 90.1474 44.0805H91.0982C91.0982 38.5252 86.5575 33.9552 80.9728 33.9552V34.9059ZM90.1474 44.0805C90.1474 49.1392 86.0316 53.2551 80.9728 53.2551V54.2058C86.5566 54.2058 91.0982 49.6643 91.0982 44.0805H90.1474ZM80.9728 53.2551H66.7185V54.2058H80.9728V53.2551ZM66.7185 53.2551C61.6597 53.2551 57.5439 49.1392 57.5439 44.0805H56.5931C56.5931 49.6643 61.1347 54.2058 66.7185 54.2058V53.2551ZM57.5439 44.0805C57.5439 39.0485 61.6606 34.9059 66.7185 34.9059V33.9552C61.1338 33.9552 56.5931 38.5252 56.5931 44.0805H57.5439ZM66.7185 34.9059H80.9728V33.9552H66.7185V34.9059ZM80.9728 49.1879C83.7738 49.1879 86.0526 46.9053 86.0526 44.0805H85.1019C85.1019 46.384 83.245 48.2371 80.9728 48.2371V49.1879ZM86.0526 44.0805C86.0526 41.2814 83.7719 39.0007 80.9728 39.0007V39.9515C83.2469 39.9515 85.1019 41.8065 85.1019 44.0805H86.0526ZM80.9728 39.0007H66.7185V39.9515H80.9728V39.0007ZM66.7185 39.0007C63.8937 39.0007 61.6111 41.2796 61.6111 44.0805H62.5619C62.5619 41.8083 64.415 39.9515 66.7185 39.9515V39.0007ZM61.6111 44.0805C61.6111 46.9072 63.8918 49.1879 66.7185 49.1879V48.2371C64.4169 48.2371 62.5619 46.3821 62.5619 44.0805H61.6111ZM66.7185 49.1879H80.9728V48.2371H66.7185V49.1879Z" fill="white" fill-opacity="0.4"/>
<path d="M98.0116 48.7125V48.2371H97.5363V48.7125H98.0116ZM98.0116 53.7305V54.2058H98.487V53.7305H98.0116ZM92.9937 53.7305H92.5183V54.2058H92.9937V53.7305ZM92.9937 34.4305V33.9552H92.5183V34.4305H92.9937ZM98.0116 39.4761V39.0007H97.5363V39.4761H98.0116ZM98.0116 43.6669H97.5363V44.1423H98.0116V43.6669ZM112.707 34.9059C116.357 34.9059 119.345 37.9165 119.345 41.5715H120.296C120.296 37.3962 116.887 33.9552 112.707 33.9552V34.9059ZM119.345 41.5715C119.345 45.2529 116.359 48.2371 112.707 48.2371V49.1879C116.886 49.1879 120.296 45.7756 120.296 41.5715H119.345ZM112.707 48.2371H98.0116V49.1879H112.707V48.2371ZM97.5363 48.7125V53.7305H98.487V48.7125H97.5363ZM98.0116 53.2551H92.9937V54.2058H98.0116V53.2551ZM93.469 53.7305V34.4305H92.5183V53.7305H93.469ZM92.9937 34.9059H112.707V33.9552H92.9937V34.9059ZM112.707 44.1423C114.128 44.1423 115.278 42.9921 115.278 41.5715H114.327C114.327 42.467 113.603 43.1916 112.707 43.1916V44.1423ZM115.278 41.5715C115.278 40.151 114.128 39.0007 112.707 39.0007V39.9515C113.603 39.9515 114.327 40.6761 114.327 41.5715H115.278ZM112.707 39.0007H98.0116V39.9515H112.707V39.0007ZM97.5363 39.4761V43.6669H98.487V39.4761H97.5363ZM98.0116 44.1423H112.707V43.1916H98.0116V44.1423Z" fill="white" fill-opacity="0.4"/>
<path d="M142.118 34.4305V33.9552H141.643V34.4305H142.118ZM147.164 34.4305H147.639V33.9552H147.164V34.4305ZM147.164 53.7305V54.2058H147.639V53.7305H147.164ZM142.118 53.7305H141.643V54.2058H142.118V53.7305ZM142.118 48.7125H142.594V48.2371H142.118V48.7125ZM121.991 48.7125H121.516V49.1879H121.991V48.7125ZM121.991 34.4305V33.9552H121.516V34.4305H121.991ZM127.009 34.4305H127.484V33.9552H127.009V34.4305ZM127.009 43.6669H126.534V44.1423H127.009V43.6669ZM142.118 43.6669V44.1423H142.594V43.6669H142.118ZM142.118 34.9059H147.164V33.9552H142.118V34.9059ZM146.688 34.4305V53.7305H147.639V34.4305H146.688ZM147.164 53.2551H142.118V54.2058H147.164V53.2551ZM142.594 53.7305V48.7125H141.643V53.7305H142.594ZM142.118 48.2371H121.991V49.1879H142.118V48.2371ZM122.466 48.7125V34.4305H121.516V48.7125H122.466ZM121.991 34.9059H127.009V33.9552H121.991V34.9059ZM126.534 34.4305V43.6669H127.484V34.4305H126.534ZM127.009 44.1423H142.118V43.1916H127.009V44.1423ZM142.594 43.6669V34.4305H141.643V43.6669H142.594Z" fill="white" fill-opacity="0.4"/>
<path d="M174.749 39.4761V39.9515H175.224V39.4761H174.749ZM154.594 39.4761V39.0007H154.119V39.4761H154.594ZM154.594 41.1579H154.119V41.6333H154.594V41.1579ZM174.749 41.1579H175.224V40.6826H174.749V41.1579ZM174.749 46.2035V46.6789H175.224V46.2035H174.749ZM154.594 46.2035V45.7281H154.119V46.2035H154.594ZM154.594 48.7125H154.119V49.1879H154.594V48.7125ZM174.749 48.7125H175.224V48.2371H174.749V48.7125ZM174.749 53.7305V54.2058H175.224V53.7305H174.749ZM149.576 53.7305H149.101V54.2058H149.576V53.7305ZM149.576 34.4305V33.9552H149.101V34.4305H149.576ZM174.749 34.4305H175.224V33.9552H174.749V34.4305ZM174.749 39.0007H154.594V39.9515H174.749V39.0007ZM154.119 39.4761V41.1579H155.069V39.4761H154.119ZM154.594 41.6333H174.749V40.6826H154.594V41.6333ZM174.273 41.1579V46.2035H175.224V41.1579H174.273ZM174.749 45.7281H154.594V46.6789H174.749V45.7281ZM154.119 46.2035V48.7125H155.069V46.2035H154.119ZM154.594 49.1879H174.749V48.2371H154.594V49.1879ZM174.273 48.7125V53.7305H175.224V48.7125H174.273ZM174.749 53.2551H149.576V54.2058H174.749V53.2551ZM150.051 53.7305V34.4305H149.101V53.7305H150.051ZM149.576 34.9059H174.749V33.9552H149.576V34.9059ZM174.273 34.4305V39.4761H175.224V34.4305H174.273Z" fill="white" fill-opacity="0.4"/>
<path d="M203.732 48.7125H204.208V48.2371H203.732V48.7125ZM203.732 53.7305V54.2058H204.208V53.7305H203.732ZM203.732 34.4305H204.208V33.9552H203.732V34.4305ZM203.732 39.4761V39.9515H204.208V39.4761H203.732ZM186.556 39.0007C183.731 39.0007 181.448 41.2796 181.448 44.0805H182.399C182.399 41.8083 184.252 39.9515 186.556 39.9515V39.0007ZM181.448 44.0805C181.448 46.9072 183.729 49.1879 186.556 49.1879V48.2371C184.254 48.2371 182.399 46.3821 182.399 44.0805H181.448ZM186.556 49.1879H203.732V48.2371H186.556V49.1879ZM203.257 48.7125V53.7305H204.208V48.7125H203.257ZM203.732 53.2551H186.556V54.2058H203.732V53.2551ZM186.556 53.2551C181.497 53.2551 177.381 49.1392 177.381 44.0805H176.43C176.43 49.6643 180.972 54.2058 186.556 54.2058V53.2551ZM177.381 44.0805C177.381 39.0485 181.498 34.9059 186.556 34.9059V33.9552C180.971 33.9552 176.43 38.5252 176.43 44.0805H177.381ZM186.556 34.9059H203.732V33.9552H186.556V34.9059ZM203.257 34.4305V39.4761H204.208V34.4305H203.257ZM203.732 39.0007H186.556V39.9515H203.732V39.0007Z" fill="white" fill-opacity="0.4"/>
<path d="M205.669 34.4305V33.9552H205.194V34.4305H205.669ZM230.842 34.4305H231.317V33.9552H230.842V34.4305ZM230.842 39.4761V39.9515H231.317V39.4761H230.842ZM220.751 39.4761V39.0007H220.275V39.4761H220.751ZM220.751 53.7305V54.2058H221.226V53.7305H220.751ZM215.733 53.7305H215.257V54.2058H215.733V53.7305ZM215.733 39.4761H216.208V39.0007H215.733V39.4761ZM205.669 39.4761H205.194V39.9515H205.669V39.4761ZM205.669 34.9059H230.842V33.9552H205.669V34.9059ZM230.367 34.4305V39.4761H231.317V34.4305H230.367ZM230.842 39.0007H220.751V39.9515H230.842V39.0007ZM220.275 39.4761V53.7305H221.226V39.4761H220.275ZM220.751 53.2551H215.733V54.2058H220.751V53.2551ZM216.208 53.7305V39.4761H215.257V53.7305H216.208ZM215.733 39.0007H205.669V39.9515H215.733V39.0007ZM206.145 39.4761V34.4305H205.194V39.4761H206.145Z" fill="white" fill-opacity="0.4"/>
<path d="M257.594 43.8048L257.212 43.5213L257.01 43.7934L257.201 44.0732L257.594 43.8048ZM232.752 53.7305H232.276V54.2058H232.752V53.7305ZM232.752 34.4305V33.9552H232.276V34.4305H232.752ZM237.77 39.4761V39.0007H237.294V39.4761H237.77ZM237.77 41.1579H237.294V41.6333H237.77V41.1579ZM237.77 46.2035V45.7281H237.294V46.2035H237.77ZM237.77 48.7125H237.294V49.1879H237.77V48.7125ZM258.276 40.3308C258.276 41.5184 257.872 42.6332 257.212 43.5213L257.975 44.0883C258.749 43.0464 259.227 41.7349 259.227 40.3308H258.276ZM257.201 44.0732C257.87 45.0512 258.276 46.1998 258.276 47.4442H259.227C259.227 45.9867 258.75 44.6538 257.986 43.5364L257.201 44.0732ZM258.276 47.4442C258.276 50.6557 255.677 53.2551 252.465 53.2551V54.2058C256.202 54.2058 259.227 51.1807 259.227 47.4442H258.276ZM252.465 53.2551H232.752V54.2058H252.465V53.2551ZM233.227 53.7305V34.4305H232.276V53.7305H233.227ZM232.752 34.9059H252.879V33.9552H232.752V34.9059ZM252.879 34.9059C255.841 34.9059 258.276 37.3385 258.276 40.3308H259.227C259.227 36.8163 256.369 33.9552 252.879 33.9552V34.9059ZM237.294 39.4761V41.1579H238.245V39.4761H237.294ZM237.77 41.6333H252.879V40.6826H237.77V41.6333ZM252.879 41.6333C253.62 41.6333 254.181 41.0241 254.181 40.3308H253.231C253.231 40.5198 253.075 40.6826 252.879 40.6826V41.6333ZM254.181 40.3308C254.181 39.6202 253.63 39.0007 252.879 39.0007V39.9515C253.065 39.9515 253.231 40.104 253.231 40.3308H254.181ZM252.879 39.0007H237.77V39.9515H252.879V39.0007ZM252.465 49.1879C253.431 49.1879 254.181 48.3823 254.181 47.4442H253.231C253.231 47.8846 252.879 48.2371 252.465 48.2371V49.1879ZM254.181 47.4442C254.181 46.4924 253.417 45.7281 252.465 45.7281V46.6789C252.892 46.6789 253.231 47.0175 253.231 47.4442H254.181ZM252.465 45.7281H237.77V46.6789H252.465V45.7281ZM237.294 46.2035V48.7125H238.245V46.2035H237.294ZM237.77 49.1879H252.465V48.2371H237.77V49.1879Z" fill="white" fill-opacity="0.4"/>
<path d="M284.43 34.9059C289.488 34.9059 293.605 39.0485 293.605 44.0805H294.556C294.556 38.5252 290.015 33.9552 284.43 33.9552V34.9059ZM293.605 44.0805C293.605 49.1392 289.489 53.2551 284.43 53.2551V54.2058C290.014 54.2058 294.556 49.6643 294.556 44.0805H293.605ZM284.43 53.2551H270.176V54.2058H284.43V53.2551ZM270.176 53.2551C265.117 53.2551 261.001 49.1392 261.001 44.0805H260.05C260.05 49.6643 264.592 54.2058 270.176 54.2058V53.2551ZM261.001 44.0805C261.001 39.0485 265.118 34.9059 270.176 34.9059V33.9552C264.591 33.9552 260.05 38.5252 260.05 44.0805H261.001ZM270.176 34.9059H284.43V33.9552H270.176V34.9059ZM284.43 49.1879C287.231 49.1879 289.51 46.9053 289.51 44.0805H288.559C288.559 46.384 286.702 48.2371 284.43 48.2371V49.1879ZM289.51 44.0805C289.51 41.2814 287.229 39.0007 284.43 39.0007V39.9515C286.704 39.9515 288.559 41.8065 288.559 44.0805H289.51ZM284.43 39.0007H270.176V39.9515H284.43V39.0007ZM270.176 39.0007C267.351 39.0007 265.068 41.2796 265.068 44.0805H266.019C266.019 41.8083 267.872 39.9515 270.176 39.9515V39.0007ZM265.068 44.0805C265.068 46.9072 267.349 49.1879 270.176 49.1879V48.2371C267.874 48.2371 266.019 46.3821 266.019 44.0805H265.068ZM270.176 49.1879H284.43V48.2371H270.176V49.1879Z" fill="white" fill-opacity="0.4"/>
<path d="M64.8106 78.7125H65.2859V78.2371H64.8106V78.7125ZM64.8106 83.7305V84.2058H65.2859V83.7305H64.8106ZM64.8106 64.4305H65.2859V63.9552H64.8106V64.4305ZM64.8106 69.4761V69.9515H65.2859V69.4761H64.8106ZM47.6336 69.0007C44.8088 69.0007 42.5263 71.2796 42.5263 74.0805H43.477C43.477 71.8083 45.3302 69.9515 47.6336 69.9515V69.0007ZM42.5263 74.0805C42.5263 76.9072 44.807 79.1879 47.6336 79.1879V78.2371C45.332 78.2371 43.477 76.3821 43.477 74.0805H42.5263ZM47.6336 79.1879H64.8106V78.2371H47.6336V79.1879ZM64.3352 78.7125V83.7305H65.2859V78.7125H64.3352ZM64.8106 83.2551H47.6336V84.2058H64.8106V83.2551ZM47.6336 83.2551C42.5749 83.2551 38.459 79.1392 38.459 74.0805H37.5083C37.5083 79.6643 42.0498 84.2058 47.6336 84.2058V83.2551ZM38.459 74.0805C38.459 69.0485 42.5758 64.9059 47.6336 64.9059V63.9552C42.0489 63.9552 37.5083 68.5252 37.5083 74.0805H38.459ZM47.6336 64.9059H64.8106V63.9552H47.6336V64.9059ZM64.3352 64.4305V69.4761H65.2859V64.4305H64.3352ZM64.8106 69.0007H47.6336V69.9515H64.8106V69.0007Z" fill="white" fill-opacity="0.4"/>
<path d="M102.509 73.8048L102.128 73.5213L101.925 73.7934L102.117 74.0732L102.509 73.8048ZM77.6674 83.7305H77.192V84.2058H77.6674V83.7305ZM77.6674 64.4305V63.9552H77.192V64.4305H77.6674ZM82.6853 69.4761V69.0007H82.21V69.4761H82.6853ZM82.6853 71.1579H82.21V71.6333H82.6853V71.1579ZM82.6853 76.2035V75.7281H82.21V76.2035H82.6853ZM82.6853 78.7125H82.21V79.1879H82.6853V78.7125ZM103.192 70.3308C103.192 71.5184 102.787 72.6332 102.128 73.5213L102.891 74.0883C103.665 73.0464 104.142 71.7349 104.142 70.3308H103.192ZM102.117 74.0732C102.786 75.0512 103.192 76.1998 103.192 77.4442H104.142C104.142 75.9867 103.666 74.6538 102.901 73.5364L102.117 74.0732ZM103.192 77.4442C103.192 80.6557 100.592 83.2551 97.3809 83.2551V84.2058C101.117 84.2058 104.142 81.1807 104.142 77.4442H103.192ZM97.3809 83.2551H77.6674V84.2058H97.3809V83.2551ZM78.1427 83.7305V64.4305H77.192V83.7305H78.1427ZM77.6674 64.9059H97.7944V63.9552H77.6674V64.9059ZM97.7944 64.9059C100.756 64.9059 103.192 67.3385 103.192 70.3308H104.142C104.142 66.8163 101.284 63.9552 97.7944 63.9552V64.9059ZM82.21 69.4761V71.1579H83.1607V69.4761H82.21ZM82.6853 71.6333H97.7944V70.6826H82.6853V71.6333ZM97.7944 71.6333C98.5359 71.6333 99.0969 71.0241 99.0969 70.3308H98.1462C98.1462 70.5198 97.9904 70.6826 97.7944 70.6826V71.6333ZM99.0969 70.3308C99.0969 69.6202 98.5458 69.0007 97.7944 69.0007V69.9515C97.9805 69.9515 98.1462 70.104 98.1462 70.3308H99.0969ZM97.7944 69.0007H82.6853V69.9515H97.7944V69.0007ZM97.3809 79.1879C98.3462 79.1879 99.0969 78.3823 99.0969 77.4442H98.1462C98.1462 77.8846 97.7941 78.2371 97.3809 78.2371V79.1879ZM99.0969 77.4442C99.0969 76.4924 98.3327 75.7281 97.3809 75.7281V76.6789C97.8076 76.6789 98.1462 77.0175 98.1462 77.4442H99.0969ZM97.3809 75.7281H82.6853V76.6789H97.3809V75.7281ZM82.21 76.2035V78.7125H83.1607V76.2035H82.21ZM82.6853 79.1879H97.3809V78.2371H82.6853V79.1879Z" fill="white" fill-opacity="0.4"/>
<path d="M126.331 64.4305L126.78 64.2746L126.669 63.9552H126.331V64.4305ZM133.03 83.7305V84.2058H133.699L133.479 83.5746L133.03 83.7305ZM127.571 83.7305L127.122 83.886L127.233 84.2058H127.571V83.7305ZM125.834 78.7125L126.283 78.557L126.173 78.2371H125.834V78.7125ZM111.718 78.7125V78.2371H111.381L111.269 78.5548L111.718 78.7125ZM109.953 83.7305V84.2058H110.29L110.402 83.8882L109.953 83.7305ZM104.522 83.7305L104.073 83.5746L103.853 84.2058H104.522V83.7305ZM111.221 64.4305V63.9552H110.883L110.772 64.2746L111.221 64.4305ZM113.455 73.6669L113.006 73.5104L112.786 74.1423H113.455V73.6669ZM124.07 73.6669V74.1423H124.739L124.519 73.5104L124.07 73.6669ZM122.608 69.4761L123.057 69.3196L122.946 69.0007H122.608V69.4761ZM114.916 69.4761V69.0007H114.578L114.467 69.3196L114.916 69.4761ZM125.881 64.5864L132.581 83.8864L133.479 83.5746L126.78 64.2746L125.881 64.5864ZM133.03 83.2551H127.571V84.2058H133.03V83.2551ZM128.02 83.575L126.283 78.557L125.385 78.868L127.122 83.886L128.02 83.575ZM125.834 78.2371H111.718V79.1879H125.834V78.2371ZM111.269 78.5548L109.505 83.5728L110.402 83.8882L112.166 78.8702L111.269 78.5548ZM109.953 83.2551H104.522V84.2058H109.953V83.2551ZM104.971 83.8864L111.671 64.5864L110.772 64.2746L104.073 83.5746L104.971 83.8864ZM111.221 64.9059H126.331V63.9552H111.221V64.9059ZM113.455 74.1423H124.07V73.1916H113.455V74.1423ZM124.519 73.5104L123.057 69.3196L122.16 69.6326L123.621 73.8234L124.519 73.5104ZM122.608 69.0007H114.916V69.9515H122.608V69.0007ZM114.467 69.3196L113.006 73.5104L113.904 73.8234L115.365 69.6326L114.467 69.3196Z" fill="white" fill-opacity="0.4"/>
<path d="M160.817 64.4305V63.9552H160.342V64.4305H160.817ZM165.835 64.4305H166.311V63.9552H165.835V64.4305ZM165.835 83.7305V84.2058H166.311V83.7305H165.835ZM135.645 83.7305H135.169V84.2058H135.645V83.7305ZM135.645 64.4305V63.9552H135.169V64.4305H135.645ZM140.663 64.4305H141.138V63.9552H140.663V64.4305ZM140.663 78.7125H140.187V79.1879H140.663V78.7125ZM148.217 78.7125V79.1879H148.693V78.7125H148.217ZM148.217 64.4305V63.9552H147.742V64.4305H148.217ZM153.263 64.4305H153.738V63.9552H153.263V64.4305ZM153.263 78.7125H152.787V79.1879H153.263V78.7125ZM160.817 78.7125V79.1879H161.293V78.7125H160.817ZM160.817 64.9059H165.835V63.9552H160.817V64.9059ZM165.36 64.4305V83.7305H166.311V64.4305H165.36ZM165.835 83.2551H135.645V84.2058H165.835V83.2551ZM136.12 83.7305V64.4305H135.169V83.7305H136.12ZM135.645 64.9059H140.663V63.9552H135.645V64.9059ZM140.187 64.4305V78.7125H141.138V64.4305H140.187ZM140.663 79.1879H148.217V78.2371H140.663V79.1879ZM148.693 78.7125V64.4305H147.742V78.7125H148.693ZM148.217 64.9059H153.263V63.9552H148.217V64.9059ZM152.787 64.4305V78.7125H153.738V64.4305H152.787ZM153.263 79.1879H160.817V78.2371H153.263V79.1879ZM161.293 78.7125V64.4305H160.342V78.7125H161.293Z" fill="white" fill-opacity="0.4"/>
<path d="M181.78 64.4305V63.9552H181.443L181.331 64.2722L181.78 64.4305ZM193.635 64.4305H194.111V63.9552H193.635V64.4305ZM193.635 83.7305V84.2058H194.111V83.7305H193.635ZM188.59 83.7305H188.114V84.2058H188.59V83.7305ZM188.59 69.4761H189.065V69.0007H188.59V69.4761ZM185.336 69.4761V69.0007H185L184.888 69.3175L185.336 69.4761ZM180.291 83.7305V84.2058H180.627L180.739 83.8891L180.291 83.7305ZM168.463 83.7305H167.987V84.2058H168.463V83.7305ZM168.463 64.4305V63.9552H167.987V64.4305H168.463ZM173.481 64.4305H173.956V63.9552H173.481V64.4305ZM173.481 78.7125H173.005V79.1879H173.481V78.7125ZM176.734 78.7125V79.1879H177.07L177.182 78.8708L176.734 78.7125ZM181.78 64.9059H193.635V63.9552H181.78V64.9059ZM193.16 64.4305V83.7305H194.111V64.4305H193.16ZM193.635 83.2551H188.59V84.2058H193.635V83.2551ZM189.065 83.7305V69.4761H188.114V83.7305H189.065ZM188.59 69.0007H185.336V69.9515H188.59V69.0007ZM184.888 69.3175L179.843 83.5718L180.739 83.8891L185.784 69.6347L184.888 69.3175ZM180.291 83.2551H168.463V84.2058H180.291V83.2551ZM168.938 83.7305V64.4305H167.987V83.7305H168.938ZM168.463 64.9059H173.481V63.9552H168.463V64.9059ZM173.005 64.4305V78.7125H173.956V64.4305H173.005ZM173.481 79.1879H176.734V78.2371H173.481V79.1879ZM177.182 78.8708L182.228 64.5889L181.331 64.2722L176.286 78.5541L177.182 78.8708Z" fill="white" fill-opacity="0.4"/>
<path d="M218.901 64.4305V63.9552H218.629L218.491 64.1895L218.901 64.4305ZM226.207 64.4305H226.682V63.9552H226.207V64.4305ZM226.207 83.7305V84.2058H226.682V83.7305H226.207ZM221.189 83.7305H220.714V84.2058H221.189V83.7305ZM221.189 70.4962H221.664V68.754L220.779 70.2548L221.189 70.4962ZM213.386 83.7305V84.2058H213.658L213.796 83.9719L213.386 83.7305ZM208.837 83.7305L208.428 83.9719L208.565 84.2058H208.837V83.7305ZM201.034 70.4962L201.444 70.2548L200.559 68.754V70.4962H201.034ZM201.034 83.7305V84.2058H201.51V83.7305H201.034ZM196.016 83.7305H195.541V84.2058H196.016V83.7305ZM196.016 64.4305V63.9552H195.541V64.4305H196.016ZM203.323 64.4305L203.733 64.1901L203.595 63.9552H203.323V64.4305ZM211.098 77.6924L210.688 77.9328L211.097 78.631L211.508 77.9334L211.098 77.6924ZM218.901 64.9059H226.207V63.9552H218.901V64.9059ZM225.732 64.4305V83.7305H226.682V64.4305H225.732ZM226.207 83.2551H221.189V84.2058H226.207V83.2551ZM221.664 83.7305V70.4962H220.714V83.7305H221.664ZM220.779 70.2548L212.977 83.489L213.796 83.9719L221.598 70.7377L220.779 70.2548ZM213.386 83.2551H208.837V84.2058H213.386V83.2551ZM209.247 83.489L201.444 70.2548L200.625 70.7377L208.428 83.9719L209.247 83.489ZM200.559 70.4962V83.7305H201.51V70.4962H200.559ZM201.034 83.2551H196.016V84.2058H201.034V83.2551ZM196.492 83.7305V64.4305H195.541V83.7305H196.492ZM196.016 64.9059H203.323V63.9552H196.016V64.9059ZM202.913 64.671L210.688 77.9328L211.508 77.4519L203.733 64.1901L202.913 64.671ZM211.508 77.9334L219.31 64.6716L218.491 64.1895L210.688 77.4513L211.508 77.9334Z" fill="white" fill-opacity="0.4"/>
<path d="M242.151 64.4305V63.9552H241.815L241.703 64.2722L242.151 64.4305ZM254.007 64.4305H254.482V63.9552H254.007V64.4305ZM254.007 83.7305V84.2058H254.482V83.7305H254.007ZM248.961 83.7305H248.486V84.2058H248.961V83.7305ZM248.961 69.4761H249.437V69.0007H248.961V69.4761ZM245.708 69.4761V69.0007H245.372L245.26 69.3175L245.708 69.4761ZM240.662 83.7305V84.2058H240.998L241.111 83.8891L240.662 83.7305ZM228.834 83.7305H228.359V84.2058H228.834V83.7305ZM228.834 64.4305V63.9552H228.359V64.4305H228.834ZM233.852 64.4305H234.328V63.9552H233.852V64.4305ZM233.852 78.7125H233.377V79.1879H233.852V78.7125ZM237.106 78.7125V79.1879H237.442L237.554 78.8708L237.106 78.7125ZM242.151 64.9059H254.007V63.9552H242.151V64.9059ZM253.532 64.4305V83.7305H254.482V64.4305H253.532ZM254.007 83.2551H248.961V84.2058H254.007V83.2551ZM249.437 83.7305V69.4761H248.486V83.7305H249.437ZM248.961 69.0007H245.708V69.9515H248.961V69.0007ZM245.26 69.3175L240.214 83.5718L241.111 83.8891L246.156 69.6347L245.26 69.3175ZM240.662 83.2551H228.834V84.2058H240.662V83.2551ZM229.31 83.7305V64.4305H228.359V83.7305H229.31ZM228.834 64.9059H233.852V63.9552H228.834V64.9059ZM233.377 64.4305V78.7125H234.328V64.4305H233.377ZM233.852 79.1879H237.106V78.2371H233.852V79.1879ZM237.554 78.8708L242.599 64.5889L241.703 64.2722L236.657 78.5541L237.554 78.8708Z" fill="white" fill-opacity="0.4"/>
<path d="M53.5463 103.805L53.1647 103.522L52.9625 103.794L53.154 104.074L53.5463 103.805ZM28.7045 113.731H28.2292V114.206H28.7045V113.731ZM28.7045 108.713V108.238H28.2292V108.713H28.7045ZM28.7045 106.204H28.2292V106.679H28.7045V106.204ZM28.7045 101.158V100.683H28.2292V101.158H28.7045ZM28.7045 99.4766H28.2292V99.952H28.7045V99.4766ZM28.7045 94.431V93.9557H28.2292V94.431H28.7045ZM54.2289 100.331C54.2289 101.519 53.8244 102.634 53.1647 103.522L53.9279 104.089C54.7019 103.047 55.1797 101.735 55.1797 100.331H54.2289ZM53.154 104.074C53.8231 105.052 54.2289 106.2 54.2289 107.445H55.1797C55.1797 105.987 54.7032 104.654 53.9386 103.537L53.154 104.074ZM54.2289 107.445C54.2289 110.656 51.6295 113.256 48.418 113.256V114.206C52.1545 114.206 55.1797 111.181 55.1797 107.445H54.2289ZM48.418 113.256H28.7045V114.206H48.418V113.256ZM29.1799 113.731V108.713H28.2292V113.731H29.1799ZM28.7045 109.188H48.418V108.238H28.7045V109.188ZM48.418 109.188C49.3833 109.188 50.1341 108.383 50.1341 107.445H49.1834C49.1834 107.885 48.8313 108.238 48.418 108.238V109.188ZM50.1341 107.445C50.1341 106.493 49.3698 105.729 48.418 105.729V106.679C48.8448 106.679 49.1834 107.018 49.1834 107.445H50.1341ZM48.418 105.729H28.7045V106.679H48.418V105.729ZM29.1799 106.204V101.158H28.2292V106.204H29.1799ZM28.7045 101.634H48.8316V100.683H28.7045V101.634ZM48.8316 101.634C49.5731 101.634 50.1341 101.025 50.1341 100.331H49.1834C49.1834 100.52 49.0275 100.683 48.8316 100.683V101.634ZM50.1341 100.331C50.1341 99.6206 49.583 99.0012 48.8316 99.0012V99.952C49.0176 99.952 49.1834 100.105 49.1834 100.331H50.1341ZM48.8316 99.0012H28.7045V99.952H48.8316V99.0012ZM29.1799 99.4766V94.431H28.2292V99.4766H29.1799ZM28.7045 94.9064H48.8316V93.9557H28.7045V94.9064ZM48.8316 94.9064C51.7935 94.9064 54.2289 97.339 54.2289 100.331H55.1797C55.1797 96.8168 52.3214 93.9557 48.8316 93.9557V94.9064Z" fill="white" fill-opacity="0.4"/>
<path d="M77.3678 94.431L77.8169 94.2751L77.706 93.9557H77.3678V94.431ZM84.0676 113.731V114.206H84.7358L84.5167 113.575L84.0676 113.731ZM78.6085 113.731L78.1593 113.886L78.27 114.206H78.6085V113.731ZM76.8715 108.713L77.3207 108.557L77.21 108.238H76.8715V108.713ZM62.755 108.713V108.238H62.4183L62.3065 108.555L62.755 108.713ZM60.9904 113.731V114.206H61.3272L61.4389 113.889L60.9904 113.731ZM55.5589 113.731L55.1098 113.575L54.8907 114.206H55.5589V113.731ZM62.2587 94.431V93.9557H61.9205L61.8096 94.2751L62.2587 94.431ZM64.492 103.667L64.0431 103.511L63.8228 104.143H64.492V103.667ZM75.1069 103.667V104.143H75.7761L75.5558 103.511L75.1069 103.667ZM73.6457 99.4766L74.0945 99.3201L73.9834 99.0012H73.6457V99.4766ZM65.9533 99.4766V99.0012H65.6156L65.5044 99.3201L65.9533 99.4766ZM76.9187 94.5869L83.6185 113.887L84.5167 113.575L77.8169 94.2751L76.9187 94.5869ZM84.0676 113.256H78.6085V114.206H84.0676V113.256ZM79.0577 113.575L77.3207 108.557L76.4223 108.868L78.1593 113.886L79.0577 113.575ZM76.8715 108.238H62.755V109.188H76.8715V108.238ZM62.3065 108.555L60.542 113.573L61.4389 113.889L63.2034 108.871L62.3065 108.555ZM60.9904 113.256H55.5589V114.206H60.9904V113.256ZM56.008 113.887L62.7078 94.5869L61.8096 94.2751L55.1098 113.575L56.008 113.887ZM62.2587 94.9064H77.3678V93.9557H62.2587V94.9064ZM64.492 104.143H75.1069V103.192H64.492V104.143ZM75.5558 103.511L74.0945 99.3201L73.1968 99.6331L74.6581 103.824L75.5558 103.511ZM73.6457 99.0012H65.9533V99.952H73.6457V99.0012ZM65.5044 99.3201L64.0431 103.511L64.9409 103.824L66.4021 99.6331L65.5044 99.3201Z" fill="white" fill-opacity="0.4"/>
<path d="M108.742 94.431L109.191 94.2751L109.08 93.9557H108.742V94.431ZM115.442 113.731V114.206H116.11L115.891 113.575L115.442 113.731ZM86.9331 113.731L86.484 113.575L86.2649 114.206H86.9331V113.731ZM93.6329 94.431V93.9557H93.2947L93.1838 94.2751L93.6329 94.431ZM94.1292 108.713L93.68 108.557L93.4615 109.188H94.1292V108.713ZM108.246 108.713V109.188H108.915L108.695 108.556L108.246 108.713ZM105.02 99.4766L105.469 99.3198L105.357 99.0012H105.02V99.4766ZM97.3275 99.4766V99.0012H96.989L96.8783 99.321L97.3275 99.4766ZM108.293 94.5869L114.993 113.887L115.891 113.575L109.191 94.2751L108.293 94.5869ZM115.442 113.256H86.9331V114.206H115.442V113.256ZM87.3822 113.887L94.082 94.5869L93.1838 94.2751L86.484 113.575L87.3822 113.887ZM93.6329 94.9064H108.742V93.9557H93.6329V94.9064ZM94.1292 109.188H108.246V108.238H94.1292V109.188ZM108.695 108.556L105.469 99.3198L104.571 99.6333L107.797 108.87L108.695 108.556ZM105.02 99.0012H97.3275V99.952H105.02V99.0012ZM96.8783 99.321L93.68 108.557L94.5784 108.869L97.7767 99.6321L96.8783 99.321Z" fill="white" fill-opacity="0.4"/>
<path d="M139.641 94.431L140.09 94.2751L139.979 93.9557H139.641V94.431ZM146.341 113.731V114.206H147.009L146.79 113.575L146.341 113.731ZM140.882 113.731L140.432 113.886L140.543 114.206H140.882V113.731ZM139.145 108.713L139.594 108.557L139.483 108.238H139.145V108.713ZM125.028 108.713V108.238H124.691L124.58 108.555L125.028 108.713ZM123.264 113.731V114.206H123.6L123.712 113.889L123.264 113.731ZM117.832 113.731L117.383 113.575L117.164 114.206H117.832V113.731ZM124.532 94.431V93.9557H124.194L124.083 94.2751L124.532 94.431ZM126.765 103.667L126.316 103.511L126.096 104.143H126.765V103.667ZM137.38 103.667V104.143H138.049L137.829 103.511L137.38 103.667ZM135.919 99.4766L136.368 99.3201L136.256 99.0012H135.919V99.4766ZM128.226 99.4766V99.0012H127.889L127.777 99.3201L128.226 99.4766ZM139.192 94.5869L145.892 113.887L146.79 113.575L140.09 94.2751L139.192 94.5869ZM146.341 113.256H140.882V114.206H146.341V113.256ZM141.331 113.575L139.594 108.557L138.695 108.868L140.432 113.886L141.331 113.575ZM139.145 108.238H125.028V109.188H139.145V108.238ZM124.58 108.555L122.815 113.573L123.712 113.889L125.477 108.871L124.58 108.555ZM123.264 113.256H117.832V114.206H123.264V113.256ZM118.281 113.887L124.981 94.5869L124.083 94.2751L117.383 113.575L118.281 113.887ZM124.532 94.9064H139.641V93.9557H124.532V94.9064ZM126.765 104.143H137.38V103.192H126.765V104.143ZM137.829 103.511L136.368 99.3201L135.47 99.6331L136.931 103.824L137.829 103.511ZM135.919 99.0012H128.226V99.952H135.919V99.0012ZM127.777 99.3201L126.316 103.511L127.214 103.824L128.675 99.6331L127.777 99.3201Z" fill="white" fill-opacity="0.4"/>
<path d="M168.149 94.431V93.9557H167.673V94.431H168.149ZM173.194 94.431H173.67V93.9557H173.194V94.431ZM173.194 113.731V114.206H173.67V113.731H173.194ZM168.149 113.731H167.673V114.206H168.149V113.731ZM168.149 108.713H168.624V108.238H168.149V108.713ZM148.022 108.713H147.546V109.188H148.022V108.713ZM148.022 94.431V93.9557H147.546V94.431H148.022ZM153.04 94.431H153.515V93.9557H153.04V94.431ZM153.04 103.667H152.564V104.143H153.04V103.667ZM168.149 103.667V104.143H168.624V103.667H168.149ZM168.149 94.9064H173.194V93.9557H168.149V94.9064ZM172.719 94.431V113.731H173.67V94.431H172.719ZM173.194 113.256H168.149V114.206H173.194V113.256ZM168.624 113.731V108.713H167.673V113.731H168.624ZM168.149 108.238H148.022V109.188H168.149V108.238ZM148.497 108.713V94.431H147.546V108.713H148.497ZM148.022 94.9064H153.04V93.9557H148.022V94.9064ZM152.564 94.431V103.667H153.515V94.431H152.564ZM153.04 104.143H168.149V103.192H153.04V104.143ZM168.624 103.667V94.431H167.673V103.667H168.624Z" fill="white" fill-opacity="0.4"/>
<path d="M197.636 94.431L198.085 94.2751L197.974 93.9557H197.636V94.431ZM204.336 113.731V114.206H205.004L204.785 113.575L204.336 113.731ZM198.876 113.731L198.427 113.886L198.538 114.206H198.876V113.731ZM197.139 108.713L197.589 108.557L197.478 108.238H197.139V108.713ZM183.023 108.713V108.238H182.686L182.574 108.555L183.023 108.713ZM181.258 113.731V114.206H181.595L181.707 113.889L181.258 113.731ZM175.827 113.731L175.378 113.575L175.159 114.206H175.827V113.731ZM182.527 94.431V93.9557H182.188L182.078 94.2751L182.527 94.431ZM184.76 103.667L184.311 103.511L184.091 104.143H184.76V103.667ZM195.375 103.667V104.143H196.044L195.824 103.511L195.375 103.667ZM193.914 99.4766L194.362 99.3201L194.251 99.0012H193.914V99.4766ZM186.221 99.4766V99.0012H185.884L185.772 99.3201L186.221 99.4766ZM197.187 94.5869L203.886 113.887L204.785 113.575L198.085 94.2751L197.187 94.5869ZM204.336 113.256H198.876V114.206H204.336V113.256ZM199.326 113.575L197.589 108.557L196.69 108.868L198.427 113.886L199.326 113.575ZM197.139 108.238H183.023V109.188H197.139V108.238ZM182.574 108.555L180.81 113.573L181.707 113.889L183.471 108.871L182.574 108.555ZM181.258 113.256H175.827V114.206H181.258V113.256ZM176.276 113.887L182.976 94.5869L182.078 94.2751L175.378 113.575L176.276 113.887ZM182.527 94.9064H197.636V93.9557H182.527V94.9064ZM184.76 104.143H195.375V103.192H184.76V104.143ZM195.824 103.511L194.362 99.3201L193.465 99.6331L194.926 103.824L195.824 103.511ZM193.914 99.0012H186.221V99.952H193.914V99.0012ZM185.772 99.3201L184.311 103.511L185.209 103.824L186.67 99.6331L185.772 99.3201Z" fill="white" fill-opacity="0.4"/>
<path d="M229.834 94.431V93.9557H229.562L229.424 94.19L229.834 94.431ZM237.14 94.431H237.616V93.9557H237.14V94.431ZM237.14 113.731V114.206H237.616V113.731H237.14ZM232.122 113.731H231.647V114.206H232.122V113.731ZM232.122 100.497H232.598V98.7545L231.713 100.255L232.122 100.497ZM224.32 113.731V114.206H224.591L224.729 113.972L224.32 113.731ZM219.771 113.731L219.361 113.972L219.499 114.206H219.771V113.731ZM211.968 100.497L212.377 100.255L211.492 98.7545V100.497H211.968ZM211.968 113.731V114.206H212.443V113.731H211.968ZM206.95 113.731H206.474V114.206H206.95V113.731ZM206.95 94.431V93.9557H206.474V94.431H206.95ZM214.256 94.431L214.666 94.1906L214.529 93.9557H214.256V94.431ZM222.031 107.693L221.621 107.933L222.031 108.631L222.441 107.934L222.031 107.693ZM229.834 94.9064H237.14V93.9557H229.834V94.9064ZM236.665 94.431V113.731H237.616V94.431H236.665ZM237.14 113.256H232.122V114.206H237.14V113.256ZM232.598 113.731V100.497H231.647V113.731H232.598ZM231.713 100.255L223.91 113.49L224.729 113.972L232.532 100.738L231.713 100.255ZM224.32 113.256H219.771V114.206H224.32V113.256ZM220.18 113.49L212.377 100.255L211.558 100.738L219.361 113.972L220.18 113.49ZM211.492 100.497V113.731H212.443V100.497H211.492ZM211.968 113.256H206.95V114.206H211.968V113.256ZM207.425 113.731V94.431H206.474V113.731H207.425ZM206.95 94.9064H214.256V93.9557H206.95V94.9064ZM213.846 94.6715L221.621 107.933L222.441 107.452L214.666 94.1906L213.846 94.6715ZM222.441 107.934L230.244 94.6721L229.424 94.19L221.622 107.452L222.441 107.934Z" fill="white" fill-opacity="0.4"/>
<path d="M253.085 94.431V93.9557H252.748L252.636 94.2727L253.085 94.431ZM264.94 94.431H265.416V93.9557H264.94V94.431ZM264.94 113.731V114.206H265.416V113.731H264.94ZM259.895 113.731H259.419V114.206H259.895V113.731ZM259.895 99.4766H260.37V99.0012H259.895V99.4766ZM256.641 99.4766V99.0012H256.305L256.193 99.318L256.641 99.4766ZM251.596 113.731V114.206H251.932L252.044 113.89L251.596 113.731ZM239.768 113.731H239.292V114.206H239.768V113.731ZM239.768 94.431V93.9557H239.292V94.431H239.768ZM244.786 94.431H245.261V93.9557H244.786V94.431ZM244.786 108.713H244.31V109.188H244.786V108.713ZM248.039 108.713V109.188H248.375L248.487 108.871L248.039 108.713ZM253.085 94.9064H264.94V93.9557H253.085V94.9064ZM264.465 94.431V113.731H265.416V94.431H264.465ZM264.94 113.256H259.895V114.206H264.94V113.256ZM260.37 113.731V99.4766H259.419V113.731H260.37ZM259.895 99.0012H256.641V99.952H259.895V99.0012ZM256.193 99.318L251.148 113.572L252.044 113.89L257.09 99.6352L256.193 99.318ZM251.596 113.256H239.768V114.206H251.596V113.256ZM240.243 113.731V94.431H239.292V113.731H240.243ZM239.768 94.9064H244.786V93.9557H239.768V94.9064ZM244.31 94.431V108.713H245.261V94.431H244.31ZM244.786 109.188H248.039V108.238H244.786V109.188ZM248.487 108.871L253.533 94.5894L252.636 94.2727L247.591 108.555L248.487 108.871Z" fill="white" fill-opacity="0.4"/>
</svg>
