<svg width="1244" height="128" viewBox="0 0 1244 128" fill="none" xmlns="http://www.w3.org/2000/svg">
<path d="M612.005 72.4V71.4H611.005V72.4H612.005ZM612.005 83.014H611.005V84.014H612.005V83.014ZM612.005 86.552V85.552H611.005V86.552H612.005ZM612.005 97.166H611.005V98.166H612.005V97.166ZM612.005 102.444V101.444H611.005V102.444H612.005ZM612.005 113H611.005V114H612.005V113ZM664.263 92.12L663.46 91.5237L663.035 92.0961L663.437 92.6847L664.263 92.12ZM667.699 84.812C667.699 77.4188 661.686 71.4 654.345 71.4V73.4C660.575 73.4 665.699 78.5172 665.699 84.812H667.699ZM654.345 71.4H612.005V73.4H654.345V71.4ZM611.005 72.4V83.014H613.005V72.4H611.005ZM612.005 84.014H654.345V82.014H612.005V84.014ZM654.345 84.014C654.736 84.014 655.085 84.335 655.085 84.812H657.085C657.085 83.317 655.925 82.014 654.345 82.014V84.014ZM655.085 84.812C655.085 85.2095 654.757 85.552 654.345 85.552V87.552C655.904 87.552 657.085 86.2705 657.085 84.812H655.085ZM654.345 85.552H612.005V87.552H654.345V85.552ZM611.005 86.552V97.166H613.005V86.552H611.005ZM612.005 98.166H653.475V96.166H612.005V98.166ZM653.475 98.166C654.372 98.166 655.085 98.8783 655.085 99.776H657.085C657.085 97.7737 655.477 96.166 653.475 96.166V98.166ZM655.085 99.776C655.085 100.702 654.344 101.444 653.475 101.444V103.444C655.505 103.444 657.085 101.75 657.085 99.776H655.085ZM653.475 101.444H612.005V103.444H653.475V101.444ZM611.005 102.444V113H613.005V102.444H611.005ZM612.005 114H653.475V112H612.005V114ZM653.475 114C661.335 114 667.699 107.636 667.699 99.776H665.699C665.699 106.532 660.23 112 653.475 112V114ZM667.699 99.776C667.699 96.7099 666.696 93.906 665.088 91.5553L663.437 92.6847C664.845 94.742 665.699 97.1581 665.699 99.776H667.699ZM665.065 92.7163C666.694 90.5246 667.699 87.7657 667.699 84.812H665.699C665.699 87.3103 664.848 89.6554 663.46 91.5237L665.065 92.7163Z" fill="white" fill-opacity="0.4"/>
<path d="M714.374 72.4L715.319 72.0721L715.086 71.4H714.374V72.4ZM682.59 72.4V71.4H681.879L681.646 72.0721L682.59 72.4ZM668.496 113L667.552 112.672L667.091 114H668.496V113ZM679.922 113V114H680.631L680.866 113.332L679.922 113ZM683.634 102.444V101.444H682.926L682.691 102.112L683.634 102.444ZM713.33 102.444L714.275 102.117L714.042 101.444H713.33V102.444ZM716.984 113L716.039 113.327L716.272 114H716.984V113ZM728.468 113V114H729.874L729.413 112.672L728.468 113ZM687.288 91.83L686.344 91.5008L685.881 92.83H687.288V91.83ZM690.362 83.014V82.014H689.652L689.418 82.6848L690.362 83.014ZM706.544 83.014L707.489 82.6848L707.255 82.014H706.544V83.014ZM709.618 91.83V92.83H711.026L710.563 91.5008L709.618 91.83ZM714.374 71.4H682.59V73.4H714.374V71.4ZM681.646 72.0721L667.552 112.672L669.441 113.328L683.535 72.7279L681.646 72.0721ZM668.496 114H679.922V112H668.496V114ZM680.866 113.332L684.578 102.776L682.691 102.112L678.979 112.668L680.866 113.332ZM683.634 103.444H713.33V101.444H683.634V103.444ZM712.385 102.771L716.039 113.327L717.929 112.673L714.275 102.117L712.385 102.771ZM716.984 114H728.468V112H716.984V114ZM729.413 112.672L715.319 72.0721L713.43 72.7279L727.524 113.328L729.413 112.672ZM688.233 92.1592L691.307 83.3432L689.418 82.6848L686.344 91.5008L688.233 92.1592ZM690.362 84.014H706.544V82.014H690.362V84.014ZM705.6 83.3432L708.674 92.1592L710.563 91.5008L707.489 82.6848L705.6 83.3432ZM709.618 90.83H687.288V92.83H709.618V90.83Z" fill="white" fill-opacity="0.4"/>
<path d="M780.374 72.4L781.319 72.0721L781.086 71.4H780.374V72.4ZM748.59 72.4V71.4H747.879L747.646 72.0721L748.59 72.4ZM734.496 113L733.552 112.672L733.091 114H734.496V113ZM794.468 113V114H795.874L795.413 112.672L794.468 113ZM749.634 102.444L748.689 102.117L748.23 103.444H749.634V102.444ZM756.362 83.014V82.014H755.65L755.417 82.6868L756.362 83.014ZM772.544 83.014L773.488 82.6843L773.254 82.014H772.544V83.014ZM779.33 102.444V103.444H780.739L780.274 102.114L779.33 102.444ZM780.374 71.4H748.59V73.4H780.374V71.4ZM747.646 72.0721L733.552 112.672L735.441 113.328L749.535 72.7279L747.646 72.0721ZM734.496 114H794.468V112H734.496V114ZM795.413 112.672L781.319 72.0721L779.43 72.7279L793.524 113.328L795.413 112.672ZM750.579 102.771L757.307 83.3412L755.417 82.6868L748.689 102.117L750.579 102.771ZM756.362 84.014H772.544V82.014H756.362V84.014ZM771.6 83.3437L778.386 102.774L780.274 102.114L773.488 82.6843L771.6 83.3437ZM779.33 101.444H749.634V103.444H779.33V101.444Z" fill="white" fill-opacity="0.4"/>
<path d="M845.374 72.4L846.319 72.0721L846.086 71.4H845.374V72.4ZM813.59 72.4V71.4H812.879L812.646 72.0721L813.59 72.4ZM799.496 113L798.552 112.672L798.091 114H799.496V113ZM810.922 113V114H811.631L811.866 113.332L810.922 113ZM814.634 102.444V101.444H813.926L813.691 102.112L814.634 102.444ZM844.33 102.444L845.275 102.117L845.042 101.444H844.33V102.444ZM847.984 113L847.039 113.327L847.272 114H847.984V113ZM859.468 113V114H860.874L860.413 112.672L859.468 113ZM818.288 91.83L817.344 91.5008L816.881 92.83H818.288V91.83ZM821.362 83.014V82.014H820.652L820.418 82.6848L821.362 83.014ZM837.544 83.014L838.489 82.6848L838.255 82.014H837.544V83.014ZM840.618 91.83V92.83H842.026L841.563 91.5008L840.618 91.83ZM845.374 71.4H813.59V73.4H845.374V71.4ZM812.646 72.0721L798.552 112.672L800.441 113.328L814.535 72.7279L812.646 72.0721ZM799.496 114H810.922V112H799.496V114ZM811.866 113.332L815.578 102.776L813.691 102.112L809.979 112.668L811.866 113.332ZM814.634 103.444H844.33V101.444H814.634V103.444ZM843.385 102.771L847.039 113.327L848.929 112.673L845.275 102.117L843.385 102.771ZM847.984 114H859.468V112H847.984V114ZM860.413 112.672L846.319 72.0721L844.43 72.7279L858.524 113.328L860.413 112.672ZM819.233 92.1592L822.307 83.3432L820.418 82.6848L817.344 91.5008L819.233 92.1592ZM821.362 84.014H837.544V82.014H821.362V84.014ZM836.6 83.3432L839.674 92.1592L841.563 91.5008L838.489 82.6848L836.6 83.3432ZM840.618 90.83H818.288V92.83H840.618V90.83Z" fill="white" fill-opacity="0.4"/>
<path d="M905.345 72.4V71.4H904.345V72.4H905.345ZM905.345 91.83V92.83H906.345V91.83H905.345ZM873.561 91.83H872.561V92.83H873.561V91.83ZM873.561 72.4H874.561V71.4H873.561V72.4ZM863.005 72.4V71.4H862.005V72.4H863.005ZM863.005 102.444H862.005V103.444H863.005V102.444ZM905.345 102.444H906.345V101.444H905.345V102.444ZM905.345 113H904.345V114H905.345V113ZM915.959 113V114H916.959V113H915.959ZM915.959 72.4H916.959V71.4H915.959V72.4ZM904.345 72.4V91.83H906.345V72.4H904.345ZM905.345 90.83H873.561V92.83H905.345V90.83ZM874.561 91.83V72.4H872.561V91.83H874.561ZM873.561 71.4H863.005V73.4H873.561V71.4ZM862.005 72.4V102.444H864.005V72.4H862.005ZM863.005 103.444H905.345V101.444H863.005V103.444ZM904.345 102.444V113H906.345V102.444H904.345ZM905.345 114H915.959V112H905.345V114ZM916.959 113V72.4H914.959V113H916.959ZM915.959 71.4H905.345V73.4H915.959V71.4Z" fill="white" fill-opacity="0.4"/>
<path d="M967.374 72.4L968.319 72.0721L968.086 71.4H967.374V72.4ZM935.59 72.4V71.4H934.879L934.646 72.0721L935.59 72.4ZM921.496 113L920.552 112.672L920.091 114H921.496V113ZM932.922 113V114H933.631L933.866 113.332L932.922 113ZM936.634 102.444V101.444H935.926L935.691 102.112L936.634 102.444ZM966.33 102.444L967.275 102.117L967.042 101.444H966.33V102.444ZM969.984 113L969.039 113.327L969.272 114H969.984V113ZM981.468 113V114H982.874L982.413 112.672L981.468 113ZM940.288 91.83L939.344 91.5008L938.881 92.83H940.288V91.83ZM943.362 83.014V82.014H942.652L942.418 82.6848L943.362 83.014ZM959.544 83.014L960.489 82.6848L960.255 82.014H959.544V83.014ZM962.618 91.83V92.83H964.026L963.563 91.5008L962.618 91.83ZM967.374 71.4H935.59V73.4H967.374V71.4ZM934.646 72.0721L920.552 112.672L922.441 113.328L936.535 72.7279L934.646 72.0721ZM921.496 114H932.922V112H921.496V114ZM933.866 113.332L937.578 102.776L935.691 102.112L931.979 112.668L933.866 113.332ZM936.634 103.444H966.33V101.444H936.634V103.444ZM965.385 102.771L969.039 113.327L970.929 112.673L967.275 102.117L965.385 102.771ZM969.984 114H981.468V112H969.984V114ZM982.413 112.672L968.319 72.0721L966.43 72.7279L980.524 113.328L982.413 112.672ZM941.233 92.1592L944.307 83.3432L942.418 82.6848L939.344 91.5008L941.233 92.1592ZM943.362 84.014H959.544V82.014H943.362V84.014ZM958.6 83.3432L961.674 92.1592L963.563 91.5008L960.489 82.6848L958.6 83.3432ZM962.618 90.83H940.288V92.83H962.618V90.83Z" fill="white" fill-opacity="0.4"/>
<path d="M1035.35 72.4V71.4H1034.78L1034.49 71.8929L1035.35 72.4ZM1018.93 100.298L1018.07 100.804L1018.93 102.273L1019.8 100.805L1018.93 100.298ZM1002.58 72.4L1003.44 71.8942L1003.15 71.4H1002.58V72.4ZM987.209 72.4V71.4H986.209V72.4H987.209ZM987.209 113H986.209V114H987.209V113ZM997.765 113V114H998.765V113H997.765ZM997.765 85.16L998.626 84.6521L996.765 81.4949V85.16H997.765ZM1014.18 113L1013.32 113.508L1013.61 114H1014.18V113ZM1023.75 113V114H1024.32L1024.61 113.508L1023.75 113ZM1040.16 85.16H1041.16V81.4949L1039.3 84.6521L1040.16 85.16ZM1040.16 113H1039.16V114H1040.16V113ZM1050.72 113V114H1051.72V113H1050.72ZM1050.72 72.4H1051.72V71.4H1050.72V72.4ZM1034.49 71.8929L1018.07 99.7909L1019.8 100.805L1036.21 72.9071L1034.49 71.8929ZM1019.8 99.7922L1003.44 71.8942L1001.72 72.9058L1018.07 100.804L1019.8 99.7922ZM1002.58 71.4H987.209V73.4H1002.58V71.4ZM986.209 72.4V113H988.209V72.4H986.209ZM987.209 114H997.765V112H987.209V114ZM998.765 113V85.16H996.765V113H998.765ZM996.903 85.6679L1013.32 113.508L1015.04 112.492L998.626 84.6521L996.903 85.6679ZM1014.18 114H1023.75V112H1014.18V114ZM1024.61 113.508L1041.02 85.6679L1039.3 84.6521L1022.89 112.492L1024.61 113.508ZM1039.16 85.16V113H1041.16V85.16H1039.16ZM1040.16 114H1050.72V112H1040.16V114ZM1051.72 113V72.4H1049.72V113H1051.72ZM1050.72 71.4H1035.35V73.4H1050.72V71.4Z" fill="white" fill-opacity="0.4"/>
<path d="M1084.02 72.4V71.4H1083.31L1083.08 72.0669L1084.02 72.4ZM1073.4 102.444V103.444H1074.11L1074.35 102.777L1073.4 102.444ZM1066.56 102.444H1065.56V103.444H1066.56V102.444ZM1066.56 72.4H1067.56V71.4H1066.56V72.4ZM1056 72.4V71.4H1055V72.4H1056ZM1056 113H1055V114H1056V113ZM1080.89 113V114H1081.59L1081.83 113.334L1080.89 113ZM1091.5 83.014V82.014H1090.79L1090.56 82.6803L1091.5 83.014ZM1098.34 83.014H1099.34V82.014H1098.34V83.014ZM1098.34 113H1097.34V114H1098.34V113ZM1108.96 113V114H1109.96V113H1108.96ZM1108.96 72.4H1109.96V71.4H1108.96V72.4ZM1083.08 72.0669L1072.46 102.111L1074.35 102.777L1084.96 72.7331L1083.08 72.0669ZM1073.4 101.444H1066.56V103.444H1073.4V101.444ZM1067.56 102.444V72.4H1065.56V102.444H1067.56ZM1066.56 71.4H1056V73.4H1066.56V71.4ZM1055 72.4V113H1057V72.4H1055ZM1056 114H1080.89V112H1056V114ZM1081.83 113.334L1092.44 83.3477L1090.56 82.6803L1079.94 112.666L1081.83 113.334ZM1091.5 84.014H1098.34V82.014H1091.5V84.014ZM1097.34 83.014V113H1099.34V83.014H1097.34ZM1098.34 114H1108.96V112H1098.34V114ZM1109.96 113V72.4H1107.96V113H1109.96ZM1108.96 71.4H1084.02V73.4H1108.96V71.4Z" fill="white" fill-opacity="0.4"/>
<path d="M186.959 83.014V84.014H187.959V83.014H186.959ZM186.959 72.4H187.959V71.4H186.959V72.4ZM186.959 113V114H187.959V113H186.959ZM186.959 102.444H187.959V101.444H186.959V102.444ZM150.825 84.014H186.959V82.014H150.825V84.014ZM187.959 83.014V72.4H185.959V83.014H187.959ZM186.959 71.4H150.825V73.4H186.959V71.4ZM150.825 71.4C139.077 71.4 129.525 81.0136 129.525 92.7H131.525C131.525 82.1144 140.185 73.4 150.825 73.4V71.4ZM129.525 92.7C129.525 104.446 139.078 114 150.825 114V112C140.183 112 131.525 103.342 131.525 92.7H129.525ZM150.825 114H186.959V112H150.825V114ZM187.959 113V102.444H185.959V113H187.959ZM186.959 101.444H150.825V103.444H186.959V101.444ZM150.825 101.444C145.983 101.444 142.081 97.5417 142.081 92.7H140.081C140.081 98.6463 144.878 103.444 150.825 103.444V101.444ZM142.081 92.7C142.081 87.9202 145.979 84.014 150.825 84.014V82.014C144.882 82.014 140.081 86.8078 140.081 92.7H142.081Z" fill="white" fill-opacity="0.4"/>
<path d="M214.005 72.4V71.4H213.005V72.4H214.005ZM214.005 113H213.005V114H214.005V113ZM266.263 92.12L265.46 91.5237L265.035 92.0961L265.437 92.6847L266.263 92.12ZM224.561 83.014V82.014H223.561V83.014H224.561ZM224.561 86.552H223.561V87.552H224.561V86.552ZM224.561 102.444H223.561V103.444H224.561V102.444ZM224.561 97.166V96.166H223.561V97.166H224.561ZM269.699 84.812C269.699 77.4188 263.686 71.4 256.345 71.4V73.4C262.575 73.4 267.699 78.5172 267.699 84.812H269.699ZM256.345 71.4H214.005V73.4H256.345V71.4ZM213.005 72.4V113H215.005V72.4H213.005ZM214.005 114H255.475V112H214.005V114ZM255.475 114C263.335 114 269.699 107.636 269.699 99.776H267.699C267.699 106.532 262.23 112 255.475 112V114ZM269.699 99.776C269.699 96.7099 268.696 93.906 267.088 91.5553L265.437 92.6847C266.845 94.742 267.699 97.1581 267.699 99.776H269.699ZM267.065 92.7163C268.694 90.5246 269.699 87.7657 269.699 84.812H267.699C267.699 87.3103 266.848 89.6554 265.46 91.5237L267.065 92.7163ZM224.561 84.014H256.345V82.014H224.561V84.014ZM256.345 84.014C256.736 84.014 257.085 84.335 257.085 84.812H259.085C259.085 83.317 257.925 82.014 256.345 82.014V84.014ZM257.085 84.812C257.085 85.2095 256.757 85.552 256.345 85.552V87.552C257.904 87.552 259.085 86.2705 259.085 84.812H257.085ZM256.345 85.552H224.561V87.552H256.345V85.552ZM225.561 86.552V83.014H223.561V86.552H225.561ZM255.475 101.444H224.561V103.444H255.475V101.444ZM225.561 102.444V97.166H223.561V102.444H225.561ZM224.561 98.166H255.475V96.166H224.561V98.166ZM255.475 98.166C256.372 98.166 257.085 98.8783 257.085 99.776H259.085C259.085 97.7737 257.477 96.166 255.475 96.166V98.166ZM257.085 99.776C257.085 100.702 256.344 101.444 255.475 101.444V103.444C257.505 103.444 259.085 101.75 259.085 99.776H257.085Z" fill="white" fill-opacity="0.4"/>
<path d="M316.374 72.4L317.319 72.0721L317.086 71.4H316.374V72.4ZM284.59 72.4V71.4H283.879L283.646 72.0721L284.59 72.4ZM270.496 113L269.552 112.672L269.091 114H270.496V113ZM281.922 113V114H282.631L282.866 113.332L281.922 113ZM285.634 102.444V101.444H284.926L284.691 102.112L285.634 102.444ZM315.33 102.444L316.275 102.117L316.042 101.444H315.33V102.444ZM318.984 113L318.039 113.327L318.272 114H318.984V113ZM330.468 113V114H331.874L331.413 112.672L330.468 113ZM289.288 91.83L288.344 91.5008L287.881 92.83H289.288V91.83ZM292.362 83.014V82.014H291.652L291.418 82.6848L292.362 83.014ZM308.544 83.014L309.489 82.6848L309.255 82.014H308.544V83.014ZM311.618 91.83V92.83H313.026L312.563 91.5008L311.618 91.83ZM316.374 71.4H284.59V73.4H316.374V71.4ZM283.646 72.0721L269.552 112.672L271.441 113.328L285.535 72.7279L283.646 72.0721ZM270.496 114H281.922V112H270.496V114ZM282.866 113.332L286.578 102.776L284.691 102.112L280.979 112.668L282.866 113.332ZM285.634 103.444H315.33V101.444H285.634V103.444ZM314.385 102.771L318.039 113.327L319.929 112.673L316.275 102.117L314.385 102.771ZM318.984 114H330.468V112H318.984V114ZM331.413 112.672L317.319 72.0721L315.43 72.7279L329.524 113.328L331.413 112.672ZM290.233 92.1592L293.307 83.3432L291.418 82.6848L288.344 91.5008L290.233 92.1592ZM292.362 84.014H308.544V82.014H292.362V84.014ZM307.6 83.3432L310.674 92.1592L312.563 91.5008L309.489 82.6848L307.6 83.3432ZM311.618 90.83H289.288V92.83H311.618V90.83Z" fill="white" fill-opacity="0.4"/>
<path d="M389.163 72.4V71.4H388.163V72.4H389.163ZM389.163 102.444V103.444H390.163V102.444H389.163ZM373.271 102.444H372.271V103.444H373.271V102.444ZM373.271 72.4H374.271V71.4H373.271V72.4ZM362.657 72.4V71.4H361.657V72.4H362.657ZM362.657 102.444V103.444H363.657V102.444H362.657ZM346.765 102.444H345.765V103.444H346.765V102.444ZM346.765 72.4H347.765V71.4H346.765V72.4ZM336.209 72.4V71.4H335.209V72.4H336.209ZM336.209 113H335.209V114H336.209V113ZM399.719 113V114H400.719V113H399.719ZM399.719 72.4H400.719V71.4H399.719V72.4ZM388.163 72.4V102.444H390.163V72.4H388.163ZM389.163 101.444H373.271V103.444H389.163V101.444ZM374.271 102.444V72.4H372.271V102.444H374.271ZM373.271 71.4H362.657V73.4H373.271V71.4ZM361.657 72.4V102.444H363.657V72.4H361.657ZM362.657 101.444H346.765V103.444H362.657V101.444ZM347.765 102.444V72.4H345.765V102.444H347.765ZM346.765 71.4H336.209V73.4H346.765V71.4ZM335.209 72.4V113H337.209V72.4H335.209ZM336.209 114H399.719V112H336.209V114ZM400.719 113V72.4H398.719V113H400.719ZM399.719 71.4H389.163V73.4H399.719V71.4Z" fill="white" fill-opacity="0.4"/>
<path d="M433.019 72.4V71.4H432.311L432.076 72.0669L433.019 72.4ZM422.405 102.444V103.444H423.112L423.348 102.777L422.405 102.444ZM415.561 102.444H414.561V103.444H415.561V102.444ZM415.561 72.4H416.561V71.4H415.561V72.4ZM405.005 72.4V71.4H404.005V72.4H405.005ZM405.005 113H404.005V114H405.005V113ZM429.887 113V114H430.593L430.829 113.334L429.887 113ZM440.501 83.014V82.014H439.794L439.558 82.6803L440.501 83.014ZM447.345 83.014H448.345V82.014H447.345V83.014ZM447.345 113H446.345V114H447.345V113ZM457.959 113V114H458.959V113H457.959ZM457.959 72.4H458.959V71.4H457.959V72.4ZM432.076 72.0669L421.462 102.111L423.348 102.777L433.962 72.7331L432.076 72.0669ZM422.405 101.444H415.561V103.444H422.405V101.444ZM416.561 102.444V72.4H414.561V102.444H416.561ZM415.561 71.4H405.005V73.4H415.561V71.4ZM404.005 72.4V113H406.005V72.4H404.005ZM405.005 114H429.887V112H405.005V114ZM430.829 113.334L441.443 83.3477L439.558 82.6803L428.944 112.666L430.829 113.334ZM440.501 84.014H447.345V82.014H440.501V84.014ZM446.345 83.014V113H448.345V83.014H446.345ZM447.345 114H457.959V112H447.345V114ZM458.959 113V72.4H456.959V113H458.959ZM457.959 71.4H433.019V73.4H457.959V71.4Z" fill="white" fill-opacity="0.4"/>
<path d="M511.349 72.4V71.4H510.777L510.487 71.8929L511.349 72.4ZM494.935 100.298L494.072 100.804L494.933 102.273L495.797 100.805L494.935 100.298ZM478.579 72.4L479.441 71.8942L479.152 71.4H478.579V72.4ZM463.209 72.4V71.4H462.209V72.4H463.209ZM463.209 113H462.209V114H463.209V113ZM473.765 113V114H474.765V113H473.765ZM473.765 85.16L474.626 84.6521L472.765 81.4949V85.16H473.765ZM490.179 113L489.317 113.508L489.607 114H490.179V113ZM499.749 113V114H500.32L500.61 113.508L499.749 113ZM516.163 85.16H517.163V81.4949L515.301 84.6521L516.163 85.16ZM516.163 113H515.163V114H516.163V113ZM526.719 113V114H527.719V113H526.719ZM526.719 72.4H527.719V71.4H526.719V72.4ZM510.487 71.8929L494.073 99.7909L495.797 100.805L512.211 72.9071L510.487 71.8929ZM495.797 99.7922L479.441 71.8942L477.716 72.9058L494.072 100.804L495.797 99.7922ZM478.579 71.4H463.209V73.4H478.579V71.4ZM462.209 72.4V113H464.209V72.4H462.209ZM463.209 114H473.765V112H463.209V114ZM474.765 113V85.16H472.765V113H474.765ZM472.903 85.6679L489.317 113.508L491.04 112.492L474.626 84.6521L472.903 85.6679ZM490.179 114H499.749V112H490.179V114ZM500.61 113.508L517.024 85.6679L515.301 84.6521L498.887 112.492L500.61 113.508ZM515.163 85.16V113H517.163V85.16H515.163ZM516.163 114H526.719V112H516.163V114ZM527.719 113V72.4H525.719V113H527.719ZM526.719 71.4H511.349V73.4H526.719V71.4Z" fill="white" fill-opacity="0.4"/>
<path d="M560.019 72.4V71.4H559.311L559.076 72.0669L560.019 72.4ZM549.405 102.444V103.444H550.112L550.348 102.777L549.405 102.444ZM542.561 102.444H541.561V103.444H542.561V102.444ZM542.561 72.4H543.561V71.4H542.561V72.4ZM532.005 72.4V71.4H531.005V72.4H532.005ZM532.005 113H531.005V114H532.005V113ZM556.887 113V114H557.593L557.829 113.334L556.887 113ZM567.501 83.014V82.014H566.794L566.558 82.6803L567.501 83.014ZM574.345 83.014H575.345V82.014H574.345V83.014ZM574.345 113H573.345V114H574.345V113ZM584.959 113V114H585.959V113H584.959ZM584.959 72.4H585.959V71.4H584.959V72.4ZM559.076 72.0669L548.462 102.111L550.348 102.777L560.962 72.7331L559.076 72.0669ZM549.405 101.444H542.561V103.444H549.405V101.444ZM543.561 102.444V72.4H541.561V102.444H543.561ZM542.561 71.4H532.005V73.4H542.561V71.4ZM531.005 72.4V113H533.005V72.4H531.005ZM532.005 114H556.887V112H532.005V114ZM557.829 113.334L568.443 83.3477L566.558 82.6803L555.944 112.666L557.829 113.334ZM567.501 84.014H574.345V82.014H567.501V84.014ZM573.345 83.014V113H575.345V83.014H573.345ZM574.345 114H584.959V112H574.345V114ZM585.959 113V72.4H583.959V113H585.959ZM584.959 71.4H560.019V73.4H584.959V71.4Z" fill="white" fill-opacity="0.4"/>
<path d="M39.033 8.4V7.4H38.033V8.4H39.033ZM39.033 49H38.033V50H39.033V49ZM49.589 49V50H50.589V49H49.589ZM49.589 19.014V18.014H48.589V19.014H49.589ZM81.373 19.014H82.373V18.014H81.373V19.014ZM81.373 49H80.373V50H81.373V49ZM91.987 49V50H92.987V49H91.987ZM91.987 8.4H92.987V7.4H91.987V8.4ZM38.033 8.4V49H40.033V8.4H38.033ZM39.033 50H49.589V48H39.033V50ZM50.589 49V19.014H48.589V49H50.589ZM49.589 20.014H81.373V18.014H49.589V20.014ZM80.373 19.014V49H82.373V19.014H80.373ZM81.373 50H91.987V48H81.373V50ZM92.987 49V8.4H90.987V49H92.987ZM91.987 7.4H39.033V9.4H91.987V7.4Z" fill="white" fill-opacity="0.4"/>
<path d="M146.958 7.4H116.972V9.4H146.958V7.4ZM116.972 7.4C105.224 7.4 95.6721 17.0136 95.6721 28.7H97.6721C97.6721 18.1144 106.332 9.4 116.972 9.4V7.4ZM95.6721 28.7C95.6721 40.4463 105.226 50 116.972 50V48C106.33 48 97.6721 39.3417 97.6721 28.7H95.6721ZM116.972 50H146.958V48H116.972V50ZM146.958 50C158.704 50 168.258 40.4463 168.258 28.7H166.258C166.258 39.3417 157.6 48 146.958 48V50ZM168.258 28.7C168.258 17.0136 158.706 7.4 146.958 7.4V9.4C157.598 9.4 166.258 18.1144 166.258 28.7H168.258ZM146.958 37.444H116.972V39.444H146.958V37.444ZM116.972 37.444C112.13 37.444 108.228 33.5417 108.228 28.7H106.228C106.228 34.6463 111.026 39.444 116.972 39.444V37.444ZM108.228 28.7C108.228 23.9202 112.127 20.014 116.972 20.014V18.014C111.03 18.014 106.228 22.8078 106.228 28.7H108.228ZM116.972 20.014H146.958V18.014H116.972V20.014ZM146.958 20.014C151.742 20.014 155.644 23.9163 155.644 28.7H157.644C157.644 22.8117 152.846 18.014 146.958 18.014V20.014ZM155.644 28.7C155.644 33.5456 151.738 37.444 146.958 37.444V39.444C152.85 39.444 157.644 34.6424 157.644 28.7H155.644Z" fill="white" fill-opacity="0.4"/>
<path d="M213.374 8.4L214.319 8.07205L214.086 7.4H213.374V8.4ZM181.59 8.4V7.4H180.879L180.646 8.07205L181.59 8.4ZM167.496 49L166.552 48.6721L166.091 50H167.496V49ZM227.468 49V50H228.874L228.413 48.6721L227.468 49ZM182.634 38.444L181.689 38.1168L181.23 39.444H182.634V38.444ZM189.362 19.014V18.014H188.65L188.417 18.6868L189.362 19.014ZM205.544 19.014L206.488 18.6843L206.254 18.014H205.544V19.014ZM212.33 38.444V39.444H213.739L213.274 38.1143L212.33 38.444ZM213.374 7.4H181.59V9.4H213.374V7.4ZM180.646 8.07205L166.552 48.6721L168.441 49.3279L182.535 8.72794L180.646 8.07205ZM167.496 50H227.468V48H167.496V50ZM228.413 48.6721L214.319 8.07205L212.43 8.72794L226.524 49.3279L228.413 48.6721ZM183.579 38.7712L190.307 19.3412L188.417 18.6868L181.689 38.1168L183.579 38.7712ZM189.362 20.014H205.544V18.014H189.362V20.014ZM204.6 19.3437L211.386 38.7737L213.274 38.1143L206.488 18.6843L204.6 19.3437ZM212.33 37.444H182.634V39.444H212.33V37.444Z" fill="white" fill-opacity="0.4"/>
<path d="M233.005 8.4V7.4H232.005V8.4H233.005ZM233.005 49H232.005V50H233.005V49ZM243.561 49V50H244.561V49H243.561ZM243.561 38.444V37.444H242.561V38.444H243.561ZM243.561 27.83H242.561V28.83H243.561V27.83ZM243.561 19.014V18.014H242.561V19.014H243.561ZM274.475 7.4H233.005V9.4H274.475V7.4ZM232.005 8.4V49H234.005V8.4H232.005ZM233.005 50H243.561V48H233.005V50ZM244.561 49V38.444H242.561V49H244.561ZM243.561 39.444H274.475V37.444H243.561V39.444ZM274.475 39.444C283.265 39.444 290.439 32.2658 290.439 23.422H288.439C288.439 31.1662 282.156 37.444 274.475 37.444V39.444ZM290.439 23.422C290.439 14.6388 283.268 7.4 274.475 7.4V9.4C282.153 9.4 288.439 15.7332 288.439 23.422H290.439ZM274.475 26.83H243.561V28.83H274.475V26.83ZM244.561 27.83V19.014H242.561V27.83H244.561ZM243.561 20.014H274.475V18.014H243.561V20.014ZM274.475 20.014C276.358 20.014 277.883 21.5383 277.883 23.422H279.883C279.883 20.4337 277.463 18.014 274.475 18.014V20.014ZM277.883 23.422C277.883 25.3057 276.358 26.83 274.475 26.83V28.83C277.463 28.83 279.883 26.4103 279.883 23.422H277.883Z" fill="white" fill-opacity="0.4"/>
<path d="M339.013 8.4V7.4H338.302L338.068 8.07103L339.013 8.4ZM334.083 22.552V23.552H334.793L335.027 22.881L334.083 22.552ZM304.561 22.552H303.561V23.552H304.561V22.552ZM304.561 8.4H305.561V7.4H304.561V8.4ZM294.005 8.4V7.4H293.005V8.4H294.005ZM294.005 33.166H293.005V34.166H294.005V33.166ZM330.371 33.166L331.317 33.4885L331.768 32.166H330.371V33.166ZM328.573 38.444V39.444H329.288L329.519 38.7665L328.573 38.444ZM294.005 38.444V37.444H293.005V38.444H294.005ZM294.005 49H293.005V50H294.005V49ZM336.345 49V50H337.056L337.289 49.3279L336.345 49ZM350.439 8.4L351.383 8.72794L351.844 7.4H350.439V8.4ZM338.068 8.07103L333.138 22.223L335.027 22.881L339.957 8.72897L338.068 8.07103ZM334.083 21.552H304.561V23.552H334.083V21.552ZM305.561 22.552V8.4H303.561V22.552H305.561ZM304.561 7.4H294.005V9.4H304.561V7.4ZM293.005 8.4V33.166H295.005V8.4H293.005ZM294.005 34.166H330.371V32.166H294.005V34.166ZM329.424 32.8435L327.626 38.1215L329.519 38.7665L331.317 33.4885L329.424 32.8435ZM328.573 37.444H294.005V39.444H328.573V37.444ZM293.005 38.444V49H295.005V38.444H293.005ZM294.005 50H336.345V48H294.005V50ZM337.289 49.3279L351.383 8.72794L349.494 8.07205L335.4 48.6721L337.289 49.3279ZM350.439 7.4H339.013V9.4H350.439V7.4Z" fill="white" fill-opacity="0.4"/>
<path d="M426.258 8.4L427.203 8.72674L427.662 7.4H426.258V8.4ZM414.774 8.4V7.4H414.061L413.829 8.07448L414.774 8.4ZM409.902 22.552V23.552H410.615L410.848 22.8775L409.902 22.552ZM398.012 22.552H397.012V23.552H398.012V22.552ZM398.012 8.4H399.012V7.4H398.012V8.4ZM387.398 8.4V7.4H386.398V8.4H387.398ZM387.398 22.552V23.552H388.398V22.552H387.398ZM372.028 22.552L371.084 22.881L371.318 23.552H372.028V22.552ZM367.098 8.4L368.042 8.07103L367.809 7.4H367.098V8.4ZM355.672 8.4V7.4H354.268L354.727 8.72674L355.672 8.4ZM362.69 28.7L363.635 29.0267L363.748 28.7L363.635 28.3733L362.69 28.7ZM355.672 49L354.727 48.6733L354.268 50H355.672V49ZM367.098 49V50H367.809L368.043 49.3287L367.098 49ZM372.608 33.166V32.166H371.897L371.664 32.8373L372.608 33.166ZM387.398 33.166H388.398V32.166H387.398V33.166ZM387.398 49H386.398V50H387.398V49ZM398.012 49V50H399.012V49H398.012ZM398.012 33.166V32.166H397.012V33.166H398.012ZM409.264 33.166L410.209 32.8373L409.975 32.166H409.264V33.166ZM414.774 49L413.83 49.3287L414.063 50H414.774V49ZM426.258 49V50H427.662L427.203 48.6733L426.258 49ZM419.24 28.7L418.295 28.3733L418.182 28.7L418.295 29.0267L419.24 28.7ZM426.258 7.4H414.774V9.4H426.258V7.4ZM413.829 8.07448L408.957 22.2265L410.848 22.8775L415.72 8.72551L413.829 8.07448ZM409.902 21.552H398.012V23.552H409.902V21.552ZM399.012 22.552V8.4H397.012V22.552H399.012ZM398.012 7.4H387.398V9.4H398.012V7.4ZM386.398 8.4V22.552H388.398V8.4H386.398ZM387.398 21.552H372.028V23.552H387.398V21.552ZM372.972 22.223L368.042 8.07103L366.154 8.72897L371.084 22.881L372.972 22.223ZM367.098 7.4H355.672V9.4H367.098V7.4ZM354.727 8.72674L361.745 29.0267L363.635 28.3733L356.617 8.07326L354.727 8.72674ZM361.745 28.3733L354.727 48.6733L356.617 49.3267L363.635 29.0267L361.745 28.3733ZM355.672 50H367.098V48H355.672V50ZM368.043 49.3287L373.553 33.4947L371.664 32.8373L366.154 48.6713L368.043 49.3287ZM372.608 34.166H387.398V32.166H372.608V34.166ZM386.398 33.166V49H388.398V33.166H386.398ZM387.398 50H398.012V48H387.398V50ZM399.012 49V33.166H397.012V49H399.012ZM398.012 34.166H409.264V32.166H398.012V34.166ZM408.32 33.4947L413.83 49.3287L415.719 48.6713L410.209 32.8373L408.32 33.4947ZM414.774 50H426.258V48H414.774V50ZM427.203 48.6733L420.185 28.3733L418.295 29.0267L425.313 49.3267L427.203 48.6733ZM420.185 29.0267L427.203 8.72674L425.313 8.07326L418.295 28.3733L420.185 29.0267Z" fill="white" fill-opacity="0.4"/>
<path d="M459.019 8.4V7.4H458.311L458.076 8.06689L459.019 8.4ZM448.405 38.444V39.444H449.112L449.348 38.7771L448.405 38.444ZM441.561 38.444H440.561V39.444H441.561V38.444ZM441.561 8.4H442.561V7.4H441.561V8.4ZM431.005 8.4V7.4H430.005V8.4H431.005ZM431.005 49H430.005V50H431.005V49ZM455.887 49V50H456.593L456.829 49.3337L455.887 49ZM466.501 19.014V18.014H465.794L465.558 18.6803L466.501 19.014ZM473.345 19.014H474.345V18.014H473.345V19.014ZM473.345 49H472.345V50H473.345V49ZM483.959 49V50H484.959V49H483.959ZM483.959 8.4H484.959V7.4H483.959V8.4ZM458.076 8.06689L447.462 38.1109L449.348 38.7771L459.962 8.7331L458.076 8.06689ZM448.405 37.444H441.561V39.444H448.405V37.444ZM442.561 38.444V8.4H440.561V38.444H442.561ZM441.561 7.4H431.005V9.4H441.561V7.4ZM430.005 8.4V49H432.005V8.4H430.005ZM431.005 50H455.887V48H431.005V50ZM456.829 49.3337L467.443 19.3477L465.558 18.6803L454.944 48.6663L456.829 49.3337ZM466.501 20.014H473.345V18.014H466.501V20.014ZM472.345 19.014V49H474.345V19.014H472.345ZM473.345 50H483.959V48H473.345V50ZM484.959 49V8.4H482.959V49H484.959ZM483.959 7.4H459.019V9.4H483.959V7.4Z" fill="white" fill-opacity="0.4"/>
<path d="M537.349 8.4V7.4H536.777L536.487 7.8929L537.349 8.4ZM520.935 36.298L520.072 36.8038L520.933 38.2726L521.797 36.8051L520.935 36.298ZM504.579 8.4L505.441 7.89423L505.152 7.4H504.579V8.4ZM489.209 8.4V7.4H488.209V8.4H489.209ZM489.209 49H488.209V50H489.209V49ZM499.765 49V50H500.765V49H499.765ZM499.765 21.16L500.626 20.6521L498.765 17.4949V21.16H499.765ZM516.179 49L515.317 49.5079L515.607 50H516.179V49ZM525.749 49V50H526.32L526.61 49.5079L525.749 49ZM542.163 21.16H543.163V17.4949L541.301 20.6521L542.163 21.16ZM542.163 49H541.163V50H542.163V49ZM552.719 49V50H553.719V49H552.719ZM552.719 8.4H553.719V7.4H552.719V8.4ZM536.487 7.8929L520.073 35.7909L521.797 36.8051L538.211 8.9071L536.487 7.8929ZM521.797 35.7922L505.441 7.89423L503.716 8.90576L520.072 36.8038L521.797 35.7922ZM504.579 7.4H489.209V9.4H504.579V7.4ZM488.209 8.4V49H490.209V8.4H488.209ZM489.209 50H499.765V48H489.209V50ZM500.765 49V21.16H498.765V49H500.765ZM498.903 21.6679L515.317 49.5079L517.04 48.4921L500.626 20.6521L498.903 21.6679ZM516.179 50H525.749V48H516.179V50ZM526.61 49.5079L543.024 21.6679L541.301 20.6521L524.887 48.4921L526.61 49.5079ZM541.163 21.16V49H543.163V21.16H541.163ZM542.163 50H552.719V48H542.163V50ZM553.719 49V8.4H551.719V49H553.719ZM552.719 7.4H537.349V9.4H552.719V7.4Z" fill="white" fill-opacity="0.4"/>
<path d="M592.033 8.4V7.4H591.033V8.4H592.033ZM592.033 19.014H591.033V20.014H592.033V19.014ZM613.203 19.014H614.203V18.014H613.203V19.014ZM613.203 49H612.203V50H613.203V49ZM623.759 49V50H624.759V49H623.759ZM623.759 19.014V18.014H622.759V19.014H623.759ZM644.987 19.014V20.014H645.987V19.014H644.987ZM644.987 8.4H645.987V7.4H644.987V8.4ZM591.033 8.4V19.014H593.033V8.4H591.033ZM592.033 20.014H613.203V18.014H592.033V20.014ZM612.203 19.014V49H614.203V19.014H612.203ZM613.203 50H623.759V48H613.203V50ZM624.759 49V19.014H622.759V49H624.759ZM623.759 20.014H644.987V18.014H623.759V20.014ZM645.987 19.014V8.4H643.987V19.014H645.987ZM644.987 7.4H592.033V9.4H644.987V7.4Z" fill="white" fill-opacity="0.4"/>
<path d="M650.005 8.4V7.4H649.005V8.4H650.005ZM650.005 49H649.005V50H650.005V49ZM702.263 28.12L701.46 27.5237L701.035 28.0961L701.437 28.6847L702.263 28.12ZM660.561 19.014V18.014H659.561V19.014H660.561ZM660.561 22.552H659.561V23.552H660.561V22.552ZM660.561 38.444H659.561V39.444H660.561V38.444ZM660.561 33.166V32.166H659.561V33.166H660.561ZM705.699 20.812C705.699 13.4188 699.686 7.4 692.345 7.4V9.4C698.575 9.4 703.699 14.5172 703.699 20.812H705.699ZM692.345 7.4H650.005V9.4H692.345V7.4ZM649.005 8.4V49H651.005V8.4H649.005ZM650.005 50H691.475V48H650.005V50ZM691.475 50C699.335 50 705.699 43.6363 705.699 35.776H703.699C703.699 42.5317 698.23 48 691.475 48V50ZM705.699 35.776C705.699 32.7099 704.696 29.906 703.088 27.5553L701.437 28.6847C702.845 30.742 703.699 33.1581 703.699 35.776H705.699ZM703.065 28.7163C704.694 26.5246 705.699 23.7657 705.699 20.812H703.699C703.699 23.3103 702.848 25.6554 701.46 27.5237L703.065 28.7163ZM660.561 20.014H692.345V18.014H660.561V20.014ZM692.345 20.014C692.736 20.014 693.085 20.335 693.085 20.812H695.085C695.085 19.317 693.925 18.014 692.345 18.014V20.014ZM693.085 20.812C693.085 21.2095 692.757 21.552 692.345 21.552V23.552C693.904 23.552 695.085 22.2705 695.085 20.812H693.085ZM692.345 21.552H660.561V23.552H692.345V21.552ZM661.561 22.552V19.014H659.561V22.552H661.561ZM691.475 37.444H660.561V39.444H691.475V37.444ZM661.561 38.444V33.166H659.561V38.444H661.561ZM660.561 34.166H691.475V32.166H660.561V34.166ZM691.475 34.166C692.372 34.166 693.085 34.8783 693.085 35.776H695.085C695.085 33.7737 693.477 32.166 691.475 32.166V34.166ZM693.085 35.776C693.085 36.7025 692.344 37.444 691.475 37.444V39.444C693.505 39.444 695.085 37.7495 695.085 35.776H693.085Z" fill="white" fill-opacity="0.4"/>
<path d="M759.958 7.4H729.972V9.4H759.958V7.4ZM729.972 7.4C718.224 7.4 708.672 17.0136 708.672 28.7H710.672C710.672 18.1144 719.332 9.4 729.972 9.4V7.4ZM708.672 28.7C708.672 40.4463 718.226 50 729.972 50V48C719.33 48 710.672 39.3417 710.672 28.7H708.672ZM729.972 50H759.958V48H729.972V50ZM759.958 50C771.704 50 781.258 40.4463 781.258 28.7H779.258C779.258 39.3417 770.6 48 759.958 48V50ZM781.258 28.7C781.258 17.0136 771.706 7.4 759.958 7.4V9.4C770.598 9.4 779.258 18.1144 779.258 28.7H781.258ZM759.958 37.444H729.972V39.444H759.958V37.444ZM729.972 37.444C725.13 37.444 721.228 33.5417 721.228 28.7H719.228C719.228 34.6463 724.026 39.444 729.972 39.444V37.444ZM721.228 28.7C721.228 23.9202 725.127 20.014 729.972 20.014V18.014C724.03 18.014 719.228 22.8078 719.228 28.7H721.228ZM729.972 20.014H759.958V18.014H729.972V20.014ZM759.958 20.014C764.742 20.014 768.644 23.9163 768.644 28.7H770.644C770.644 22.8117 765.846 18.014 759.958 18.014V20.014ZM768.644 28.7C768.644 33.5456 764.738 37.444 759.958 37.444V39.444C765.85 39.444 770.644 34.6424 770.644 28.7H768.644Z" fill="white" fill-opacity="0.4"/>
<path d="M785.005 8.4V7.4H784.005V8.4H785.005ZM785.005 49H784.005V50H785.005V49ZM795.561 49V50H796.561V49H795.561ZM795.561 38.444V37.444H794.561V38.444H795.561ZM795.561 27.83H794.561V28.83H795.561V27.83ZM795.561 19.014V18.014H794.561V19.014H795.561ZM826.475 7.4H785.005V9.4H826.475V7.4ZM784.005 8.4V49H786.005V8.4H784.005ZM785.005 50H795.561V48H785.005V50ZM796.561 49V38.444H794.561V49H796.561ZM795.561 39.444H826.475V37.444H795.561V39.444ZM826.475 39.444C835.265 39.444 842.439 32.2658 842.439 23.422H840.439C840.439 31.1662 834.156 37.444 826.475 37.444V39.444ZM842.439 23.422C842.439 14.6388 835.268 7.4 826.475 7.4V9.4C834.153 9.4 840.439 15.7332 840.439 23.422H842.439ZM826.475 26.83H795.561V28.83H826.475V26.83ZM796.561 27.83V19.014H794.561V27.83H796.561ZM795.561 20.014H826.475V18.014H795.561V20.014ZM826.475 20.014C828.358 20.014 829.883 21.5383 829.883 23.422H831.883C831.883 20.4337 829.463 18.014 826.475 18.014V20.014ZM829.883 23.422C829.883 25.3057 828.358 26.83 826.475 26.83V28.83C829.463 28.83 831.883 26.4103 831.883 23.422H829.883Z" fill="white" fill-opacity="0.4"/>
<path d="M888.345 8.4V7.4H887.345V8.4H888.345ZM888.345 27.83V28.83H889.345V27.83H888.345ZM856.561 27.83H855.561V28.83H856.561V27.83ZM856.561 8.4H857.561V7.4H856.561V8.4ZM846.005 8.4V7.4H845.005V8.4H846.005ZM846.005 38.444H845.005V39.444H846.005V38.444ZM888.345 38.444H889.345V37.444H888.345V38.444ZM888.345 49H887.345V50H888.345V49ZM898.959 49V50H899.959V49H898.959ZM898.959 8.4H899.959V7.4H898.959V8.4ZM887.345 8.4V27.83H889.345V8.4H887.345ZM888.345 26.83H856.561V28.83H888.345V26.83ZM857.561 27.83V8.4H855.561V27.83H857.561ZM856.561 7.4H846.005V9.4H856.561V7.4ZM845.005 8.4V38.444H847.005V8.4H845.005ZM846.005 39.444H888.345V37.444H846.005V39.444ZM887.345 38.444V49H889.345V38.444H887.345ZM888.345 50H898.959V48H888.345V50ZM899.959 49V8.4H897.959V49H899.959ZM898.959 7.4H888.345V9.4H898.959V7.4Z" fill="white" fill-opacity="0.4"/>
<path d="M956.987 19.014V20.014H957.987V19.014H956.987ZM956.987 8.4H957.987V7.4H956.987V8.4ZM904.033 8.4V7.4H903.033V8.4H904.033ZM904.033 49H903.033V50H904.033V49ZM956.987 49V50H957.987V49H956.987ZM956.987 38.444H957.987V37.444H956.987V38.444ZM914.589 38.444H913.589V39.444H914.589V38.444ZM914.589 33.166V32.166H913.589V33.166H914.589ZM956.987 33.166V34.166H957.987V33.166H956.987ZM956.987 22.552H957.987V21.552H956.987V22.552ZM914.589 22.552H913.589V23.552H914.589V22.552ZM914.589 19.014V18.014H913.589V19.014H914.589ZM957.987 19.014V8.4H955.987V19.014H957.987ZM956.987 7.4H904.033V9.4H956.987V7.4ZM903.033 8.4V49H905.033V8.4H903.033ZM904.033 50H956.987V48H904.033V50ZM957.987 49V38.444H955.987V49H957.987ZM956.987 37.444H914.589V39.444H956.987V37.444ZM915.589 38.444V33.166H913.589V38.444H915.589ZM914.589 34.166H956.987V32.166H914.589V34.166ZM957.987 33.166V22.552H955.987V33.166H957.987ZM956.987 21.552H914.589V23.552H956.987V21.552ZM915.589 22.552V19.014H913.589V22.552H915.589ZM914.589 20.014H956.987V18.014H914.589V20.014Z" fill="white" fill-opacity="0.4"/>
<path d="M1017.96 19.014V20.014H1018.96V19.014H1017.96ZM1017.96 8.4H1018.96V7.4H1017.96V8.4ZM1017.96 49V50H1018.96V49H1017.96ZM1017.96 38.444H1018.96V37.444H1017.96V38.444ZM981.825 20.014H1017.96V18.014H981.825V20.014ZM1018.96 19.014V8.4H1016.96V19.014H1018.96ZM1017.96 7.4H981.825V9.4H1017.96V7.4ZM981.825 7.4C970.077 7.4 960.525 17.0136 960.525 28.7H962.525C962.525 18.1144 971.185 9.4 981.825 9.4V7.4ZM960.525 28.7C960.525 40.4463 970.078 50 981.825 50V48C971.183 48 962.525 39.3417 962.525 28.7H960.525ZM981.825 50H1017.96V48H981.825V50ZM1018.96 49V38.444H1016.96V49H1018.96ZM1017.96 37.444H981.825V39.444H1017.96V37.444ZM981.825 37.444C976.983 37.444 973.081 33.5417 973.081 28.7H971.081C971.081 34.6463 975.878 39.444 981.825 39.444V37.444ZM973.081 28.7C973.081 23.9202 976.979 20.014 981.825 20.014V18.014C975.882 18.014 971.081 22.8078 971.081 28.7H973.081Z" fill="white" fill-opacity="0.4"/>
<path d="M1022.03 8.4V7.4H1021.03V8.4H1022.03ZM1022.03 19.014H1021.03V20.014H1022.03V19.014ZM1043.2 19.014H1044.2V18.014H1043.2V19.014ZM1043.2 49H1042.2V50H1043.2V49ZM1053.76 49V50H1054.76V49H1053.76ZM1053.76 19.014V18.014H1052.76V19.014H1053.76ZM1074.99 19.014V20.014H1075.99V19.014H1074.99ZM1074.99 8.4H1075.99V7.4H1074.99V8.4ZM1021.03 8.4V19.014H1023.03V8.4H1021.03ZM1022.03 20.014H1043.2V18.014H1022.03V20.014ZM1042.2 19.014V49H1044.2V19.014H1042.2ZM1043.2 50H1053.76V48H1043.2V50ZM1054.76 49V19.014H1052.76V49H1054.76ZM1053.76 20.014H1074.99V18.014H1053.76V20.014ZM1075.99 19.014V8.4H1073.99V19.014H1075.99ZM1074.99 7.4H1022.03V9.4H1074.99V7.4Z" fill="white" fill-opacity="0.4"/>
<path d="M1079 8.4V7.4H1078V8.4H1079ZM1079 49H1078V50H1079V49ZM1131.26 28.12L1130.46 27.5237L1130.03 28.0961L1130.44 28.6847L1131.26 28.12ZM1089.56 19.014V18.014H1088.56V19.014H1089.56ZM1089.56 22.552H1088.56V23.552H1089.56V22.552ZM1089.56 38.444H1088.56V39.444H1089.56V38.444ZM1089.56 33.166V32.166H1088.56V33.166H1089.56ZM1134.7 20.812C1134.7 13.4188 1128.69 7.4 1121.34 7.4V9.4C1127.58 9.4 1132.7 14.5172 1132.7 20.812H1134.7ZM1121.34 7.4H1079V9.4H1121.34V7.4ZM1078 8.4V49H1080V8.4H1078ZM1079 50H1120.47V48H1079V50ZM1120.47 50C1128.33 50 1134.7 43.6363 1134.7 35.776H1132.7C1132.7 42.5317 1127.23 48 1120.47 48V50ZM1134.7 35.776C1134.7 32.7099 1133.7 29.906 1132.09 27.5553L1130.44 28.6847C1131.85 30.742 1132.7 33.1581 1132.7 35.776H1134.7ZM1132.07 28.7163C1133.69 26.5246 1134.7 23.7657 1134.7 20.812H1132.7C1132.7 23.3103 1131.85 25.6554 1130.46 27.5237L1132.07 28.7163ZM1089.56 20.014H1121.34V18.014H1089.56V20.014ZM1121.34 20.014C1121.74 20.014 1122.08 20.335 1122.08 20.812H1124.08C1124.08 19.317 1122.93 18.014 1121.34 18.014V20.014ZM1122.08 20.812C1122.08 21.2095 1121.76 21.552 1121.34 21.552V23.552C1122.9 23.552 1124.08 22.2705 1124.08 20.812H1122.08ZM1121.34 21.552H1089.56V23.552H1121.34V21.552ZM1090.56 22.552V19.014H1088.56V22.552H1090.56ZM1120.47 37.444H1089.56V39.444H1120.47V37.444ZM1090.56 38.444V33.166H1088.56V38.444H1090.56ZM1089.56 34.166H1120.47V32.166H1089.56V34.166ZM1120.47 34.166C1121.37 34.166 1122.08 34.8783 1122.08 35.776H1124.08C1124.08 33.7737 1122.48 32.166 1120.47 32.166V34.166ZM1122.08 35.776C1122.08 36.7025 1121.34 37.444 1120.47 37.444V39.444C1122.51 39.444 1124.08 37.7495 1124.08 35.776H1122.08Z" fill="white" fill-opacity="0.4"/>
<path d="M1187.96 7.4H1157.97V9.4H1187.96V7.4ZM1157.97 7.4C1146.22 7.4 1136.67 17.0136 1136.67 28.7H1138.67C1138.67 18.1144 1147.33 9.4 1157.97 9.4V7.4ZM1136.67 28.7C1136.67 40.4463 1146.23 50 1157.97 50V48C1147.33 48 1138.67 39.3417 1138.67 28.7H1136.67ZM1157.97 50H1187.96V48H1157.97V50ZM1187.96 50C1199.7 50 1209.26 40.4463 1209.26 28.7H1207.26C1207.26 39.3417 1198.6 48 1187.96 48V50ZM1209.26 28.7C1209.26 17.0136 1199.71 7.4 1187.96 7.4V9.4C1198.6 9.4 1207.26 18.1144 1207.26 28.7H1209.26ZM1187.96 37.444H1157.97V39.444H1187.96V37.444ZM1157.97 37.444C1153.13 37.444 1149.23 33.5417 1149.23 28.7H1147.23C1147.23 34.6463 1152.03 39.444 1157.97 39.444V37.444ZM1149.23 28.7C1149.23 23.9202 1153.13 20.014 1157.97 20.014V18.014C1152.03 18.014 1147.23 22.8078 1147.23 28.7H1149.23ZM1157.97 20.014H1187.96V18.014H1157.97V20.014ZM1187.96 20.014C1192.74 20.014 1196.64 23.9163 1196.64 28.7H1198.64C1198.64 22.8117 1193.85 18.014 1187.96 18.014V20.014ZM1196.64 28.7C1196.64 33.5456 1192.74 37.444 1187.96 37.444V39.444C1193.85 39.444 1198.64 34.6424 1198.64 28.7H1196.64Z" fill="white" fill-opacity="0.4"/>
</svg>
